<?xml version="1.0" encoding="iso-8859-1"?>
<!-- Generator: Adobe Illustrator 19.0.0, SVG Export Plug-In . SVG Version: 6.00 Build 0)  -->
<svg version="1.1" id="Layer_1" xmlns="http://www.w3.org/2000/svg" xmlns:xlink="http://www.w3.org/1999/xlink" x="0px" y="0px"
	 viewBox="0 0 492.308 492.308" style="enable-background:new 0 0 492.308 492.308;" xml:space="preserve">
<g>
	<g>
		<polygon points="401.817,367.952 401.817,322.308 382.125,322.308 382.125,367.952 336.481,367.952 336.481,387.644 
			382.125,387.644 382.125,433.279 401.817,433.279 401.817,387.644 447.462,387.644 447.462,367.952 		"/>
	</g>
</g>
<g>
	<g>
		<path d="M392.15,277.471c-14.551-19.507-31.998-36.447-52.15-50.144c-1.615-1.106-4.875-3.221-4.875-3.221L327.26,219
			l-5.481,7.615c-24.096,33.452-63.01,53.433-104.077,53.433c-41.077,0-79.981-19.981-104.077-53.442l-5.5-7.644l-11.904,7.817
			C35.971,267.356,0,334.904,0,407.462v31.644h312.725c18.37,23.685,47.018,39.019,79.246,39.019
			c55.327,0,100.337-45.01,100.337-100.327C492.308,322.531,447.394,277.569,392.15,277.471z M19.692,419.414v-11.952
			c0-64.481,31.231-124.615,83.788-161.769c28,34.01,70.019,54.048,114.221,54.048c44.202,0,86.221-20.038,114.221-54.048
			c13.962,9.87,26.487,21.413,37.421,34.438c-44.448,10.3-77.709,50.132-77.709,97.668c0,14.855,3.332,28.919,9.153,41.615H19.692z
			 M391.971,458.433c-44.471,0-80.644-36.173-80.644-80.635c0-44.471,36.173-80.644,80.644-80.644s80.644,36.173,80.644,80.644
			C472.615,422.26,436.442,458.433,391.971,458.433z"/>
	</g>
</g>
<g>
	<g>
		<path d="M217.702,14.183c-59.529,0-107.952,48.433-107.952,107.962c0,59.529,48.423,107.952,107.952,107.952
			c59.529,0,107.962-48.423,107.962-107.952C325.663,62.615,277.231,14.183,217.702,14.183z M217.702,210.404
			c-48.663,0-88.26-39.596-88.26-88.26c0-48.673,39.596-88.269,88.26-88.269c48.673,0,88.269,39.596,88.269,88.269
			C305.971,170.808,266.375,210.404,217.702,210.404z"/>
	</g>
</g>
</svg>
