<svg xmlns="http://www.w3.org/2000/svg" viewBox="0 0 56 56"><path d="M22.66 0H3.34A3.34 3.34 0 000 3.34v19.32C0 24.5 1.5 26 3.34 26h19.32C24.5 26 26 24.5 26 22.66V3.34C26 1.5 24.5 0 22.66 0zM24 22.66c0 .74-.6 1.34-1.34 1.34H3.34C2.6 24 2 23.4 2 22.66V3.34C2 2.6 2.6 2 3.34 2h19.32C23.4 2 24 2.6 24 3.34v19.32zM52.66 0H33.34A3.34 3.34 0 0030 3.34v19.32C30 24.5 31.5 26 33.34 26h19.32C54.5 26 56 24.5 56 22.66V3.34C56 1.5 54.5 0 52.66 0zM54 22.66c0 .74-.6 1.34-1.34 1.34H33.34c-.74 0-1.34-.6-1.34-1.34V3.34C32 2.6 32.6 2 33.34 2h19.32C53.4 2 54 2.6 54 3.34v19.32zM22.66 30H3.34A3.34 3.34 0 000 33.34v19.32C0 54.5 1.5 56 3.34 56h19.32C24.5 56 26 54.5 26 52.66V33.34C26 31.5 24.5 30 22.66 30zM24 52.66c0 .74-.6 1.34-1.34 1.34H3.34C2.6 54 2 53.4 2 52.66V33.34C2 32.6 2.6 32 3.34 32h19.32c.74 0 1.34.6 1.34 1.34v19.32zM55 42H44V31a1 1 0 10-2 0v11H31a1 1 0 100 2h11v11a1 1 0 102 0V44h11a1 1 0 100-2z"/></svg>