<svg version="1.1" id="Capa_1" xmlns="http://www.w3.org/2000/svg" xmlns:xlink="http://www.w3.org/1999/xlink" x="0px" y="0px" viewBox="0 0 512 512" style="enable-background:new 0 0 512 512;" xml:space="preserve">
	<g>
		<g>
			<path d="M437.333,0H138.667C97.493,0,64,33.493,64,74.667v192c0,41.173,33.493,74.667,74.667,74.667h187.584l103.531,103.552
				c2.048,2.027,4.779,3.115,7.552,3.115c1.365,0,2.752-0.277,4.075-0.811c3.989-1.643,6.592-5.547,6.592-9.856v-96.747
				c36.139-5.205,64-36.373,64-73.92v-192C512,33.493,478.507,0,437.333,0z M490.667,266.667c0,29.419-23.936,53.333-53.333,53.333
				c-5.888,0-10.667,4.779-10.667,10.667v80.917l-88.448-88.469c-2.005-1.984-4.715-3.115-7.552-3.115h-192
				c-29.397,0-53.333-23.915-53.333-53.333v-192c0-29.419,23.936-53.333,53.333-53.333h298.667c29.397,0,53.333,23.915,53.333,53.333
				V266.667z"/>
		</g>
	</g>
	<g>
		<g>
			<path d="M334.336,384H181.333c-2.837,0-5.547,1.131-7.552,3.136l-88.448,88.448v-80.917c0-5.888-4.779-10.667-10.667-10.667
				c-29.397,0-53.333-23.915-53.333-53.333v-192c0-15.147,6.464-29.653,17.771-39.723c4.395-3.947,4.757-10.688,0.832-15.061
				c-3.947-4.395-10.645-4.779-15.061-0.853C9.067,97.173,0,117.461,0,138.667v192c0,37.547,27.861,68.715,64,73.92v96.747
				c0,4.309,2.603,8.213,6.592,9.856c1.323,0.533,2.709,0.811,4.075,0.811c2.773,0,5.504-1.088,7.531-3.115l103.552-103.552h148.587
				c5.888,0,10.667-4.779,10.667-10.667S340.224,384,334.336,384z"/>
		</g>
	</g>
</svg>
