<svg version="1.1" id="Capa_1" xmlns="http://www.w3.org/2000/svg" xmlns:xlink="http://www.w3.org/1999/xlink" x="0px" y="0px"
	 width="50px" height="50px" viewBox="0 0 50 50" style="enable-background:new 0 0 50 50;" xml:space="preserve">
<g>
	<g>
		<path d="M12.463,33.234l-0.037-0.067l0.037-0.467v-0.941l-0.518-0.69l0.238-1.325l-0.348-0.1v-2.878c0,0-0.979-0.741-1.035-0.741
			c-0.056,0-0.518-0.125-0.518-0.125l-0.098-0.545l-1.271-1.593l0.125-0.572l0.043-0.938l0.881-0.613l-0.127-1.049L8.55,20.492
			l-1.006-1.146l-0.713-0.195L6.37,19.067l0.057-0.419l-0.588-0.084v0.237l-1.467-0.362l-0.59-0.904l0.24-0.438l-0.93-1.355
			L2.934,14.75H2.559l0.125,0.964l0.643,0.992l-0.07,0.392l-0.545-0.084l-0.67-1.143v-1.33l-0.699-0.336v-0.957
			C0.479,15.27,0,17.494,0,19.828c0,7.764,5.299,14.297,12.463,16.223V33.234z"/>
		<path d="M6.734,18.076l1.285-0.86l0.113,0.427l-0.393,0.74l0.979,0.168l0.098,1.512l1.342,0.227l0.852-0.984l1.035,0.21
			l0.363,0.506l0.055-0.003v-3.88H22.4l0.877-0.633v-0.95l0.908-0.505l0.369,0.037h0.748l0.589-0.315l1.885-0.146v0.965l1.49,0.377
			l0.291,0.21h0.272v-0.525l0.858-0.083l0.816,0.608h1.342l0.096-0.087c-0.135-0.452-0.287-0.896-0.457-1.332l-0.875,0.014
			l-0.438-0.481l-0.084-0.775l-0.45,0.245l-0.24,0.948l-0.65-0.691l-0.027-0.654l-0.627-0.539l-0.232-0.23h-0.727l0.23,0.648
			l0.875,0.488l0.152,0.161l-0.189,0.096l0.008,0.513l-0.428,0.179l-0.363-0.08l-0.229-0.322l0.592,0.031l0.16-0.216l-1.313-0.886
			l-0.101-0.377l-0.532,0.482l-0.541-0.11l-0.822,1.069l-0.161,0.419l-0.526,0.048l-0.781,0.005l-0.465-0.218l-0.135-0.926
			l0.166-0.439l0.793-0.174l0.864,0.174l0.104-0.479l-0.367-0.087l0.125-0.745l0.871-0.136l0.606-0.859l0.627-0.104l0.568,0.083
			h0.209l-0.115-0.807l-0.688,0.278l-0.242-0.603l-0.399-0.056l-0.074-0.414l0.326-0.354l0.774-0.304l0.199-0.356
			c-2.963-2.611-6.848-4.201-11.1-4.201c-3.689,0-7.102,1.197-9.877,3.22l0.848-0.007L8.159,6.44l0.713,0.153l0.055,0.28
			l1.133,0.042L9.906,6.552L8.9,6.52l0.236-0.223L9.054,6.031H8.146l0.99-0.741h0.951l0.447,0.615l0.74,0.042l0.447-0.434
			l0.336,0.168l-0.615,0.601c0,0-0.852,0.015-0.811,0.015s0.07,0.587,0.07,0.587l1.033-0.029l0.111-0.278l0.713-0.042l0.084-0.419
			l-0.418-0.071l0.139-0.377l0.32-0.097l1.119,0.056l-0.615,0.559l0.098,0.433l0.643,0.098l-0.041-0.782l0.615-0.321l1.09-0.126
			l1.578,0.699v0.601l0.502,0.126l-0.25,0.475h-0.713L16.5,7.931l-1.629-0.385l1.279-0.681l-0.488-0.416l-1.104,0.14L14.462,6.69
			l-0.006-0.001L14.44,6.712l-0.318,0.33l-0.525,0.044l0.043,0.262l0.184,0.075l-0.008,0.088l-0.428,0.061l-0.031,0.247L12.949,7.84
			l-0.074-0.492l-0.732,0.224l-1.5,0.877l0.17,0.617l0.418,0.273l0.838,0.116v0.952l0.387-0.063L12.813,9.6l0.891-0.283V8.175
			L14.2,7.801l1.197,0.282l-0.084,0.756h0.322l0.881-0.434l0.041,0.991L17.2,9.788l-0.027,0.587l-0.615,0.21l0.043,0.194l0.74,0.336
			l-0.016,0.406l-0.213,0.018c-0.002-0.007-0.004-0.011-0.004-0.011l-0.934-0.288l-0.039-0.3h-0.002l0.273-0.188v-0.273
			l-0.293-0.073l-0.074,0.252l-0.514,0.079l-0.053-0.017v0.025l-0.178,0.027l-0.145-0.294l-0.17-0.073h-0.365l-0.168,0.137v0.303
			l0.314,0.105l0.309,0.043l-0.068,0.03l-0.283,0.313l-0.123-0.156l-0.273-0.072l-0.746,0.7l0.098,0.08l-1.1,0.608l-1.033,1.076
			l-0.07,0.479l-1.037,0.682L9.92,15.25l0.057,1.034l-0.713-0.332l0.006-0.605l-1.984,0.001l-1.027,0.521l-0.445,0.822l-0.176,0.652
			l0.287,0.631L6.734,18.076z M24.549,8.971l0.152-0.237l0.553-0.111l0.139,0.672l0.295,0.475l0.195,0.224l0.355,0.14l-0.334,0.398
			l-0.65,0.063h-0.49l0.057-0.58l0.406-0.084l-0.035-0.272l-0.378-0.237L24.549,9.24V8.971z M23.641,10.021l0.336-0.539l0.453-0.104
			l0.322,0.14l-0.029,0.363l-0.691,0.488h-0.391V10.021z M14.834,11.679h0.484l0.098-0.257l0.193-0.004l0.217,0.046l-0.092,0.193
			l-0.24,0.021l-0.049,0.231l-0.184,0.114l-0.295,0.024c-0.01-0.069-0.016-0.122-0.016-0.122h-0.117L14.834,11.679L14.834,11.679z
			 M14.176,11.873l0.156-0.194l0.211,0.165l-0.037,0.244l-0.35,0.029L14.176,11.873z"/>
		<path d="M13.629,38.424h31.799V17.457H13.629V38.424z M16.854,20.679h25.35v14.522h-25.35V20.679z"/>
		<path d="M29.979,39.398h-0.903H13.629l-4.33,5.787h40.455l-4.332-5.787H29.979z M13.957,44.118l2.746-3.656h12.461h0.73h12.459
			l2.321,3.656H13.957z"/>
		<polygon points="33.902,45.605 33.902,46.312 25.23,46.312 25.23,45.605 9.053,45.605 9.053,46.982 50,46.982 50,45.605 		"/>
	</g>
</g>
</svg>
