<?xml version="1.0" standalone="no"?><!DOCTYPE svg PUBLIC "-//W3C//DTD SVG 1.1//EN" "http://www.w3.org/Graphics/SVG/1.1/DTD/svg11.dtd"><svg t="1582165091370" class="icon" viewBox="0 0 1024 1024" version="1.1" xmlns="http://www.w3.org/2000/svg" p-id="4890" xmlns:xlink="http://www.w3.org/1999/xlink" width="200" height="200"><defs><style type="text/css"></style></defs><path d="M909.266934 805.994065c0-0.074353-0.009783-0.144793-0.01174-0.21719-0.34633-120.483709-72.390798-224.079428-175.702801-270.421123 47.032398-35.990927 77.370515-92.699042 77.370515-156.49616 0-103.895089-80.452265-188.984654-182.4533-196.404335-1.2914-0.172187-2.598453-0.2935-3.93877-0.2935-16.20707 0-29.350001 13.140974-29.350001 29.350001 0 16.210984 13.14293 29.350001 29.350001 29.350001 0.160447 0 0.315023-0.021523 0.473513-0.02348 71.394855 5.684117 127.572713 65.368321 127.572713 138.22285 0 47.979424-24.374197 90.249295-61.400202 115.157662-17.324327 7.059653-29.553494 24.031781-29.553494 43.893905 0 19.68798 12.00415 36.544664 29.079981 43.717804v0.115443c92.922102 32.449361 159.634654 120.765469 159.8538 224.705562h0.039134c0.350243 15.9077 13.328814 28.698431 29.316737 28.698431s28.968451-12.79073 29.316737-28.698431h0.033264l-0.00587-0.52243c0.003913-0.048917 0.009783-0.091963 0.009783-0.13501z" fill="#525252" p-id="4891"></path><path d="M712.347996 822.823355c-0.360027-125.37342-78.341022-232.489182-188.419177-275.809783 58.774355-35.343271 98.099442-99.731302 98.099442-173.309797 0-111.614139-90.482139-202.098235-202.096278-202.098234-111.616096 0-202.098235 90.482139-202.098235 202.098234 0 72.042512 37.704968 135.27024 94.448302 171.055717-113.455363 41.853101-194.359618 150.94314-194.359617 278.932623h0.09392c0.350243 15.9077 13.328814 28.698431 29.316737 28.698431s28.968451-12.79073 29.316737-28.698431h0.001957v-0.06457c0.003913-0.197623 0.03522-0.397203 0.031307-0.596783l-0.013697-0.772883c0.800277-131.03797 107.254686-236.561005 238.484409-236.561006 131.550616 0 238.224172 106.509196 238.502019 237.995242h0.039133c0.350243 15.9077 13.328814 28.698431 29.316737 28.698431s28.968451-12.79073 29.316738-28.698431h0.033263l-0.00587-0.52243 0.00587-0.12914c-0.003913-0.072397-0.01174-0.142837-0.013697-0.21719zM419.808713 517.428772c-79.264568 0-143.521503-64.256935-143.521503-143.521503s64.256935-143.519547 143.521503-143.519547 143.519547 64.254978 143.519547 143.519547-64.254978 143.521503-143.519547 143.521503z" fill="#525252" p-id="4892"></path></svg>