<?xml version="1.0" standalone="no"?><!DOCTYPE svg PUBLIC "-//W3C//DTD SVG 1.1//EN" "http://www.w3.org/Graphics/SVG/1.1/DTD/svg11.dtd"><svg t="1582165081304" class="icon" viewBox="0 0 1024 1024" version="1.1" xmlns="http://www.w3.org/2000/svg" p-id="4755" xmlns:xlink="http://www.w3.org/1999/xlink" width="200" height="200"><defs><style type="text/css"></style></defs><path d="M546.133333 501.333333c55.466667-40.533333 93.866667-106.666667 93.866667-181.333333 0-123.733333-100.266667-224-224-224S192 196.266667 192 320c0 74.666667 36.266667 140.8 93.866667 181.333333C119.466667 556.8 0 712.533333 0 896c0 17.066667 14.933333 32 32 32S64 913.066667 64 896c0-194.133333 157.866667-352 352-352S768 701.866667 768 896c0 17.066667 14.933333 32 32 32S832 913.066667 832 896c0-183.466667-119.466667-339.2-285.866667-394.666667zM256 320c0-87.466667 72.533333-160 160-160S576 232.533333 576 320s-72.533333 160-160 160S256 407.466667 256 320z" fill="#212121" p-id="4756"></path><path d="M789.333333 471.466667c40.533333-32 66.133333-81.066667 66.133334-134.4 0-96-83.2-174.933333-183.466667-174.933334-17.066667-2.133333-32 12.8-32 29.866667s14.933333 32 32 32c66.133333 0 119.466667 51.2 119.466667 110.933333S738.133333 448 672 448c-17.066667 0-32 14.933333-32 32s12.8 32 29.866667 32C832 518.4 960 644.266667 960 800c0 17.066667 14.933333 32 32 32s32-14.933333 32-32c0-149.333333-96-279.466667-234.666667-328.533333z" fill="#212121" p-id="4757"></path></svg>