<svg xmlns="http://www.w3.org/2000/svg" viewBox="0 0 512 512"><path d="M330.67 384c-5.9 0-10.67 4.77-10.67 10.67v74.66a21.36 21.36 0 01-21.33 21.34h-256a21.36 21.36 0 01-21.34-21.34V42.67a21.36 21.36 0 0121.34-21.34h256A21.36 21.36 0 01320 42.67v74.66a10.66 10.66 0 1021.33 0V42.67A42.71 42.71 0 00298.67 0h-256A42.7 42.7 0 000 42.67v426.66A42.7 42.7 0 0042.67 512h256a42.7 42.7 0 0042.66-42.67v-74.66c0-5.9-4.77-10.67-10.66-10.67z"/><path d="M508.54 248.13l-128-117.33a10.68 10.68 0 00-14.42 15.73l107.8 98.8H138.67a10.66 10.66 0 100 21.34h335.25l-107.8 98.8a10.67 10.67 0 0014.42 15.73l128-117.34a10.66 10.66 0 000-15.73z"/></svg>