<?xml version="1.0" encoding="iso-8859-1"?>
<!-- Generator: Adobe Illustrator 19.0.0, SVG Export Plug-In . SVG Version: 6.00 Build 0)  -->
<svg version="1.1" id="Capa_1" xmlns="http://www.w3.org/2000/svg" xmlns:xlink="http://www.w3.org/1999/xlink" x="0px" y="0px"
	 viewBox="0 0 512 512" style="enable-background:new 0 0 512 512;" xml:space="preserve">
<g>
	<g>
		<path d="M480,85.333H32c-17.643,0-32,14.357-32,32v277.333c0,17.643,14.357,32,32,32h448c17.643,0,32-14.357,32-32V117.333
			C512,99.691,497.643,85.333,480,85.333z M490.667,394.667c0,5.888-4.779,10.667-10.667,10.667H32
			c-5.888,0-10.667-4.779-10.667-10.667V117.333c0-5.888,4.779-10.667,10.667-10.667h448c5.888,0,10.667,4.779,10.667,10.667
			V394.667z"/>
	</g>
</g>
<g>
	<g>
		<path d="M504.597,96.917c-3.456-4.779-10.155-5.845-14.891-2.389L274.816,249.877c-11.264,8.171-26.389,8.192-37.675-0.021
			L22.336,94.528c-4.779-3.456-11.456-2.389-14.891,2.389c-3.435,4.779-2.368,11.456,2.389,14.912l214.784,155.307
			c9.387,6.827,20.373,10.24,31.381,10.24c10.987,0,21.973-3.413,31.339-10.24l214.869-155.328
			C506.965,108.373,508.053,101.696,504.597,96.917z"/>
	</g>
</g>
<g>
	<g>
		<path d="M236.096,249.728c-3.477-4.757-10.112-5.845-14.912-2.368L10.133,400.555c-4.757,3.477-5.824,10.133-2.368,14.912
			c2.091,2.88,5.333,4.395,8.64,4.395c2.155,0,4.352-0.661,6.272-2.027L233.728,264.64
			C238.485,261.163,239.552,254.507,236.096,249.728z"/>
	</g>
</g>
<g>
	<g>
		<path d="M501.867,400.555L290.837,247.36c-4.821-3.477-11.456-2.411-14.912,2.368c-3.456,4.779-2.389,11.435,2.368,14.912
			l211.029,153.195c1.877,1.365,4.075,2.027,6.251,2.027c3.307,0,6.571-1.515,8.661-4.395
			C507.691,410.688,506.624,404.032,501.867,400.555z"/>
	</g>
</g>
<g>
</g>
<g>
</g>
<g>
</g>
<g>
</g>
<g>
</g>
<g>
</g>
<g>
</g>
<g>
</g>
<g>
</g>
<g>
</g>
<g>
</g>
<g>
</g>
<g>
</g>
<g>
</g>
<g>
</g>
</svg>
