<svg id="Layer_1" height="512" viewBox="0 0 512 512" width="512" xmlns="http://www.w3.org/2000/svg" data-name="Layer 1"><path d="m37.5 448.5h457a6 6 0 0 0 0-12h-25.243v-329.765a9.124 9.124 0 0 0 -9.093-9.135h-58.737a9.125 9.125 0 0 0 -9.094 9.135v329.765h-35.292v-288.053a9.125 9.125 0 0 0 -9.094-9.135h-58.737a9.124 9.124 0 0 0 -9.093 9.135v288.053h-35.293v-246.342a9.124 9.124 0 0 0 -9.093-9.135h-58.737a9.124 9.124 0 0 0 -9.093 9.135v246.342h-35.293v-191.134a9.124 9.124 0 0 0 -9.093-9.135h-58.738a9.124 9.124 0 0 0 -9.092 9.135v191.134h-18.185a14.006 14.006 0 0 1 -14-13.982v-353.018a6 6 0 0 0 -12 0v353.018a26.02 26.02 0 0 0 26 25.982zm366.833-338.9h52.924v326.9h-52.924zm-112.216 41.712h52.924v285.188h-52.924zm-112.217 41.711h52.923v243.477h-52.923zm-112.215 55.208h52.923v188.269h-52.923z"/></svg>