<svg height="473pt" viewBox="-1 0 473 473.39295" width="473pt" xmlns="http://www.w3.org/2000/svg"><path d="m456.851562 14.972656c-11.085937-11.847656-27.472656-17.183594-43.410156-14.128906-52.742187 11.859375-127.628906 38.027344-184.695312 95.105469-21.195313 21.339843-41.003906 44.015625-59.304688 67.886719-24.328125-15.988282-54.996094-18.890626-81.890625-7.746094-26.894531 11.144531-46.523437 34.886718-52.414062 63.394531-.597657 2.949219.503906 5.984375 2.855469 7.859375 2.355468 1.871094 5.558593 2.265625 8.296874 1.023438 24.851563-11.066407 53.804688-7.25 74.9375 9.878906-3.144531 6.289062-6 12.359375-8.222656 17.925781-1.195312 2.972656-.503906 6.367187 1.757813 8.632813l92.207031 92.207031c2.246094 2.246093 5.605469 2.953125 8.5625 1.800781 5.597656-2.175781 11.710938-5.046875 18.28125-8.34375 18.402344 21.210938 22.832031 51.171875 11.359375 76.800781-1.125 2.476563-.914063 5.351563.558594 7.636719 1.472656 2.285156 4.003906 3.664062 6.71875 3.667969.539062.003906 1.074219-.050781 1.601562-.160157 16.8125-3.417968 32.238281-11.734374 44.335938-23.898437 29.96875-30.214844 34.152343-77.496094 9.953125-112.503906 23.742187-18.179688 46.285156-37.875 67.496094-58.957031 57.070312-57.074219 83.238281-131.9375 95.152343-184.6875 3.054688-15.933594-2.28125-32.320313-14.136719-43.394532zm-381.152343 191.074219c-6.863281.003906-13.699219.808594-20.375 2.398437 8.449219-19.195312 24.847656-33.753906 44.910156-39.863281 20.0625-6.113281 41.792969-3.175781 59.511719 8.046875-1.75 2.398438-3.40625 4.800782-5.09375 7.199219-.800782 1.152344-1.664063 2.3125-2.464844 3.457031-3.367188 4.847656-6.59375 9.648438-9.6875 14.398438-.609375.921875-1.152344 1.816406-1.738281 2.738281-2.445313 3.808594-4.78125 7.558594-7.007813 11.253906-.863281 1.433594-1.695312 2.847657-2.527344 4.265625-.742187 1.273438-1.601562 2.574219-2.273437 3.832032-15.367187-11.507813-34.054687-17.730469-53.253906-17.726563zm211.367187 197.132813c-6.320312 6.328124-13.765625 11.414062-21.960937 14.992187 6.246093-26.398437.082031-54.207031-16.734375-75.496094 1.253906-.71875 2.558594-1.535156 3.832031-2.285156 1.414063-.800781 2.824219-1.664063 4.253906-2.53125 3.664063-2.207031 7.375-4.519531 11.128907-6.941406 1-.648438 1.976562-1.242188 2.984374-1.90625 4.703126-3.070313 9.457032-6.292969 14.265626-9.664063 1.199218-.796875 2.398437-1.726562 3.621093-2.589844 2.402344-1.6875 4.746094-3.351562 7.136719-5.105468 19.40625 28.625 15.832031 66.984375-8.527344 91.527344zm77.449219-171.460938c-22.574219 22.480469-46.699219 43.347656-72.191406 62.453125-6.769531 5.105469-13.488281 9.875-20.152344 14.464844-8.800781 6.082031-17.519531 11.769531-25.875 16.753906-4.878906 2.910156-9.644531 5.597656-14.261719 8.085937-6.402344 3.394532-12.191406 6.175782-17.519531 8.457032l-84.640625-84.648438c2.398438-5.449218 5.183594-11.28125 8.40625-17.390625 11.535156-21.015625 24.609375-41.148437 39.113281-60.234375l.175781-.230468.128907-.175782c19.097656-25.40625 39.925781-49.460937 62.335937-72 31.699219-30.730468 69.320313-54.691406 110.574219-70.425781l84.335937 84.304687c-15.730468 41.257813-39.695312 78.882813-70.429687 110.585938zm90.894531-176.898438c-3.808594 16.871094-8.574218 33.511719-14.273437 49.839844l-74.023438-73.984375c16.332031-5.695312 32.976563-10.457031 49.847657-14.261719 10.574218-1.746093 21.316406 1.949219 28.578124 9.832032 7.894532 7.253906 11.605469 17.996094 9.871094 28.574218zm0 0"/><path d="m240.058594 129.894531c-28.117188 28.117188-28.117188 73.703125 0 101.820313 28.117187 28.121094 73.707031 28.121094 101.824218 0 28.117188-28.117188 28.117188-73.703125 0-101.820313-28.140624-28.066406-73.683593-28.066406-101.824218 0zm90.550781 90.511719c-18.890625 18.886719-48.496094 21.796875-70.707031 6.953125-22.214844-14.84375-30.84375-43.3125-20.617188-67.992187 10.226563-24.683594 36.460938-38.703126 62.664063-33.488282s45.070312 28.210938 45.070312 54.925782c-.007812 14.851562-5.910156 29.09375-16.410156 39.601562zm0 0"/><path d="m292.066406 212.789062c-4.308594.160157-8.605468-.558593-12.625-2.121093-2.683594-1.109375-5.761718-.679688-8.035156 1.128906-2.277344 1.808594-3.390625 4.707031-2.914062 7.574219.476562 2.867187 2.46875 5.25 5.207031 6.226562 5.503906 2.121094 11.355469 3.207032 17.253906 3.199219h1.648437c4.417969-.148437 7.878907-3.847656 7.730469-8.261719-.25-4.375-3.886719-7.78125-8.265625-7.746094zm0 0"/><path d="m313.601562 146.871094c-3.121093 3.121094-3.121093 8.1875 0 11.308594 12.492188 12.496093 12.492188 32.753906 0 45.25-2.078124 2.007812-2.914062 4.984374-2.179687 7.78125.730469 2.796874 2.914063 4.980468 5.710937 5.710937 2.796876.734375 5.773438-.101563 7.78125-2.179687 18.738282-18.746094 18.738282-49.128907 0-67.871094-3.125-3.125-8.1875-3.125-11.3125 0zm0 0"/><path d="m166.523438 248.691406c-3.140626-3.03125-8.128907-2.988281-11.214844.097656-3.085938 3.085938-3.128906 8.078126-.097656 11.214844l56.566406 56.5625c3.140625 3.03125 8.128906 2.988282 11.214844-.097656 3.085937-3.085938 3.128906-8.078125.097656-11.214844zm0 0"/><path d="m388.105469 117.605469-33.933594-33.9375c-1.996094-2.128907-4.996094-3-7.824219-2.277344-2.824218.726563-5.035156 2.933594-5.761718 5.757813-.726563 2.828124.144531 5.828124 2.273437 7.824218l33.933594 33.9375c3.140625 3.03125 8.128906 2.988282 11.214843-.097656 3.085938-3.085938 3.128907-8.078125.097657-11.214844zm0 0"/><path d="m168.859375 333.796875c.070313-2.207031-.773437-4.347656-2.335937-5.910156l-22.625-22.632813c-1.5625-1.5625-3.703126-2.410156-5.914063-2.339844-2.207031.074219-4.289063 1.054688-5.75 2.714844l-82.222656 93.59375-48.089844 61.207032c-2.550781 3.222656-2.242187 7.855468.710937 10.710937 2.953126 2.859375 7.589844 3.015625 10.730469.359375l59.390625-49.894531.136719-.113281 93.257813-81.941407c1.65625-1.460937 2.640624-3.542969 2.710937-5.753906zm-106.464844 75.617187-.183593.160157 76.398437-86.96875 10.5625 10.558593zm0 0"/><path d="m40.210938 385.375c2.15625.003906 4.226562-.859375 5.734374-2.402344l81.066407-83.457031c3.027343-3.132813 2.992187-8.109375-.082031-11.199219l-22.632813-22.625c-1.777344-1.777344-4.289063-2.617187-6.777344-2.265625-2.492187.355469-4.671875 1.855469-5.886719 4.058594l-58.398437 106.066406c-1.34375 2.46875-1.292969 5.464844.136719 7.886719 1.429687 2.425781 4.027344 3.917969 6.839844 3.9375zm60.296874-100.875 9.535157 9.527344-34.128907 35.121094zm0 0"/><path d="m183.492188 344.851562c-3.125-3.121093-8.191407-3.121093-11.3125 0l-81.9375 81.945313c-2.152344 2.152344-2.898438 5.339844-1.917969 8.222656l.308593.921875c.769532 2.269532 2.515626 4.074219 4.757813 4.917969s4.746094.640625 6.820313-.558594l104.253906-60.238281c2.152344-1.246094 3.601562-3.417969 3.925781-5.882812.324219-2.460938-.511719-4.9375-2.269531-6.695313zm-41.53125 52.859376 35.851562-35.890626 9.597656 9.601563zm0 0"/><path d="m421.082031 50.703125c-3.171875-2.792969-7.96875-2.636719-10.953125.355469-2.980468 2.996094-3.121094 7.792968-.316406 10.953125l16.925781 16.960937c3.140625 3.03125 8.128907 2.988282 11.214844-.097656s3.128906-8.074219.097656-11.214844zm0 0"/></svg>