<svg version="1.1" id="Layer_1" xmlns="http://www.w3.org/2000/svg" xmlns:xlink="http://www.w3.org/1999/xlink" x="0px" y="0px"
	 viewBox="0 0 492.255 492.255" style="enable-background:new 0 0 492.255 492.255;" xml:space="preserve">
<g>
	<g>
		<polygon points="436.216,336.692 374.909,398.005 347.736,370.827 333.813,384.75 374.909,425.851 450.139,350.615 		"/>
	</g>
</g>
<g>
	<g>
		<path d="M217.712,14.178c-59.529,0-107.957,48.428-107.957,107.957c0,59.529,48.428,107.962,107.957,107.962
			c59.524,0,107.957-48.433,107.957-107.962C325.668,62.606,277.236,14.178,217.712,14.178z M217.712,210.404
			c-48.668,0-88.264-39.596-88.264-88.269c0-48.668,39.596-88.264,88.264-88.264s88.264,39.596,88.264,88.264
			C305.976,170.808,266.38,210.404,217.712,210.404z"/>
	</g>
</g>
<g>
	<g>
		<path d="M462.918,306.846c-19.502-19.502-45.103-29.27-70.722-29.326c-14.567-19.539-32.032-36.499-52.249-50.241
			c-1.596-1.082-4.798-3.168-4.798-3.168l-7.865-5.13l-5.5,7.625c-24.106,33.462-63.01,53.437-104.072,53.437
			c-41.072,0-79.981-19.981-104.077-53.447l-5.495-7.63l-11.913,7.803C35.971,267.356,0,334.904,0,407.457v31.644h312.671
			c2.578,3.331,5.308,6.58,8.362,9.635c19.558,19.558,45.25,29.341,70.942,29.341s51.385-9.784,70.942-29.341
			C502.034,409.615,502.034,345.966,462.918,306.846z M19.692,419.409v-11.952c0-64.476,31.24-124.606,83.798-161.774
			c28.005,34.01,70.024,54.053,114.221,54.053c44.188,0,86.207-20.043,114.216-54.053c13.98,9.88,26.511,21.443,37.458,34.493
			c-17.725,4.071-34.572,12.891-48.352,26.671c-30.392,30.396-37.058,75.561-20.221,112.563H19.692z M448.995,434.813
			c-31.442,31.442-82.596,31.442-114.038,0s-31.442-82.601,0-114.043c15.721-15.721,36.365-23.577,57.019-23.577
			s41.298,7.856,57.019,23.577C480.438,352.212,480.438,403.37,448.995,434.813z"/>
	</g>
</g>
</svg>
