<svg viewBox="0 0 512 512"  xmlns="http://www.w3.org/2000/svg" xmlns:xlink="http://www.w3.org/1999/xlink"><linearGradient id="a" gradientUnits="userSpaceOnUse" x1="3.619" x2="497.226" y1="508.381" y2="14.774"><stop offset="0" stop-color="#003f8a"/><stop offset=".518" stop-color="#00d7df"/><stop offset="1" stop-color="#006df0"/></linearGradient><linearGradient id="b" x1="-20.205" x2="473.402" xlink:href="#a" y1="484.557" y2="-9.05"/><linearGradient id="c" x1="84.863" x2="578.47" xlink:href="#a" y1="589.624" y2="96.017"/><linearGradient id="d" x1="-28.381" x2="465.226" xlink:href="#a" y1="476.381" y2="-17.226"/><linearGradient id="e" x1="35.619" x2="529.226" xlink:href="#a" y1="540.381" y2="46.774"/><g><path d="m431.36 80.64a248 248 0 1 0 -350.72 350.72 248 248 0 1 0 350.72-350.72zm-11.31 339.41a232 232 0 0 1 -328.1-328.1 232 232 0 0 1 328.1 328.1z" fill="url(#a)"/><path d="m178.965 449.271a208.073 208.073 0 0 1 -130.965-193.271 8 8 0 0 0 -16 0 224.077 224.077 0 0 0 141.035 208.132 8 8 0 1 0 5.93-14.861z" fill="url(#b)"/><path d="m217.473 460.44c-5.16-.965-10.342-2.143-15.4-3.5a8 8 0 1 0 -4.136 15.455c5.454 1.461 11.038 2.729 16.6 3.77a8 8 0 0 0 2.946-15.727z" fill="url(#c)"/><path d="m176 352h32a8 8 0 0 0 8-8v-176a8 8 0 0 0 -8-8h-32a8 8 0 0 0 -8 8v176a8 8 0 0 0 8 8zm8-176h16v160h-16z" fill="url(#d)"/><path d="m336 160h-32a8 8 0 0 0 -8 8v176a8 8 0 0 0 8 8h32a8 8 0 0 0 8-8v-176a8 8 0 0 0 -8-8zm-8 176h-16v-160h16z" fill="url(#e)"/></g></svg>