<svg viewBox="0 0 512 512" xmlns="http://www.w3.org/2000/svg" xmlns:xlink="http://www.w3.org/1999/xlink"><linearGradient id="a" gradientUnits="userSpaceOnUse" x1="23.437" x2="472.37" y1="488.563" y2="39.63"><stop offset="0" stop-color="#003f8a"/><stop offset=".518" stop-color="#00d7df"/><stop offset="1" stop-color="#006df0"/></linearGradient><linearGradient id="b" x1="-.388" x2="448.546" xlink:href="#a" y1="464.739" y2="15.806"/><linearGradient id="c" x1="104.68" x2="553.613" xlink:href="#a" y1="569.807" y2="120.874"/><linearGradient id="d" x1="14.186" x2="463.12" xlink:href="#a" y1="479.313" y2="30.38"/><g><g><path d="m431.36 80.64a248 248 0 1 0 -350.72 350.72 248 248 0 1 0 350.72-350.72zm-11.31 339.41a232 232 0 0 1 -328.1-328.1 232 232 0 0 1 328.1 328.1z" fill="url(#a)"/><path d="m176 464.7a7.982 7.982 0 0 1 -2.963-.571 224.077 224.077 0 0 1 -141.037-208.129 8 8 0 0 1 16 0 208.073 208.073 0 0 0 130.965 193.271 8 8 0 0 1 -2.965 15.429z" fill="url(#b)"/><path d="m216.009 476.305a8.072 8.072 0 0 1 -1.482-.138c-5.557-1.041-11.141-2.309-16.595-3.77a8 8 0 1 1 4.136-15.455c5.063 1.355 10.245 2.533 15.405 3.5a8 8 0 0 1 -1.464 15.865z" fill="url(#c)"/></g><path d="m208.538 352a8 8 0 0 1 -8-8v-176a8 8 0 0 1 12.131-6.851l145.924 88a8 8 0 0 1 0 13.7l-145.924 88a8 8 0 0 1 -4.131 1.151zm8-169.833v147.666l122.433-73.833z" fill="url(#d)"/></g></svg>