<svg width="400px" height="124px" viewBox="0 0 400 124" version="1.1" xmlns="http://www.w3.org/2000/svg" xmlns:xlink="http://www.w3.org/1999/xlink">
    <defs>
        <path d="M3,0 L397,0 C398.656854,-3.04359188e-16 400,1.34314575 400,3 L400,100 L0,100 L0,3 C-2.02906125e-16,1.34314575 1.34314575,3.04359188e-16 3,0 Z" id="path-1"></path>
        <linearGradient x1="52.1337891%" y1="0%" x2="50%" y2="85.6236049%" id="linearGradient-3">
            <stop stop-color="#79E2F2" offset="0%"></stop>
            <stop stop-color="#00C7E6" offset="100%"></stop>
        </linearGradient>
        <linearGradient x1="57.8837077%" y1="-79.5191012%" x2="57.8837097%" y2="70.7319693%" id="linearGradient-4">
            <stop stop-color="#FFFFFF" offset="0%"></stop>
            <stop stop-color="#FFFFFF" stop-opacity="0" offset="100%"></stop>
        </linearGradient>
        <linearGradient x1="99.9998965%" y1="50.001987%" x2="-1.30462296%" y2="50.001987%" id="linearGradient-5">
            <stop stop-color="#0065FF" offset="0.09%"></stop>
            <stop stop-color="#0266FF" offset="41.34%"></stop>
            <stop stop-color="#096AFF" offset="56.2%"></stop>
            <stop stop-color="#1471FF" offset="66.79%"></stop>
            <stop stop-color="#257BFF" offset="75.36%"></stop>
            <stop stop-color="#3B89FF" offset="82.69%"></stop>
            <stop stop-color="#5799FF" offset="89.19%"></stop>
            <stop stop-color="#76ACFF" offset="94.92%"></stop>
            <stop stop-color="#99C1FF" offset="100%"></stop>
        </linearGradient>
        <linearGradient x1="-0.000262192288%" y1="50.0018743%" x2="101.304626%" y2="50.0018743%" id="linearGradient-6">
            <stop stop-color="#0065FF" offset="0.09%"></stop>
            <stop stop-color="#0266FF" offset="36.24%"></stop>
            <stop stop-color="#096BFF" offset="51.68%"></stop>
            <stop stop-color="#1672FF" offset="63.17%"></stop>
            <stop stop-color="#277DFF" offset="72.7%"></stop>
            <stop stop-color="#3F8BFF" offset="81.02%"></stop>
            <stop stop-color="#5B9CFF" offset="88.5%"></stop>
            <stop stop-color="#7CB0FF" offset="95.19%"></stop>
            <stop stop-color="#99C1FF" offset="100%"></stop>
        </linearGradient>
        <linearGradient x1="7.22870899%" y1="79.5109961%" x2="92.7711219%" y2="2.74301549%" id="linearGradient-7">
            <stop stop-color="#FFAB00" offset="0%"></stop>
            <stop stop-color="#FFC400" offset="81.76%"></stop>
        </linearGradient>
    </defs>
    <g id="Artboard" stroke="none" stroke-width="1" fill="none" fill-rule="evenodd" transform="translate(-2684.000000, -1393.000000)">
        <g id="Group-8-Copy" transform="translate(2684.000000, 1393.000000)">
            <g id="BG">
                <mask id="mask-2" fill="white">
                    <use xlink:href="#path-1"></use>
                </mask>
                <g>
                    <use fill="#D8D8D8" fill-rule="evenodd" xlink:href="#path-1"></use>
                    <path stroke="#979797" stroke-width="1" d="M0.5,99.5 L399.5,99.5 L399.5,3 C399.5,1.61928813 398.380712,0.5 397,0.5 L3,0.5 C1.61928813,0.5 0.5,1.61928813 0.5,3 L0.5,99.5 Z"></path>
                </g>
                <g id="T200" mask="url(#mask-2)" fill="#00C7E6">
                    <rect x="0" y="0" width="400" height="100"></rect>
                </g>
                <rect id="T200" fill="url(#linearGradient-3)" mask="url(#mask-2)" x="0" y="0" width="400" height="100"></rect>
                <path d="M-35.7041667,63 C40.9658333,11.5 110.12252,17.875 171.765893,82.125 C215.856964,54.125 257.445833,52.75 296.5325,78 C365.685833,113.75 419.680556,122.25 458.516667,103.5 C458.516667,162.004807 458.516667,191.257211 458.516667,191.257211 C148.32799,191.257211 -6.76634866,191.257211 -6.76634866,191.257211 L-35.7041667,63 Z" id="Path-14" fill="url(#linearGradient-4)" mask="url(#mask-2)"></path>
                <path d="M-113.128333,17.2684525 C4.46140425,-27.8478973 93.3756862,-22.2631064 153.614512,34.0228251 C196.700967,9.49354758 237.342232,8.28898484 275.538307,30.4091369 C387.635336,90.7124631 477.73312,98.1588509 545.831658,52.7483004 L545.831658,129.627622 C125.37731,129.627622 -84.8498647,129.627622 -84.8498647,129.627622 L-113.128333,17.2684525 Z" id="Path-14-Copy" fill="url(#linearGradient-4)" mask="url(#mask-2)" transform="translate(216.351662, 58.393013) scale(-1, 1) translate(-216.351662, -58.393013) "></path>
            </g>
            <g id="Cheers" transform="translate(149.000000, 13.000000)" fill="#FFFFFF" fill-rule="nonzero">
                <path d="M117.489796,26.0306122 C115.194784,26.5453773 113.40252,28.3376414 112.887755,30.6326531 C112.37299,28.3376414 110.580726,26.5453773 108.285714,26.0306122 C110.580726,25.5158471 112.37299,23.7235831 112.887755,21.4285714 C113.40252,23.7235831 115.194784,25.5158471 117.489796,26.0306122 Z" id="Shape"></path>
                <path d="M15.7041321,0.836734694 C16.2189065,3.13172555 18.0111442,4.92397308 20.3061224,5.43875027 C18.0111108,5.95351819 16.2188467,7.74579209 15.7040816,10.0408163 C15.1893165,7.74579209 13.3970525,5.95351819 11.1020408,5.43875027 C13.3970581,4.92400752 15.1893418,3.13175328 15.7041321,0.836734694 Z" id="Shape"></path>
                <circle id="Oval" cx="1.84693878" cy="16.1530612" r="1.25510204"></circle>
                <circle id="Oval" cx="118.744898" cy="42.7653061" r="1.25510204"></circle>
                <circle id="Oval" cx="99.5" cy="15.9897959" r="1.25510204"></circle>
            </g>
            <g id="Trophy" transform="translate(144.000000, 27.000000)">
                <path d="M21.3816554,59.0959914 C21.9749553,61.2276031 23.02448,63.1567409 24.435281,64.7088793 C24.6100183,64.954307 24.8963553,65.0567471 25.162558,64.9690702 C25.4287607,64.8813934 25.6232717,64.6205806 25.656603,64.3066232 C26.1261452,62.1351713 26.113989,59.8643561 25.621234,57.699616 C25.0718704,55.7050139 24.1164148,53.8873076 22.8331112,52.3953523 C22.6147504,52.0663142 22.2414306,51.9247257 21.893976,52.0391676 C21.5465213,52.1536095 21.2966752,52.5004517 21.2654551,52.9116948 C20.8757936,54.9546764 20.915614,57.0739584 21.3816554,59.0959914 Z" id="Shape" fill="#0065FF" fill-rule="nonzero"></path>
                <path d="M11.3161127,41.9348768 C10.914832,43.433428 10.895288,45.0079041 11.2592488,46.5158638 C11.2844076,46.7337062 11.4379567,46.9154912 11.6492629,46.9775969 C11.860569,47.0397025 12.0887138,46.9701024 12.2287496,46.8008129 C13.3574828,45.7315766 14.2005488,44.39914 14.6816756,42.9240485 C15.0610893,41.5242991 15.1019568,40.0550125 14.8009311,38.6365173 C14.7779153,38.351199 14.5807326,38.1094469 14.3049024,38.0283708 C14.0290721,37.9472947 13.7315561,38.0436376 13.5564774,38.2707291 C12.5294117,39.298888 11.7616645,40.5545492 11.3161127,41.9348768 Z" id="Shape" fill="#3384FF" fill-rule="nonzero"></path>
                <path d="M10.0671409,32.5877059 C9.76779817,34.0354384 9.54524718,35.4980643 9.40042525,36.9694234 C9.24437888,38.4500218 9.14104743,39.935802 9.11893787,41.4167595 C9.08364575,42.8856122 9.17992528,44.3546765 9.40661797,45.8062753 C9.65788533,47.2529984 10.0274187,48.6765558 10.5114815,50.0625532 C11.4870286,52.8513783 12.7745529,55.520461 14.3494339,58.0187622 C15.1352097,59.2651582 15.9853138,60.4696133 16.8962805,61.6272174 C17.815551,62.7728622 18.7989971,63.865237 19.8418667,64.8990633 C24.0894673,68.9907297 29.1303487,72.1639826 34.6518899,74.2220259 C37.3992107,75.2761247 40.2288651,76.1004282 43.111865,76.6864919 C44.5513914,76.9806722 46.0021261,77.2213419 47.4562387,77.3901853 C48.1829879,77.4793013 48.9106072,77.5424572 49.6345927,77.5924279 C50.3352543,77.6445542 51.0381221,77.6606165 51.7404254,77.6405515 L51.7729756,77.6391663 C52.4225913,77.6116391 52.9714697,78.1172282 52.9989298,78.7684311 C53.0263899,79.4196339 52.5220331,79.9698534 51.8724174,79.9973806 L51.8476977,79.9981501 C51.0514349,80.0084024 50.2551938,79.9760345 49.4623736,79.9011845 C48.6926336,79.8328468 47.9281651,79.7505543 47.169224,79.6422504 C45.6496528,79.434826 44.145896,79.1542927 42.6551901,78.8185556 C39.6726271,78.1500072 36.7503827,77.2351335 33.918385,76.0833041 C28.2082909,73.8231806 23.0222453,70.4112416 18.6818317,66.0590594 C17.6146018,64.9584226 16.6109737,63.7975609 15.6758536,62.5821492 C14.7542994,61.3617115 13.8970652,60.0937823 13.1076651,58.7835593 C11.5292218,56.1643279 10.2520548,53.3741702 9.30062518,50.4665253 C8.82341873,49.0055513 8.46704551,47.5076631 8.2351187,45.9880474 C8.02791996,44.4651482 7.95745324,42.9266835 8.02456614,41.3911585 C8.07784402,39.8682852 8.21393037,38.3562371 8.40329461,36.8527055 C8.49708961,36.1007517 8.60700617,35.3510894 8.73304427,34.6037187 C8.86232375,33.8500547 8.98745768,33.1238899 9.18690428,32.3440605 C9.2485861,32.1023216 9.49219947,31.9547808 9.73436146,32.0125013 C9.97652346,32.0702217 10.1278184,32.3118909 10.0743572,32.5555892 L10.0671409,32.5877059 Z" id="Shape" fill="url(#linearGradient-5)" fill-rule="nonzero"></path>
                <path d="M102.683887,41.9348768 C103.085168,43.433428 103.104712,45.0079041 102.740751,46.5158638 C102.715592,46.7337062 102.562043,46.9154912 102.350737,46.9775969 C102.139431,47.0397025 101.911286,46.9701024 101.77125,46.8008129 C100.642517,45.7315766 99.7994512,44.39914 99.3183244,42.9240485 C98.9389107,41.5242991 98.8980432,40.0550125 99.1990689,38.6365173 C99.2220847,38.351199 99.4192674,38.1094469 99.6950976,38.0283708 C99.9709279,37.9472947 100.268444,38.0436376 100.443523,38.2707291 C101.470588,39.298888 102.238335,40.5545492 102.683887,41.9348768 Z" id="Shape" fill="#3384FF" fill-rule="nonzero"></path>
                <path d="M105.813093,32.3436468 C106.012693,33.1234812 106.137725,33.8496507 106.266954,34.6033197 C106.392173,35.3511057 106.50209,36.1007729 106.596704,36.8523212 C106.785762,38.3558626 106.922002,39.8679718 106.975434,41.3908038 C107.042547,42.9263388 106.97208,44.4648136 106.764881,45.9877227 C106.532953,47.5073483 106.176579,49.0052463 105.699372,50.4662299 C104.748037,53.3738804 103.47097,56.1640557 101.892629,58.7833182 C101.103227,60.0935497 100.245991,61.3614872 99.3244342,62.5819329 C98.3893117,63.7973525 97.3856811,64.9582217 96.3184485,66.0588658 C91.9780035,70.411125 86.7919082,73.8231223 81.0817545,76.0832786 C78.2497496,77.2351154 75.3274978,78.1499951 72.3449273,78.8185479 C70.8541664,79.1542872 69.3503547,79.4348223 67.8308821,79.642248 C67.071939,79.7505527 66.3074686,79.8328457 65.5377266,79.9011839 C64.7449044,79.9760343 63.9486614,80.0084024 63.1523966,79.9981501 C62.7318478,79.9891962 62.3480099,79.7560133 62.145471,79.3864391 C61.942932,79.0168649 61.9524624,78.5670466 62.1704722,78.2064264 C62.388482,77.8458062 62.7818503,77.6291708 63.2023991,77.6381248 L63.2212332,77.6386892 L63.2596691,77.6402796 C63.9619742,77.6603447 64.6648437,77.6442823 65.3655071,77.5921556 C66.0895456,77.5421846 66.8171667,77.4792848 67.5438666,77.3899117 C68.9979317,77.221016 70.4486701,76.9803447 71.8882513,76.6862137 C74.7712584,76.1001462 77.60092,75.2758373 80.3482477,74.2217316 C85.8697619,72.1636776 90.9106198,68.9904223 95.1582058,64.8987595 C96.2010781,63.8649264 97.1845267,62.7725445 98.1037995,61.6268922 C99.0147685,60.4692806 99.8648747,59.2648176 100.650652,58.0184135 C102.225537,55.5200959 103.513065,52.8509958 104.488615,50.0621525 C104.972679,48.6761461 105.342213,47.2525794 105.593481,45.8058468 C105.820174,44.3542385 105.916454,42.8851647 105.881162,41.4163023 C105.859206,39.9353352 105.755874,38.449494 105.599674,36.9689373 C105.454851,35.4975685 105.2323,34.034933 104.932956,32.5871911 L104.926047,32.5557412 C104.872528,32.3121622 105.023594,32.0705205 105.2656,32.0125995 C105.507607,31.9546786 105.751276,32.1018461 105.813297,32.3433902 L105.813093,32.3436468 Z" id="Shape" fill="url(#linearGradient-6)" fill-rule="nonzero"></path>
                <path d="M92.6183446,59.0959914 C92.0250447,61.2276031 90.97552,63.1567409 89.564719,64.7088793 C89.3899817,64.954307 89.1036447,65.0567471 88.837442,64.9690702 C88.5712393,64.8813934 88.3767283,64.6205806 88.343397,64.3066232 C87.8738548,62.1351713 87.886011,59.8643561 88.378766,57.699616 C88.9281296,55.7050139 89.8835852,53.8873076 91.1668888,52.3953523 C91.3852496,52.0663142 91.7585694,51.9247257 92.106024,52.0391676 C92.4534787,52.1536095 92.7033248,52.5004517 92.7345449,52.9116948 C93.1242064,54.9546764 93.084386,57.0739584 92.6183446,59.0959914 Z" id="Shape" fill="#0065FF" fill-rule="nonzero"></path>
                <path d="M93.6975145,57 C90.5508641,57 88,54.5251042 88,51.4721656 C88,48.4192269 90.5508641,45.9443311 93.6975145,45.9443311 L93.740184,45.9488122 C93.9956066,45.9595395 94.2523937,45.9649202 94.5105454,45.9649541 C101.430656,45.9594605 107.697771,41.998833 110.500179,35.8599878 C113.302586,29.7211426 112.114107,22.5567101 107.467946,17.5809779 C102.821785,12.6052457 95.5903055,10.752458 89.0178763,12.8538588" id="Shape" stroke="#FFC400" stroke-width="7.6669" stroke-linecap="round"></path>
                <path d="M20.3024356,57 C23.4491135,57 26,54.5251042 26,51.4721655 C26,48.4192269 23.4491135,45.9443311 20.3024356,45.9443311 L20.2597656,45.9488121 C20.0043409,45.9595395 19.7475515,45.9649201 19.4893975,45.9649541 C12.5692514,45.9593797 6.30214915,41.9987079 3.49977781,35.8598636 C0.697406473,29.7210192 1.88593565,22.5566237 6.5321409,17.5809277 C11.1783461,12.6052318 18.409862,10.7524657 24.9823247,12.8538586" id="Shape" stroke="#FFC400" stroke-width="7.6669" stroke-linecap="round"></path>
                <path d="M58.6953109,78.5040547 C58.6960934,85.957327 64.5869824,91.9991975 71.8540036,92 L41.1458156,92 C47.4237472,91.9983736 52.8267113,87.4495628 54.0516117,81.1344782 C55.2765122,74.8193935 51.9823526,68.4960729 46.1830138,66.0302715 C45.4466634,65.711869 44.6822144,65.466693 43.900183,65.2981165 C32.220621,61.1499441 23.1933062,51.5023628 19.6325057,39.3630077 C16.0717052,27.2236526 18.4105078,14.0689943 25.9197911,4 L87.0800787,4 C94.5894554,14.0689569 96.9283136,27.2236469 93.3675024,39.3630284 C89.8066912,51.5024098 80.7793084,61.1499818 69.0996868,65.2980646 C68.3176617,65.4666656 67.5532149,65.7118408 66.816856,66.0302196 C61.8981023,68.1196247 58.6921236,73.0436693 58.6953109,78.5040547 Z" id="_Path_" fill="url(#linearGradient-7)" fill-rule="nonzero"></path>
                <rect id="Rectangle-path" fill="#FF991F" fill-rule="nonzero" x="26" y="0" width="61" height="4"></rect>
                <rect id="Rectangle-path" fill="#FF991F" fill-rule="nonzero" x="41" y="93" width="33" height="4"></rect>
                <path d="M100.388648,70.3409469 C98.2249008,71.095398 95.9352266,71.2040118 93.7267716,70.6569617 C93.40883,70.624618 93.1381288,70.3720818 93.0392069,70.015535 C92.940285,69.6589883 93.0323011,69.267485 93.2729222,69.0211405 C94.7826172,67.0495229 96.6868039,65.5513325 98.8132046,64.6621153 C100.834102,63.9496367 102.969874,63.8098002 105.045616,64.2540573 C105.461599,64.2795953 105.821251,64.6035097 105.950363,65.0689011 C106.079474,65.5342925 105.951384,66.0450615 105.628137,66.3537992 C104.174094,68.1504296 102.378584,69.5167774 100.388648,70.3409469 Z" id="Shape" fill="#0065FF" fill-rule="nonzero"></path>
                <path d="M107.823636,61.027002 C106.349689,62.0642701 104.627443,62.735211 102.812708,62.9791251 C102.562412,63.0428097 102.296377,62.9579221 102.136898,62.7634845 C101.977418,62.569047 101.95535,62.30268 102.080838,62.0868309 C102.768751,60.4690979 103.86933,59.0402215 105.283008,57.9294718 C106.657807,56.9558352 108.255222,56.3061623 109.944437,56.0336566 C110.267941,55.9400869 110.618557,56.0457258 110.826677,56.2994716 C111.034797,56.5532174 111.057518,56.9027609 110.883849,57.1790139 C110.197179,58.6738224 109.148482,59.9924806 107.823636,61.027002 Z" id="Shape" fill="#0065FF" fill-rule="nonzero"></path>
                <path d="M111.475546,51.3616824 C110.183172,52.5900251 108.601205,53.480633 106.872776,53.952927 C106.638386,54.0483041 106.368994,53.9961007 106.188437,53.820314 C106.00788,53.6445273 105.951091,53.3791684 106.044176,53.1462192 C106.496731,51.431866 107.374764,49.8560362 108.598841,48.5612952 C109.803392,47.4094148 111.266975,46.5558038 112.869732,46.0703666 C113.171241,45.9355393 113.525648,45.997988 113.76139,46.2274822 C113.997132,46.4569764 114.065568,46.8061641 113.933568,47.1060083 C113.465876,48.6964364 112.623543,50.1548022 111.475546,51.3616824 Z" id="Shape" fill="#3384FF" fill-rule="nonzero"></path>
                <path d="M107.999566,30.4903969 C107.943422,31.6521636 107.667107,32.7772593 107.195619,33.7638984 C107.142319,33.9128904 107.026228,34.0057297 106.900729,33.9997252 C106.775231,33.9937207 106.664617,33.8900346 106.619751,33.7363458 C106.204469,32.7072568 105.99155,31.5587422 106.000257,30.3947059 C106.050206,29.3084542 106.295808,28.2531513 106.716951,27.3152159 C106.781393,27.1176686 106.932016,26.9925061 107.095868,27.0003484 C107.25972,27.0081906 107.402972,27.1474185 107.456243,27.3505998 C107.824042,28.3262946 108.010232,29.402264 107.999566,30.4903969 Z" id="Shape" fill="#66A3FF" fill-rule="nonzero"></path>
                <path d="M102.9578,34.8276286 C103.540354,35.6495559 103.895678,36.595018 103.991626,37.5784792 C104.023017,37.7149724 103.964553,37.8558818 103.843135,37.9363736 C103.721716,38.0168654 103.560862,38.0213483 103.434582,37.9477598 C102.480996,37.532887 101.652511,36.9011184 101.024081,36.1096094 C100.477015,35.342805 100.130985,34.4651199 100.014328,33.5484295 C99.966766,33.3716647 100.040006,33.1856314 100.198535,33.0805336 C100.357064,32.9754358 100.568105,32.9730031 100.729329,33.0744151 C101.609044,33.4852242 102.372714,34.086029 102.9578,34.8276286 Z" id="Shape" fill="#66A3FF" fill-rule="nonzero"></path>
                <path d="M102.218339,30.4619283 C102.655262,31.1195091 102.921758,31.8759227 102.993714,32.662736 C103.017268,32.771942 102.973422,32.8846862 102.882352,32.9490902 C102.791282,33.0134941 102.67063,33.0170816 102.575912,32.9582018 C101.860711,32.6262774 101.23934,32.1208282 100.768014,31.4875817 C100.357717,30.8741371 100.098189,30.1719883 100.01068,29.438632 C99.9751361,29.2972391 100.0301,29.1485012 100.148953,29.0644515 C100.267805,28.9804017 100.42601,28.9783918 100.546949,29.059395 C101.206739,29.3880276 101.779502,29.8686578 102.218339,30.4619283 Z" id="Shape" fill="#99C1FF" fill-rule="nonzero"></path>
                <path d="M103.786182,26.135199 C104.012734,26.9671008 104.060151,27.8526073 103.924145,28.7116067 C103.9175,28.8349161 103.849114,28.9415938 103.750445,28.9825653 C103.651776,29.0235368 103.541933,28.9908679 103.471446,28.899587 C102.910372,28.3300333 102.478352,27.6041955 102.214476,26.7877465 C102.0007,26.0108252 101.94573,25.1851298 102.05407,24.378278 C102.058134,24.2171212 102.145744,24.0755444 102.274493,24.0220789 C102.403241,23.9686135 102.546565,24.0142903 102.635086,24.1369991 C103.146976,24.6863186 103.541444,25.3710796 103.786182,26.135199 Z" id="Shape" fill="#99C1FF" fill-rule="nonzero"></path>
                <path d="M100.997498,52.5032518 C100.869343,54.3284184 100.301557,56.0918678 99.3455077,57.6340616 C99.2368735,57.8673017 99.0034889,58.0110947 98.7526567,57.9993289 C98.5018245,57.9875632 98.2820863,57.8225156 98.194471,57.58007 C97.3784064,55.954732 96.9685172,54.1454088 97.001886,52.3157898 C97.1166608,50.6091988 97.6221402,48.9548873 98.4769294,47.4883314 C98.6086554,47.1792236 98.9114053,46.98549 99.2387209,47.0008511 C99.5660365,47.0162122 99.8504389,47.2375012 99.9543455,47.5576674 C100.676244,49.0981874 101.03372,50.7929791 100.997498,52.5032518 Z" id="Shape" fill="#0065FF" fill-rule="nonzero"></path>
                <path d="M1.94960244,42.2772007 C2.57185366,43.3921346 3.41148923,44.2996706 4.39254714,44.9177036 C4.52159507,45.0250313 4.69058496,45.0275793 4.82175554,44.924175 C4.95292611,44.8207707 5.0208667,44.6314458 4.99431419,44.4433189 C4.93974417,43.0949184 4.61125823,41.7844381 4.03857429,40.6304366 C3.45946903,39.5860099 2.68639556,38.724258 1.78266231,38.1157513 C1.6181978,37.9689592 1.39685714,37.9611212 1.22572838,38.0960293 C1.05459961,38.2309375 0.968967415,38.4807755 1.01026197,38.7246678 C1.0896797,39.9829857 1.41158012,41.200395 1.94960244,42.2772007 Z" id="Shape" fill="#3384FF" fill-rule="nonzero"></path>
                <path d="M12.6113524,70.3409469 C14.7750992,71.095398 17.0647734,71.2040118 19.2732284,70.6569617 C19.59117,70.624618 19.8618712,70.3720818 19.9607931,70.015535 C20.059715,69.6589883 19.9676989,69.267485 19.7270778,69.0211405 C18.2173828,67.0495229 16.3131961,65.5513325 14.1867954,64.6621153 C12.1658977,63.9496367 10.0301263,63.8098002 7.95438413,64.2540573 C7.53840109,64.2795953 7.17874876,64.6035097 7.04963746,65.0689011 C6.92052617,65.5342925 7.04861629,66.0450615 7.37186284,66.3537992 C8.82590597,68.1504296 10.6214164,69.5167774 12.6113524,70.3409469 Z" id="Shape" fill="#0065FF" fill-rule="nonzero"></path>
                <path d="M6.17617486,61.0269781 C7.65016916,62.0642588 9.37247147,62.7352078 11.1872658,62.9791249 C11.4375694,63.0428102 11.703613,62.9579216 11.863098,62.7634817 C12.022583,62.5690418 12.0446516,62.3026715 11.9191591,62.0868198 C11.2312243,60.4690673 10.1306088,59.0401736 8.71688498,57.9294105 C7.34204161,56.9557621 5.74457466,56.3060814 4.05530445,56.0335723 C3.73183509,55.9401405 3.38133577,56.0458268 3.17328484,56.2995283 C2.96523391,56.5532299 2.94249774,56.9026745 3.11607003,57.1788939 C3.80269595,58.6737178 4.85135528,59.9924077 6.17617486,61.0269781 Z" id="Shape" fill="#0065FF" fill-rule="nonzero"></path>
                <path d="M2.52438158,51.3616037 C3.8167731,52.589983 5.39876099,53.4806175 7.12721225,53.9529256 C7.36160554,54.0483055 7.63100071,53.9961006 7.81156038,53.8203086 C7.99212005,53.6445167 8.04890963,53.3791498 7.95582371,53.1461938 C7.50318798,51.4318054 6.62507271,49.855963 5.40092137,48.5612336 C4.1963539,47.4093188 2.73275195,46.5556823 1.12997366,46.0702307 C0.828503365,45.9355704 0.474241616,45.9980796 0.238585916,46.2275152 C0.00293021606,46.4569509 -0.0655300519,46.8060062 0.0663272857,47.1058026 C0.534025464,48.696278 1.37636968,50.1546874 2.52438158,51.3616037 Z" id="Shape" fill="#3384FF" fill-rule="nonzero"></path>
                <path d="M5.00043478,30.4903969 C5.05657923,31.6521636 5.33289398,32.7772593 5.80438124,33.7638984 C5.85768196,33.9128904 5.97377294,34.0057297 6.09927113,33.9997252 C6.22476931,33.9937207 6.33538351,33.8900346 6.38024911,33.7363458 C6.79553065,32.7072568 7.00844953,31.5587422 6.99974335,30.3947059 C6.94978097,29.3084494 6.70416391,28.2531462 6.28300597,27.3152159 C6.21856361,27.1176686 6.06794089,26.9925061 5.90408888,27.0003484 C5.74023687,27.0081906 5.59698474,27.1474185 5.54371377,27.3505998 C5.1759309,28.3262995 4.98975597,29.4022687 5.00043478,30.4903969 Z" id="Shape" fill="#66A3FF" fill-rule="nonzero"></path>
                <path d="M12.0422003,34.8276286 C11.4596456,35.6495559 11.1043216,36.595018 11.0083742,37.5784792 C10.9769833,37.7149724 11.0354469,37.8558818 11.1568652,37.9363736 C11.2782836,38.0168654 11.439138,38.0213483 11.5654178,37.9477598 C12.5190041,37.532887 13.3474886,36.9011184 13.9759193,36.1096094 C14.5229852,35.342805 14.8690151,34.4651199 14.985672,33.5484295 C15.033234,33.3716647 14.9599943,33.1856314 14.8014653,33.0805336 C14.6429364,32.9754358 14.4318949,32.9730031 14.270671,33.0744151 C13.3909557,33.4852242 12.627286,34.086029 12.0422003,34.8276286 Z" id="Shape" fill="#66A3FF" fill-rule="nonzero"></path>
                <path d="M11.7816612,30.4619283 C11.3447376,31.1195091 11.0782424,31.8759227 11.0062855,32.662736 C10.9827317,32.771942 11.0265775,32.8846862 11.1176476,32.9490902 C11.2087178,33.0134941 11.3293703,33.0170816 11.4240877,32.9582018 C12.1392893,32.6262774 12.7606605,32.1208282 13.2319862,31.4875817 C13.6422827,30.8741371 13.9018114,30.1719883 13.9893204,29.438632 C14.0248639,29.2972391 13.9698999,29.1485012 13.8510472,29.0644515 C13.7321946,28.9804017 13.5739897,28.9783918 13.4530506,29.059395 C12.7932614,29.3880276 12.2204977,29.8686578 11.7816612,30.4619283 Z" id="Shape" fill="#99C1FF" fill-rule="nonzero"></path>
                <path d="M10.213818,26.135199 C9.98726643,26.9671008 9.93984885,27.8526073 10.0758551,28.7116067 C10.0824999,28.8349161 10.1508863,28.9415938 10.249555,28.9825653 C10.3482236,29.0235368 10.4580668,28.9908679 10.5285541,28.899587 C11.0896282,28.3300333 11.5216477,27.6041955 11.7855238,26.7877465 C11.9993004,26.0108252 12.0542696,25.1851298 11.9459299,24.378278 C11.9418662,24.2171212 11.8542559,24.0755444 11.7255073,24.0220789 C11.5967588,23.9686135 11.4534352,24.0142903 11.3649137,24.1369991 C10.8530238,24.6863186 10.458556,25.3710796 10.213818,26.135199 Z" id="Shape" fill="#99C1FF" fill-rule="nonzero"></path>
                <path d="M13.0025023,52.5032518 C13.1306572,54.3284184 13.698443,56.0918678 14.6544923,57.6340616 C14.7631265,57.8673017 14.9965111,58.0110947 15.2473433,57.9993289 C15.4981755,57.9875632 15.7179137,57.8225156 15.805529,57.58007 C16.6215936,55.954732 17.0314828,54.1454088 16.998114,52.3157898 C16.8833392,50.6091988 16.3778598,48.9548873 15.5230706,47.4883314 C15.3913446,47.1792236 15.0885947,46.98549 14.7612791,47.0008511 C14.4339635,47.0162122 14.1495611,47.2375012 14.0456545,47.5576674 C13.3237558,49.0981874 12.9662802,50.7929791 13.0025023,52.5032518 Z" id="Shape" fill="#0065FF" fill-rule="nonzero"></path>
                <path d="M112.050398,42.2772007 C111.428146,43.3921346 110.588511,44.2996706 109.607453,44.9177036 C109.478405,45.0250313 109.309415,45.0275793 109.178244,44.924175 C109.047074,44.8207707 108.979133,44.6314458 109.005686,44.4433189 C109.060256,43.0949184 109.388742,41.7844381 109.961426,40.6304366 C110.540531,39.5860099 111.313604,38.724258 112.217338,38.1157513 C112.381802,37.9689592 112.603143,37.9611212 112.774272,38.0960293 C112.9454,38.2309375 113.031033,38.4807755 112.989738,38.7246678 C112.91032,39.9829857 112.58842,41.200395 112.050398,42.2772007 Z" id="Shape" fill="#3384FF" fill-rule="nonzero"></path>
                <polygon id="Shape" stroke="#FFFFFF" stroke-width="2" stroke-linejoin="round" points="57.5002588 23 61.3629775 30.9003745 70 32.1669424 63.7498706 38.3169032 65.2256962 47 57.5002588 42.9003745 49.7748214 47 51.2501294 38.3169032 45 32.1669424 53.6375401 30.9003745"></polygon>
            </g>
        </g>
    </g>
</svg>