<svg viewBox="0 0 508 508" xmlns="http://www.w3.org/2000/svg"><circle cx="254" cy="254" r="254" fill="#324A5E"/><path d="m310 126c-13.6 13.2-34 22-56 22-22.4 0-42.4-8.4-56-21.6 2.4-7.2 7.6-13.2 14.4-16.8l21.6-10.4c0.8-2.8 4-6.8 4-6.8-1.6-2.4-2.8-4.8-4-7.6-1.6 0-3.6-1.6-4.8-3.6s-0.8-4.4 0-6c-3.2-9.2-5.2-23.2 6-33.2l-5.6 1.2s6.8-12.4 20.4-8c0 0-1.2-2-5.6-3.2 0 0 6-2.8 9.6 1.6 0 0 2-1.6 0-3.2 0 0 10.4 0.4 20 9.2 12.4 11.6 9.2 26.8 5.2 36.8 0.4 1.2 0.4 3.2-0.4 4.8-0.8 2-2.4 3.2-4 3.6-0.8 1.2-3.6 6-4.4 7.6 0 0 3.6 4 4 6.8l21.6 10.4c6.4 3.2 11.6 9.2 14 16.4z" fill="#FFD05B"/><path d="m310 456.4c-13.6 13.2-34 22-56 22-22.4 0-42.4-8.4-56-21.6 2.4-7.2 7.6-13.2 14.4-16.8l21.6-10.4c0.8-2.8 4-6.8 4-6.8-1.6-2.4-2.8-4.8-4-7.6-1.6 0-3.6-1.6-4.8-3.6s-0.8-4.4 0-6c-3.6-9.2-5.6-22.8 5.6-33.2l-5.6 1.2s6.8-12.4 20.4-8c0 0-1.2-2-5.6-3.2 0 0 6-2.8 9.6 1.6 0 0 2-1.6 0-3.2 0 0 10.4 0.4 20 9.2 12.4 11.6 9.2 26.8 5.2 36.8 0.4 1.2 0.4 3.2-0.4 4.8-0.8 2-2.4 3.2-4 3.6-0.8 1.2-3.6 6-4.4 7.6 0 0 3.6 4 4 6.8l21.6 10.4c6.8 2.8 12 8.8 14.4 16.4z" fill="#FF7058"/><path d="m478 291.2c-13.6 13.2-34 22-56 22-22.4 0-42.4-8.4-56-21.6 2.4-7.2 7.6-13.2 14.4-16.8l21.6-10.4c0.8-2.8 4-6.8 4-6.8-1.6-2.4-2.8-4.8-4-7.6-1.6 0-3.6-1.6-4.8-3.6s-0.8-4.4 0-6c-3.6-9.2-5.6-22.8 5.6-33.2l-5.6 1.2s6.8-12.4 20.4-8c0 0-1.2-2-5.6-3.2 0 0 6-2.8 9.6 1.6 0 0 2-1.6 0-3.2 0 0 10.4 0.4 20 9.2 12.4 11.6 9.2 26.8 5.2 36.8 0.4 1.2 0.4 3.2-0.4 4.8-0.8 2-2.4 3.2-4 3.6-0.8 1.2-3.6 6-4.4 7.6 0 0 3.6 4 4 6.8l21.6 10.4c6.8 2.8 12 8.8 14.4 16.4z" fill="#84DBFF"/><path d="m142 291.2c-13.6 13.2-34 22-56 22-22.4 0-42.4-8.4-56-21.6 2.4-7.2 7.6-13.2 14.4-16.8l21.6-10.4c0.8-2.8 4-6.8 4-6.8-1.6-2.4-2.8-4.8-4-7.6-1.6 0-3.6-1.6-4.8-3.6s-0.8-4.4 0-6c-3.6-9.2-5.6-22.8 5.6-33.2l-5.6 1.2s6.8-12.4 20.4-8c0 0-1.2-2-5.6-3.2 0 0 6-2.8 9.6 1.6 0 0 2-1.6 0-3.2 0 0 10.4 0.4 20 9.2 12.4 11.6 9.2 26.8 5.2 36.8 0.4 1.2 0.4 3.2-0.4 4.8-0.8 2-2.4 3.2-4 3.6-0.8 1.2-3.6 6-4.4 7.6 0 0 3.6 4 4 6.8l21.6 10.4c6.8 2.8 12 9.2 14.4 16.4z" fill="#4CDBC4"/><path d="m347.2 245.6v17.2l-17.2 5.2c-2 10.8-6.4 21.2-12.4 30l8 15.6-12 12-15.6-7.6c-8.8 6-18.8 10.4-30 12.4l-5.6 16.8h-17.2l-5.2-17.2c-10.8-2-21.2-6.4-30-12.4l-15.6 8-12-12 8-15.6c-6-8.8-10.4-18.8-12.4-30l-16.8-5.6v-17.2l16.8-5.6c2-10.8 6.4-21.2 12.4-30l-8-15.6 12-12 15.6 8c8.8-6 18.8-10.4 30-12.4l5.6-16.8h17.2l5.6 16.8c10.8 2 21.2 6.4 30 12.4l15.6-8 12 12-8 16c6 8.8 10.4 18.8 12.4 30l16.8 5.6z" fill="#fff"/><circle cx="254" cy="254" r="42.8" fill="#324A5E"/></svg>