<svg height="512pt" viewBox="0 0 512 512" width="512pt" xmlns="http://www.w3.org/2000/svg"><path d="m512 256c0 5.996094-.207031 11.941406-.617188 17.835938-4.148437 60.332031-29.195312 114.917968-67.96875 156.558593l-.148437.144531c-2.035156 2.195313-4.125 4.359376-6.246094 6.480469-46.332031 46.328125-110.320312 74.980469-181.019531 74.980469-68.492188 0-130.683594-26.886719-176.617188-70.6875-1.527343-1.453125-3.03125-2.925781-4.515624-4.410156-1.410157-1.410156-2.800782-2.832032-4.179688-4.285156-43.800781-45.921876-70.6875-108.132813-70.6875-176.617188 0-67.375 26.027344-128.679688 68.585938-174.394531l.136718-.144531c2.046875-2.195313 4.136719-4.359376 6.257813-6.480469 46.332031-46.328125 110.320312-74.980469 181.019531-74.980469 76.015625 0 144.300781 33.132812 191.183594 85.746094 40.324218 45.242187 64.816406 104.894531 64.816406 170.253906zm0 0" fill="#5d5860"/><path d="m512 256c0 5.996094-.207031 11.941406-.617188 17.835938-4.148437 60.332031-29.195312 114.917968-67.96875 156.558593l-.148437.144531c-2.035156 2.195313-4.125 4.359376-6.246094 6.480469-46.332031 46.328125-110.320312 74.980469-181.019531 74.980469-68.492188 0-130.683594-26.886719-176.617188-70.6875l-8.695312-8.695312c-43.800781-45.921876-70.6875-108.132813-70.6875-176.617188 0-67.375 26.027344-128.679688 68.585938-174.394531l.136718-.144531c2.046875-2.195313 4.136719-4.359376 6.257813-6.480469 46.332031-46.328125 110.320312-74.980469 181.019531-74.980469 76.015625 0 144.300781 33.132812 191.183594 85.746094 40.324218 45.242187 64.816406 104.894531 64.816406 170.253906zm0 0" fill="#713775"/><path d="m511.382812 273.835938c-4.148437 60.332031-29.195312 114.917968-67.96875 156.558593l-.148437.144531c-2.035156 2.195313-4.125 4.359376-6.246094 6.480469-46.332031 46.328125-110.320312 74.980469-181.019531 74.980469-68.492188 0-130.683594-26.886719-176.617188-70.6875-1.527343-1.453125-3.03125-2.925781-4.515624-4.410156l298.433593-298.433594 1.359375-1.355469zm0 0" fill="#66baed"/><path d="m245.382812 423.214844c-24.042968 25.964844-64.59375 26.539062-89.367187 1.734375-14.046875-14.054688-19.90625-33.1875-17.628906-51.492188l-63.46875 63.394531-.050781.050782c-1.410157-1.410156-2.800782-2.832032-4.179688-4.285156-43.800781-45.921876-70.6875-108.132813-70.6875-176.617188 0-67.375 26.027344-128.679688 68.585938-174.394531l.136718-.144531 6.3125-6.300782 62.210938 62.285156c-17.585938-1.515624-35.691406 4.429688-49.160156 17.878907-24.808594 24.785156-24.222657 65.367187 1.785156 89.402343 23.21875 21.472657 59.457031 21.847657 83.101562.835938 15.359375-13.65625 22.234375-32.957031 20.636719-51.683594l62.097656 62.183594.117188.113281-63.582031 63.5c19.121093-2.359375 39.140624 4.179688 53.328124 19.632813 21.652344 23.605468 21.566407 60.417968-.1875 83.90625zm0 0" fill="#f74f4f"/><path d="m512 256c0 5.996094-.207031 11.941406-.617188 17.835938-4.148437 60.332031-29.195312 114.917968-67.96875 156.558593l-.148437.144531-6.65625 6.65625-62.210937-62.296874c17.585937 1.527343 35.691406-4.429688 49.160156-17.878907 24.816406-24.785156 24.234375-65.367187-1.773438-89.398437-23.230468-21.464844-59.464844-21.851563-83.101562-.835938-15.371094 13.65625-22.246094 32.953125-20.648438 51.679688l-62.210937-62.289063 63.589843-63.507812c-.113281.011719-.238281.03125-.355468.042969-19.027344 2.234374-38.878906-4.304688-52.984375-19.675782-21.652344-23.59375-21.566407-60.40625.195312-83.90625 24.035157-25.964844 64.597657-26.539062 89.363281-1.734375 13.9375 13.960938 19.808594 32.894531 17.667969 51.074219-.011719.136719-.019531.285156-.042969.417969l1.589844-1.585938 61.992188-61.910156 10.34375 10.355469c40.324218 45.242187 64.816406 104.894531 64.816406 170.253906zm0 0" fill="#ffe152"/></svg>