<svg id="Layer_1" enable-background="new 0 0 512 512" height="512" viewBox="0 0 512 512" width="512" xmlns="http://www.w3.org/2000/svg"><g><path d="m28.86 336.962c36.367 89.739 124.354 153.043 227.14 153.043s190.772-63.303 227.14-153.043z" fill="#1c2e7a"/><g><path d="m486.339 313.747h-460.678c-1.724 0-3.402-.194-5.019-.554 2.531 8.743 5.52 17.293 8.967 25.605 1.201.1 2.412.164 3.639.164h445.502c1.227 0 2.438-.064 3.639-.164 3.448-8.312 6.436-16.861 8.967-25.605-1.615.36-3.294.554-5.017.554z" fill="#e9efff"/></g><path d="m271.29 313.747h-245.629c-1.724 0-3.402-.194-5.019-.554 2.531 8.743 5.52 17.293 8.967 25.605 1.201.1 2.412.164 3.639.164h238.042z" fill="#bec8f7"/><path d="m478.751 309.311c7.694 0 13.954-6.259 13.954-13.952v-113.746c-.44-1.647-.901-3.298-1.374-4.951-29.586-102.053-123.74-176.662-235.331-176.662-111.596 0-205.754 74.616-235.335 176.675-.472 1.648-.931 3.295-1.37 4.938v.001 113.746c0 7.694 6.26 13.952 13.953 13.952h445.503z" fill="#ff4155"/><path d="m272.039 306.756 11.114-28.372c1.071-2.733 1.006-5.792-.223-8.457-4.826-10.467-2.843-19.021.163-24.814 2.482-4.784.962-10.657-3.428-13.784-22.389-15.946-16.526-41.939-13.313-51.639.862-2.601.683-5.433-.463-7.922l-25.98-56.41c-.776-1.686-1.99-3.124-3.474-4.238-15.789-11.852-12.763-28.621-9.006-38.461 1.77-4.636.271-9.886-3.754-12.787-22.15-15.964-17.308-37.681-12.625-48.951.933-2.246 1.081-4.658.533-6.891-91.579 16.772-165.358 84.458-190.918 172.645-.472 1.648-.931 3.295-1.37 4.938v.001 113.746c0 7.694 6.26 13.952 13.953 13.952h238.145c.115-.874.324-1.733.646-2.556z" fill="#e80054"/><g><path d="m484.269 155.852v139.508c0 3.042-2.475 5.516-5.517 5.516h-445.503c-3.043 0-5.518-2.475-5.518-5.516v-139.507c-10.799 27.629-16.733 57.696-16.733 89.15 0 23.96 3.455 47.11 9.867 68.996 3.55 2.366 7.808 3.748 12.384 3.748h445.502c4.576 0 8.835-1.383 12.384-3.749 6.412-21.886 9.866-45.036 9.866-68.996.001-31.454-5.933-61.521-16.732-89.15z" fill="#ff7186"/></g><path d="m33.249 300.875c-3.042 0-5.518-2.475-5.518-5.516v-139.506c-10.799 27.629-16.733 57.695-16.733 89.15 0 23.96 3.455 47.11 9.867 68.996 3.55 2.366 7.808 3.748 12.384 3.748h238.041v-7.021c0-1.358.254-2.705.75-3.97l2.304-5.88h-241.095z" fill="#ff4155"/><circle cx="256" cy="152.175" fill="#e9efff" r="90.983"/><path d="m279.666 231.328c-22.389-15.946-16.526-41.939-13.313-51.639.862-2.601.683-5.433-.463-7.922l-25.98-56.41c-.776-1.686-1.99-3.124-3.474-4.238-15.789-11.852-12.763-28.621-9.006-38.461.878-2.298.95-4.745.312-6.983-36.412 11.888-62.724 46.119-62.724 86.502 0 50.248 40.734 90.983 90.983 90.983 9.833 0 19.298-1.566 28.169-4.452-.414-2.883-1.983-5.585-4.504-7.38z" fill="#d3dcfb"/><path d="m290.197 161.55-44.433 28.407c-7.406 4.735-17.12-.584-17.12-9.375v-56.814c0-8.791 9.714-14.11 17.12-9.375l44.433 28.407c6.845 4.376 6.845 14.374 0 18.75z" fill="#ff4155"/><path d="m250.826 127.094v17.988c0 8.79 9.714 14.11 17.121 9.375l20.242-12.941 2.009 1.285c6.845 4.376 6.845 14.374 0 18.75l-44.433 28.407c-7.406 4.735-17.121-.584-17.121-9.375v-56.814c0-8.791 9.714-14.11 17.121-9.375l6.227 3.981c-.751 2.741-1.166 5.655-1.166 8.719z" fill="#e80054"/><g><path d="m306.724 373.116.028-.025c-.165-.027.103.02-.551-.081l-.016.009c-5.231-.755-13.259 1.081-21.275-3.592-3.576 5.385-7.781 9.609-11.702 12.654-4.918 3.819-10.987 5.893-17.237 5.893s-12.319-2.074-17.237-5.893c-3.918-3.043-8.12-7.264-11.695-12.644-7.769 4.552-15.419 2.836-20.834 3.526 0 0-.002-.003-.003-.004-.645.087-.722.085-1.01.132l.048.043c-10.88 1.943-18.941 11.725-18.941 23.062v30.746c0 4.572 3.706 8.278 8.278 8.278h122.788c4.572 0 8.278-3.706 8.278-8.278v-30.746c.001-11.334-8.047-21.131-18.919-23.08z" fill="#73c3f9"/><path d="m211.943 409.35c0-8.216 5.143-15.465 12.802-18.439 5.961-2.315 10.797-5.204 14.726-8.307-.244-.177-.498-.339-.736-.524-3.918-3.043-8.121-7.264-11.695-12.644-7.769 4.552-15.419 2.836-20.834 3.526 0 0-.003-.003-.003-.004-.645.087-.722.085-1.01.132l.048.043c-10.88 1.943-18.941 11.724-18.941 23.062v30.746c0 4.572 3.706 8.278 8.278 8.278h17.366v-25.869z" fill="#4fabf7"/><path d="m226.101 369.956c3.763 6.085 8.367 10.795 12.633 14.109 4.918 3.819 10.987 5.893 17.237 5.893s12.319-2.074 17.237-5.893c4.27-3.316 8.876-8.03 12.641-14.12-2.208-1.152-4.423-2.767-6.587-5.044l.011-.013c-3.663-3.851-4.588-6.944-7.276-11.634-9.887 5.179-21.887 5.324-32.051 0-2.825 4.93-3.68 7.853-7.276 11.634l.011.013c-2.178 2.291-4.387 3.907-6.58 5.055z" fill="#fcad6d"/><path d="m232.67 364.888.011.013c-2.178 2.291-4.387 3.908-6.58 5.056 3.597 5.816 7.958 10.361 12.063 13.646 15.446-11.42 17.807-26.411 17.807-26.411l-.004-.002c-5.471.001-10.973-1.291-16.021-3.936-2.825 4.93-3.68 7.853-7.276 11.634z" fill="#fd995b"/><path d="m249.448 262.537c-19.591 2.669-21.453 13.777-21.462 17.852-.002.855-.475 1.647-1.244 2.02-10.191 4.958-4.696 28.85-4.696 28.85 1.023.068 2.558.947 3.357 1.333.196-1.217.515-2.416.966-3.575.344-.883.773-1.775 1.31-2.617.932-1.462 1.356-3.187 1.23-4.911-.366-4.984-.654-14.342 5.926-17.303 5.574-2.508 12.411-1.056 16.772.394 2.832.942 5.899.942 8.731 0 4.36-1.45 11.198-2.902 16.772-.394 6.561 2.952 6.291 12.262 5.929 17.26-.126 1.738.287 3.48 1.226 4.953.554.87.994 1.792 1.343 2.703.434 1.132.743 2.302.933 3.49 1.007-.488 2.91-1.483 4.141-1.309.151-5.224.633-10.856.633-10.856 5.806-28.434-20.773-40.764-41.867-37.89z" fill="#a05838"/><path d="m256.087 262.143c-2.243-.027-4.47.099-6.639.394-19.591 2.669-21.453 13.777-21.462 17.852-.002.855-.475 1.647-1.244 2.02-10.191 4.957-4.696 28.85-4.696 28.85 1.023.068 2.558.947 3.357 1.333.196-1.217.515-2.416.966-3.575.344-.883.773-1.775 1.31-2.617.932-1.462 1.356-3.187 1.23-4.911-.366-4.984-.654-14.342 5.926-17.303 5.574-2.508 12.411-1.056 16.772.394.583.194 1.178.338 1.776.452-.153-.344-.317-.688-.505-1.03-6.822-12.361-.301-19.263 3.209-21.859z" fill="#823c26"/><path d="m292.421 311.962c-1.526-1.398-4.565-.689-5.88.167.288 1.793.304 3.627.056 5.438l-1.551 11.295c0 .91-.029 1.804-.081 2.681 3.782 1.141 5.66-2.254 5.977-4.584.136-1.003.359-1.991.668-2.956 1.005-3.141 4.634-8.537.811-12.041z" fill="#fd995b"/><path d="m219.523 311.962c1.526-1.398 4.565-.689 5.879.167-.288 1.793-.304 3.627-.056 5.438l1.551 11.295c0 .91.029 1.804.081 2.681-3.782 1.141-5.66-2.254-5.977-4.584-.136-1.003-.359-1.991-.668-2.956-1.004-3.141-4.633-8.537-.81-12.041z" fill="#fd995b"/><path d="m286.071 308.64c-.349-.911-.789-1.833-1.343-2.703-.939-1.473-1.352-3.216-1.226-4.953.362-4.998.168-14.772-6.393-17.724-5.574-2.508-12.411-1.056-16.771.394-2.832.942-5.9.942-8.732 0-4.36-1.45-11.197-2.902-16.771-.394-6.579 2.96-6.756 12.782-6.39 17.767.127 1.724-.298 3.449-1.23 4.911-.537.843-.967 1.734-1.31 2.617-1.115 2.864-1.44 5.969-1.022 9.01l1.551 11.298c0 16.242 8.67 27.281 16.045 33.008 3.85 2.989 8.6 4.613 13.493 4.613s9.643-1.624 13.492-4.613c7.375-5.727 16.045-16.767 16.045-33.008l1.551-11.295c.414-3.012.1-6.087-.989-8.928z" fill="#f9ba8f"/><g><path d="m261.827 361.871c-7.375-5.727-16.045-16.767-16.045-33.008l-1.551-11.297c-.418-3.041-.093-6.147 1.022-9.01.344-.883.773-1.775 1.31-2.617.932-1.462 1.357-3.187 1.23-4.911-.34-4.629-.204-13.42 5.084-17.023-.428-.098-.853-.21-1.272-.349-4.36-1.45-11.197-2.902-16.771-.394-6.579 2.96-6.756 12.782-6.39 17.767.127 1.724-.298 3.449-1.23 4.911-.537.843-.967 1.735-1.31 2.617-1.115 2.864-1.44 5.969-1.022 9.01l1.551 11.297c0 16.242 8.67 27.282 16.045 33.008 3.85 2.989 8.6 4.613 13.493 4.613 3.378 0 6.681-.791 9.674-2.254-1.341-.657-2.627-1.435-3.818-2.36z" fill="#fcad6d"/></g><path d="m291.65 409.914v25.306h16.867s-1.463-21.698-10.841-28.446c-2.515-1.81-6.026.042-6.026 3.14z" fill="#4fabf7"/></g><g><path d="m446.038 373.084.028-.025c-.165-.027.103.02-.551-.081l-.016.009c-5.231-.755-13.258 1.081-21.275-3.592-3.576 5.385-7.781 9.609-11.702 12.654-4.918 3.819-10.987 5.893-17.237 5.893s-12.319-2.074-17.237-5.893c-3.918-3.043-8.121-7.264-11.696-12.644-7.769 4.552-15.418 2.836-20.834 3.526l-.003-.004c-.645.087-.722.085-1.01.132l.047.043c-10.88 1.943-18.941 11.724-18.941 23.062v30.746c0 4.572 3.706 8.278 8.278 8.278h122.788c4.572 0 8.278-3.706 8.278-8.278v-30.746c.003-11.333-8.046-21.13-18.917-23.08z" fill="#73c3f9"/><path d="m351.257 409.319c0-8.216 5.143-15.464 12.802-18.439 5.961-2.315 10.797-5.203 14.726-8.307-.244-.177-.498-.339-.736-.524-3.918-3.043-8.121-7.264-11.696-12.644-7.769 4.552-15.419 2.836-20.834 3.526l-.003-.004c-.645.087-.722.085-1.01.133l.047.043c-10.88 1.943-18.941 11.724-18.941 23.062v30.746c0 4.572 3.706 8.278 8.278 8.278h17.366v-25.87z" fill="#4fabf7"/><path d="m365.415 369.925c3.763 6.085 8.367 10.795 12.634 14.109 4.918 3.819 10.987 5.893 17.237 5.893s12.319-2.074 17.237-5.893c4.27-3.316 8.876-8.03 12.641-14.121-2.208-1.151-4.423-2.767-6.587-5.043l.011-.013c-3.663-3.851-4.588-6.944-7.276-11.634-9.887 5.179-21.887 5.324-32.051 0-2.825 4.929-3.68 7.853-7.276 11.634l.011.013c-2.179 2.291-4.388 3.907-6.581 5.055z" fill="#fcad6d"/><path d="m371.984 364.857.011.013c-2.178 2.291-4.387 3.908-6.58 5.055 3.597 5.816 7.958 10.361 12.063 13.646 15.446-11.42 17.807-26.411 17.807-26.411l-.004-.002c-5.471.001-10.972-1.291-16.021-3.936-2.825 4.93-3.68 7.854-7.276 11.635z" fill="#fd995b"/><path d="m388.762 262.506c-19.591 2.669-21.453 13.777-21.462 17.852-.002.855-.475 1.647-1.244 2.021-10.191 4.957-4.696 28.85-4.696 28.85 1.023.068 2.558.947 3.357 1.334.196-1.218.515-2.416.966-3.575.344-.883.773-1.775 1.31-2.617.932-1.462 1.357-3.187 1.23-4.911-.366-4.984-.654-14.342 5.926-17.303 5.574-2.508 12.411-1.056 16.772.394 2.832.942 5.899.942 8.731 0 4.36-1.45 11.198-2.902 16.772-.394 6.561 2.952 6.291 12.262 5.929 17.26-.126 1.737.287 3.48 1.226 4.953.554.87.994 1.792 1.343 2.703.434 1.132.743 2.302.933 3.49 1.007-.488 2.91-1.483 4.141-1.309.151-5.225.633-10.857.633-10.857 5.806-28.435-20.773-40.765-41.867-37.891z" fill="#a05838"/><path d="m395.4 262.112c-2.243-.027-4.47.099-6.639.394-19.591 2.669-21.453 13.777-21.462 17.852-.002.855-.475 1.647-1.244 2.021-10.191 4.957-4.696 28.85-4.696 28.85 1.023.068 2.558.947 3.357 1.334.196-1.217.515-2.416.966-3.575.344-.883.773-1.775 1.31-2.617.932-1.462 1.356-3.187 1.23-4.911-.366-4.984-.654-14.342 5.926-17.303 5.574-2.508 12.411-1.056 16.772.394.583.194 1.177.338 1.776.452-.153-.344-.317-.688-.505-1.03-6.821-12.363-.3-19.265 3.209-21.861z" fill="#823c26"/><path d="m431.734 311.931c-1.526-1.398-4.565-.689-5.88.167.288 1.793.304 3.627.056 5.438l-1.551 11.295c0 .91-.029 1.804-.081 2.681 3.782 1.141 5.66-2.254 5.977-4.584.136-1.003.359-1.992.668-2.956 1.005-3.141 4.634-8.537.811-12.041z" fill="#fd995b"/><path d="m358.837 311.931c1.526-1.398 4.565-.689 5.88.167-.288 1.793-.304 3.627-.056 5.438l1.551 11.295c0 .91.029 1.804.081 2.681-3.782 1.141-5.66-2.254-5.977-4.584-.136-1.003-.359-1.992-.668-2.956-1.005-3.141-4.634-8.537-.811-12.041z" fill="#fd995b"/><path d="m425.385 308.609c-.349-.911-.789-1.833-1.344-2.703-.939-1.473-1.352-3.216-1.226-4.953.362-4.998.168-14.772-6.393-17.724-5.574-2.508-12.411-1.056-16.771.394-2.832.942-5.9.942-8.732 0-4.36-1.45-11.197-2.902-16.771-.394-6.579 2.96-6.756 12.782-6.39 17.767.127 1.724-.298 3.449-1.23 4.911-.537.843-.967 1.734-1.31 2.617-1.115 2.864-1.44 5.97-1.022 9.01l1.551 11.298c0 16.242 8.67 27.281 16.045 33.008 3.849 2.989 8.6 4.613 13.493 4.613s9.643-1.624 13.493-4.613c7.375-5.727 16.045-16.767 16.045-33.008l1.551-11.295c.414-3.012.1-6.087-.989-8.928z" fill="#f9ba8f"/><g><path d="m401.141 361.84c-7.375-5.727-16.045-16.767-16.045-33.008l-1.551-11.298c-.418-3.041-.093-6.147 1.022-9.01.344-.883.773-1.775 1.31-2.617.932-1.462 1.357-3.187 1.23-4.911-.34-4.628-.204-13.42 5.084-17.023-.428-.098-.853-.21-1.272-.349-4.36-1.45-11.197-2.902-16.771-.394-6.579 2.96-6.756 12.782-6.39 17.767.127 1.724-.298 3.449-1.23 4.911-.537.843-.967 1.735-1.31 2.617-1.115 2.864-1.44 5.97-1.022 9.01l1.551 11.298c0 16.242 8.67 27.281 16.045 33.008 3.85 2.989 8.6 4.613 13.493 4.613 3.378 0 6.681-.791 9.674-2.254-1.341-.657-2.627-1.435-3.818-2.36z" fill="#fcad6d"/></g><path d="m430.963 409.883v25.305h16.867s-1.463-21.698-10.841-28.446c-2.514-1.809-6.026.043-6.026 3.141z" fill="#4fabf7"/></g><g><path d="m167.467 373.116.028-.025c-.165-.027.103.02-.551-.081l-.015.009c-5.231-.755-13.259 1.081-21.275-3.592-3.576 5.385-7.781 9.609-11.702 12.654-4.918 3.819-10.987 5.893-17.237 5.893s-12.319-2.074-17.237-5.893c-3.918-3.043-8.121-7.264-11.696-12.644-7.769 4.552-15.419 2.836-20.834 3.526 0 0-.002-.003-.003-.004-.645.087-.722.085-1.01.132l.047.043c-10.88 1.943-18.941 11.725-18.941 23.062v30.746c0 4.572 3.706 8.278 8.278 8.278h122.788c4.572 0 8.278-3.706 8.278-8.278v-30.746c.002-11.334-8.046-21.131-18.918-23.08z" fill="#73c3f9"/><path d="m72.687 409.35c0-8.216 5.143-15.465 12.802-18.439 5.961-2.315 10.797-5.204 14.726-8.307-.244-.177-.498-.339-.736-.524-3.918-3.043-8.121-7.264-11.696-12.644-7.769 4.552-15.419 2.836-20.834 3.526 0 0-.002-.003-.003-.004-.645.087-.722.085-1.01.132l.047.043c-10.88 1.943-18.941 11.724-18.941 23.062v30.746c0 4.572 3.706 8.278 8.278 8.278h17.366v-25.869z" fill="#4fabf7"/><path d="m86.845 369.956c3.763 6.085 8.366 10.795 12.633 14.109 4.918 3.819 10.987 5.893 17.237 5.893s12.319-2.074 17.237-5.893c4.27-3.316 8.876-8.03 12.641-14.12-2.208-1.152-4.423-2.767-6.587-5.044l.011-.013c-3.663-3.851-4.588-6.944-7.276-11.634-9.887 5.179-21.887 5.324-32.051 0-2.825 4.93-3.68 7.853-7.276 11.634l.011.013c-2.178 2.291-4.388 3.907-6.58 5.055z" fill="#fcad6d"/><path d="m93.414 364.888.011.013c-2.178 2.291-4.387 3.908-6.58 5.056 3.597 5.816 7.958 10.361 12.063 13.646 15.446-11.42 17.807-26.411 17.807-26.411l-.004-.002c-5.471.001-10.973-1.291-16.021-3.936-2.825 4.93-3.68 7.853-7.276 11.634z" fill="#fd995b"/><path d="m110.191 262.537c-19.591 2.669-21.453 13.777-21.462 17.852-.002.855-.475 1.647-1.244 2.02-10.191 4.958-4.696 28.85-4.696 28.85 1.023.068 2.558.947 3.357 1.333.196-1.217.515-2.416.966-3.575.344-.883.773-1.775 1.31-2.617.932-1.462 1.356-3.187 1.23-4.911-.366-4.984-.654-14.342 5.926-17.303 5.574-2.508 12.411-1.056 16.772.394 2.832.942 5.899.942 8.731 0 4.36-1.45 11.198-2.902 16.771-.394 6.561 2.952 6.291 12.262 5.929 17.26-.126 1.738.287 3.48 1.226 4.953.554.87.994 1.792 1.344 2.703.434 1.132.743 2.302.933 3.49 1.007-.488 2.91-1.483 4.141-1.309.151-5.224.633-10.856.633-10.856 5.807-28.434-20.773-40.764-41.867-37.89z" fill="#a05838"/><path d="m116.83 262.143c-2.243-.027-4.471.099-6.639.394-19.591 2.669-21.453 13.777-21.462 17.852-.002.855-.475 1.647-1.244 2.02-10.19 4.957-4.696 28.85-4.696 28.85 1.023.068 2.558.947 3.357 1.333.196-1.217.515-2.416.966-3.575.344-.883.773-1.775 1.31-2.617.932-1.462 1.356-3.187 1.23-4.911-.366-4.984-.654-14.342 5.926-17.303 5.574-2.508 12.411-1.056 16.772.394.583.194 1.177.338 1.776.452-.153-.344-.317-.688-.506-1.03-6.821-12.361-.3-19.263 3.21-21.859z" fill="#823c26"/><path d="m153.164 311.962c-1.526-1.398-4.565-.689-5.88.167.288 1.793.304 3.627.055 5.438l-1.551 11.295c0 .91-.029 1.804-.081 2.681 3.782 1.141 5.66-2.254 5.977-4.584.136-1.003.359-1.991.668-2.956 1.006-3.141 4.635-8.537.812-12.041z" fill="#fd995b"/><path d="m80.267 311.962c1.526-1.398 4.565-.689 5.88.167-.288 1.793-.304 3.627-.056 5.438l1.551 11.295c0 .91.029 1.804.081 2.681-3.782 1.141-5.66-2.254-5.977-4.584-.136-1.003-.359-1.991-.668-2.956-1.006-3.141-4.635-8.537-.811-12.041z" fill="#fd995b"/><path d="m146.815 308.64c-.349-.911-.789-1.833-1.344-2.703-.939-1.473-1.352-3.216-1.226-4.953.362-4.998.168-14.772-6.393-17.724-5.574-2.508-12.411-1.056-16.771.394-2.832.942-5.9.942-8.732 0-4.36-1.45-11.197-2.902-16.771-.394-6.579 2.96-6.756 12.782-6.39 17.767.127 1.724-.298 3.449-1.23 4.911-.537.843-.967 1.734-1.31 2.617-1.115 2.864-1.44 5.969-1.022 9.01l1.551 11.298c0 16.242 8.67 27.281 16.045 33.008 3.849 2.989 8.6 4.613 13.493 4.613s9.643-1.624 13.492-4.613c7.375-5.727 16.045-16.767 16.045-33.008l1.551-11.295c.414-3.012.101-6.087-.988-8.928z" fill="#f9ba8f"/><g><path d="m122.57 361.871c-7.375-5.727-16.045-16.767-16.045-33.008l-1.551-11.297c-.418-3.041-.092-6.147 1.022-9.01.344-.883.773-1.775 1.31-2.617.932-1.462 1.356-3.187 1.23-4.911-.34-4.629-.204-13.42 5.084-17.023-.428-.098-.853-.21-1.272-.349-4.36-1.45-11.197-2.902-16.771-.394-6.579 2.96-6.756 12.782-6.39 17.767.127 1.724-.298 3.449-1.23 4.911-.537.843-.967 1.735-1.31 2.617-1.115 2.864-1.44 5.969-1.022 9.01l1.551 11.297c0 16.242 8.67 27.282 16.045 33.008 3.849 2.989 8.6 4.613 13.493 4.613 3.378 0 6.681-.791 9.674-2.254-1.34-.657-2.626-1.435-3.818-2.36z" fill="#fcad6d"/></g><path d="m152.393 409.914v25.306h16.867s-1.463-21.698-10.841-28.446c-2.514-1.81-6.026.042-6.026 3.14z" fill="#4fabf7"/></g><g><path d="m236.098 449.896.028-.025c-.165-.027.103.02-.551-.081l-.015.009c-5.231-.755-13.259 1.081-21.275-3.592-3.576 5.385-7.781 9.609-11.702 12.654-4.918 3.819-10.987 5.893-17.237 5.893-6.251 0-12.319-2.074-17.237-5.893-3.918-3.043-8.121-7.264-11.696-12.644-7.769 4.552-15.418 2.836-20.834 3.526 0 0-.002-.003-.003-.004-.645.087-.722.085-1.01.132l.048.043c-10.88 1.943-18.941 11.724-18.941 23.062v30.746c0 4.572 3.706 8.278 8.278 8.278h122.789c4.572 0 8.278-3.706 8.278-8.278v-30.746c0-11.333-8.048-21.13-18.92-23.08z" fill="#73c3f9"/><path d="m141.317 486.131c0-8.216 5.143-15.465 12.802-18.439 5.961-2.315 10.797-5.203 14.726-8.307-.244-.177-.498-.339-.736-.524-3.918-3.043-8.121-7.264-11.696-12.644-7.769 4.552-15.419 2.836-20.834 3.526 0 0-.002-.003-.003-.004-.645.087-.722.085-1.01.132l.048.043c-10.88 1.943-18.941 11.724-18.941 23.062v30.746c0 4.572 3.706 8.278 8.278 8.278h17.366z" fill="#4fabf7"/><path d="m155.476 446.737c3.763 6.085 8.367 10.795 12.633 14.109 4.918 3.819 10.986 5.893 17.237 5.893 6.25 0 12.319-2.074 17.237-5.893 4.27-3.316 8.876-8.03 12.641-14.12-2.208-1.152-4.423-2.767-6.587-5.044l.011-.013c-3.663-3.851-4.589-6.944-7.276-11.634-9.887 5.179-21.887 5.324-32.051 0-2.825 4.93-3.68 7.853-7.276 11.634l.011.013c-2.178 2.29-4.388 3.907-6.58 5.055z" fill="#fcad6d"/><path d="m162.044 441.668.011.013c-2.178 2.291-4.387 3.908-6.58 5.056 3.597 5.816 7.958 10.361 12.063 13.646 15.446-11.42 17.807-26.411 17.807-26.411l-.004-.002c-5.471.001-10.972-1.291-16.021-3.936-2.824 4.93-3.679 7.853-7.276 11.634z" fill="#fd995b"/><path d="m178.822 339.318c-19.591 2.669-21.453 13.777-21.462 17.852-.002.855-.475 1.647-1.244 2.021-10.191 4.957-4.696 28.85-4.696 28.85 1.023.068 2.558.947 3.357 1.333.196-1.217.515-2.416.966-3.575.344-.883.773-1.775 1.31-2.617.932-1.462 1.356-3.187 1.23-4.911-.366-4.985-.654-14.342 5.926-17.303 5.574-2.508 12.411-1.056 16.772.394 2.832.942 5.899.942 8.731 0 4.36-1.45 11.198-2.902 16.771-.394 6.561 2.952 6.291 12.263 5.929 17.26-.126 1.738.287 3.48 1.226 4.954.554.87.994 1.792 1.343 2.703.434 1.132.743 2.302.933 3.49 1.007-.488 2.91-1.483 4.141-1.309.151-5.224.633-10.856.633-10.856 5.807-28.437-20.772-40.767-41.866-37.892z" fill="#a05838"/><path d="m185.461 338.923c-2.243-.027-4.47.099-6.639.394-19.591 2.669-21.453 13.777-21.462 17.852-.002.855-.475 1.647-1.244 2.021-10.191 4.957-4.696 28.85-4.696 28.85 1.023.068 2.558.947 3.357 1.333.196-1.217.515-2.416.966-3.575.344-.883.773-1.775 1.31-2.617.932-1.462 1.356-3.187 1.23-4.911-.366-4.984-.654-14.343 5.926-17.303 5.574-2.508 12.411-1.056 16.772.394.583.194 1.177.338 1.776.452-.153-.344-.317-.688-.505-1.03-6.822-12.361-.301-19.264 3.209-21.86z" fill="#823c26"/><path d="m221.795 388.743c-1.526-1.398-4.565-.689-5.879.167.288 1.793.304 3.627.055 5.438l-1.551 11.295c0 .91-.029 1.804-.081 2.681 3.782 1.141 5.66-2.254 5.977-4.584.136-1.003.359-1.991.668-2.956 1.005-3.141 4.634-8.537.811-12.041z" fill="#fd995b"/><path d="m148.897 388.743c1.526-1.398 4.565-.689 5.88.167-.288 1.793-.304 3.627-.056 5.438l1.551 11.295c0 .91.029 1.804.081 2.681-3.781 1.141-5.66-2.254-5.977-4.584-.136-1.003-.359-1.991-.668-2.956-1.005-3.141-4.634-8.537-.811-12.041z" fill="#fd995b"/><path d="m215.446 385.42c-.349-.911-.789-1.833-1.344-2.703-.939-1.473-1.352-3.216-1.226-4.953.362-4.998.168-14.772-6.393-17.724-5.574-2.508-12.411-1.056-16.771.394-2.832.942-5.9.942-8.732 0-4.36-1.45-11.197-2.902-16.771-.394-6.579 2.96-6.756 12.782-6.39 17.767.127 1.724-.298 3.449-1.23 4.911-.537.843-.967 1.735-1.31 2.617-1.115 2.864-1.44 5.969-1.022 9.01l1.551 11.298c0 16.242 8.67 27.281 16.045 33.008 3.85 2.989 8.6 4.613 13.493 4.613s9.643-1.624 13.493-4.613c7.375-5.727 16.045-16.767 16.045-33.008l1.551-11.295c.413-3.011.1-6.086-.989-8.928z" fill="#f9ba8f"/><g><path d="m191.201 438.652c-7.375-5.727-16.045-16.767-16.045-33.009l-1.551-11.298c-.418-3.041-.092-6.147 1.022-9.01.344-.883.773-1.775 1.31-2.617.932-1.462 1.356-3.187 1.23-4.911-.34-4.629-.204-13.42 5.084-17.023-.428-.098-.853-.21-1.272-.349-4.36-1.45-11.197-2.902-16.771-.394-6.579 2.96-6.756 12.782-6.39 17.767.127 1.724-.298 3.449-1.23 4.911-.537.843-.967 1.735-1.31 2.617-1.115 2.864-1.44 5.969-1.022 9.01l1.551 11.298c0 16.242 8.67 27.282 16.045 33.009 3.85 2.989 8.6 4.613 13.493 4.613 3.378 0 6.681-.791 9.674-2.254-1.341-.658-2.626-1.435-3.818-2.36z" fill="#fcad6d"/></g><path d="m221.024 486.694v25.306h16.867s-1.463-21.698-10.841-28.446c-2.514-1.809-6.026.043-6.026 3.14z" fill="#4fabf7"/></g><g><path d="m375.412 449.865.028-.026c-.165-.027.103.02-.551-.081l-.016.009c-5.23-.755-13.258 1.081-21.275-3.592-3.576 5.385-7.781 9.609-11.702 12.654-4.918 3.819-10.987 5.893-17.237 5.893s-12.319-2.074-17.237-5.893c-3.918-3.043-8.121-7.264-11.696-12.644-7.769 4.552-15.418 2.836-20.834 3.526 0 0-.002-.003-.003-.004-.645.087-.722.085-1.01.132l.048.043c-10.88 1.943-18.941 11.724-18.941 23.062v30.746c0 4.572 3.706 8.278 8.278 8.278h122.788c4.572 0 8.278-3.706 8.278-8.278v-30.746c.002-11.332-8.046-21.129-18.918-23.079z" fill="#73c3f9"/><path d="m280.631 486.1c0-8.216 5.143-15.465 12.802-18.439 5.961-2.315 10.797-5.203 14.726-8.307-.244-.177-.498-.339-.736-.524-3.918-3.043-8.121-7.264-11.696-12.644-7.769 4.552-15.419 2.836-20.834 3.526 0 0-.003-.003-.003-.004-.645.087-.722.085-1.01.132l.048.043c-10.88 1.943-18.941 11.724-18.941 23.062v30.746c0 4.572 3.706 8.278 8.278 8.278h17.366z" fill="#4fabf7"/><path d="m294.789 446.706c3.763 6.085 8.367 10.795 12.634 14.108 4.918 3.819 10.987 5.893 17.237 5.893s12.319-2.074 17.237-5.893c4.27-3.316 8.876-8.03 12.641-14.121-2.208-1.151-4.423-2.767-6.587-5.043l.011-.013c-3.663-3.851-4.588-6.944-7.276-11.634-9.887 5.179-21.887 5.324-32.051 0-2.825 4.929-3.68 7.853-7.276 11.634l.011.013c-2.179 2.291-4.388 3.908-6.581 5.056z" fill="#fcad6d"/><path d="m301.358 441.638.011.013c-2.178 2.291-4.387 3.908-6.58 5.056 3.597 5.815 7.958 10.361 12.063 13.646 15.446-11.42 17.807-26.411 17.807-26.411l-.004-.002c-5.471.001-10.972-1.291-16.021-3.936-2.825 4.929-3.68 7.852-7.276 11.634z" fill="#fd995b"/><path d="m318.136 339.286c-19.591 2.669-21.453 13.777-21.462 17.852-.002.855-.475 1.647-1.244 2.021-10.191 4.957-4.696 28.85-4.696 28.85 1.023.068 2.558.947 3.357 1.333.196-1.217.515-2.416.966-3.575.344-.883.773-1.775 1.31-2.617.932-1.462 1.356-3.187 1.23-4.911-.366-4.985-.654-14.342 5.926-17.303 5.574-2.508 12.411-1.056 16.772.394 2.832.942 5.899.942 8.731 0 4.36-1.45 11.198-2.902 16.772-.394 6.561 2.952 6.291 12.263 5.929 17.26-.126 1.737.287 3.48 1.226 4.953.555.87.995 1.792 1.344 2.703.434 1.132.743 2.302.933 3.49 1.007-.488 2.91-1.483 4.141-1.309.151-5.225.633-10.857.633-10.857 5.805-28.434-20.774-40.764-41.868-37.89z" fill="#a05838"/><path d="m324.775 338.892c-2.243-.027-4.47.099-6.639.394-19.591 2.669-21.453 13.777-21.462 17.852-.002.855-.475 1.647-1.244 2.021-10.191 4.957-4.696 28.85-4.696 28.85 1.023.068 2.558.947 3.357 1.334.196-1.217.515-2.416.966-3.575.344-.883.773-1.775 1.31-2.617.932-1.462 1.356-3.187 1.23-4.911-.366-4.984-.654-14.342 5.926-17.303 5.574-2.508 12.411-1.056 16.772.394.583.194 1.178.338 1.776.452-.153-.344-.317-.688-.506-1.03-6.821-12.362-.3-19.265 3.21-21.861z" fill="#823c26"/><path d="m361.108 388.712c-1.526-1.398-4.565-.689-5.88.167.288 1.793.304 3.627.056 5.438l-1.551 11.295c0 .91-.029 1.804-.082 2.681 3.782 1.141 5.66-2.254 5.977-4.584.136-1.003.359-1.991.668-2.956 1.007-3.141 4.635-8.537.812-12.041z" fill="#fd995b"/><path d="m288.211 388.712c1.526-1.398 4.565-.689 5.879.167-.288 1.793-.304 3.627-.056 5.438l1.551 11.295c0 .91.029 1.804.082 2.681-3.781 1.141-5.66-2.254-5.977-4.584-.136-1.003-.359-1.991-.668-2.956-1.005-3.141-4.634-8.537-.811-12.041z" fill="#fd995b"/><path d="m354.759 385.389c-.349-.911-.789-1.833-1.344-2.703-.939-1.473-1.352-3.216-1.226-4.954.362-4.998.168-14.772-6.393-17.724-5.574-2.508-12.411-1.056-16.771.394-2.832.942-5.901.942-8.732 0-4.36-1.45-11.197-2.902-16.771-.394-6.579 2.96-6.756 12.782-6.39 17.767.127 1.724-.298 3.449-1.23 4.911-.537.843-.967 1.734-1.31 2.617-1.115 2.863-1.44 5.97-1.022 9.01l1.551 11.298c0 16.242 8.67 27.281 16.045 33.008 3.85 2.989 8.6 4.613 13.492 4.613 4.893 0 9.643-1.624 13.493-4.613 7.375-5.727 16.045-16.767 16.045-33.008l1.551-11.295c.415-3.01.101-6.085-.988-8.927z" fill="#f9ba8f"/><g><path d="m330.515 438.621c-7.375-5.727-16.045-16.767-16.045-33.008l-1.551-11.298c-.418-3.041-.093-6.147 1.022-9.01.344-.883.773-1.775 1.31-2.617.932-1.462 1.356-3.187 1.23-4.911-.34-4.628-.204-13.42 5.084-17.023-.428-.098-.853-.21-1.272-.349-4.36-1.45-11.197-2.902-16.771-.394-6.579 2.96-6.756 12.782-6.39 17.767.127 1.724-.298 3.449-1.23 4.911-.537.843-.967 1.735-1.31 2.617-1.115 2.864-1.44 5.97-1.022 9.01l1.551 11.298c0 16.242 8.67 27.281 16.045 33.008 3.85 2.989 8.6 4.613 13.493 4.613 3.378 0 6.681-.791 9.674-2.254-1.341-.658-2.626-1.435-3.818-2.36z" fill="#fcad6d"/></g><path d="m360.338 486.664v25.305h16.867s-1.463-21.698-10.841-28.446c-2.514-1.809-6.026.043-6.026 3.141z" fill="#4fabf7"/></g></g></svg>