<?xml version="1.0" encoding="iso-8859-1"?>
<!-- Generator: Adobe Illustrator 19.0.0, SVG Export Plug-In . SVG Version: 6.00 Build 0)  -->
<svg version="1.1" id="Layer_1" xmlns="http://www.w3.org/2000/svg" xmlns:xlink="http://www.w3.org/1999/xlink" x="0px" y="0px"
	 viewBox="0 0 508 508" style="enable-background:new 0 0 508 508;" xml:space="preserve">
<circle style="fill:#90DFAA;" cx="254" cy="254" r="254"/>
<g>
	<path style="fill:#2C9984;" d="M379.2,408c0,0,2,7.6-0.8,9.6c0,0-2.8,0.8-2.8,4.8c0,0,0,4.8-6,4.4c0,0-16.4,2-18.8-2
		c0,0-1.6-2-0.8-5.6l18.8-7.2L379.2,408z"/>
	<path style="fill:#2C9984;" d="M376.8,396.8c0,0,7.2,6,2,14c0,0-3.6,5.2-4,7.6c0,0,0.4,8-8,6c0,0-8.4-6-14.4-1.2
		c0,0-4.4-0.4-2.4-6.4c0,0,4.8-6,7.6-11.6c0,0,1.6-1.2,0.8-5.6L376.8,396.8z"/>
	<path style="fill:#2C9984;" d="M396,408c0,0-2,7.6,0.8,9.6c0,0,2.8,0.8,2.8,4.8c0,0,0,4.8,6,4.4c0,0,16.4,2,18.8-2
		c0,0,1.6-2,0.8-5.6l-18.8-7.2L396,408z"/>
	<path style="fill:#2C9984;" d="M398.4,396.8c0,0-7.2,6-2,14c0,0,3.6,5.2,4,7.6c0,0-0.4,8,8,6c0,0,8.4-6,14.4-1.2
		c0,0,4.4-0.4,2.4-6.4c0,0-4.8-6-7.6-11.6c0,0-1.6-1.2-0.8-5.6L398.4,396.8z"/>
	<polygon style="fill:#2C9984;" points="370.4,131.2 386.8,195.2 403.2,131.2 	"/>
	<polygon style="fill:#2C9984;" points="391.6,138 393.6,131.2 381.6,131.2 383.6,138 	"/>
	<polygon style="fill:#2C9984;" points="391.6,138 387.6,138 383.6,138 375.6,186.8 387.6,195.2 399.6,186.8 	"/>
	<path style="fill:#2C9984;" d="M356.8,220.8c-2.8,16.8-6.4,46.4-0.8,81.2c0,0,5.2,79.6,0.4,97.2c0,0,9.6,16.8,26,0
		c0,0,0.4-131.2,4.8-136.4v-42H356.8z"/>
	<path style="fill:#2C9984;" d="M387.6,220.8v41.6c4.4,5.6,4.8,136.4,4.8,136.4c16.8,16.8,26,0,26,0c-4.8-17.6,0.4-97.2,0.4-97.2
		c5.6-34.8,2.4-64.4-0.8-81.2h-30.4V220.8z"/>
	<polygon style="fill:#2C9984;" points="400.4,122.4 374.4,122.4 370.8,131.2 402.8,131.2 	"/>
	<path style="fill:#2C9984;" d="M372,128l-29.2,10.8c0,0,17.6,53.6,10,89.6c0,0-3.2,18.4-0.8,32.4c0,0,20.4,14.8,28,1.2
		c0,0,10.4-32.4,8.4-64l-9.2-24.4L372,128z"/>
	<path style="fill:#2C9984;" d="M374.4,122.4l-14,15.2l5.2,2.4l-4,4c0,0,13.2,40.4,26.8,54.4C388.4,198,373.6,135.6,374.4,122.4z"/>
	<path style="fill:#2C9984;" d="M403.2,128l29.2,10.8c0,0-17.6,53.6-10,89.6c0,0,3.2,18.4,0.8,32.4c0,0-20.4,14.8-28,1.2
		c0,0-10.4-32.4-8.4-64l9.2-24.4L403.2,128z"/>
	<path style="fill:#2C9984;" d="M400.4,122.4l14,15.2l-5.2,2.4l4,4c0,0-13.2,40.4-26.8,54.4C386.4,198,401.2,135.6,400.4,122.4z"/>
	<circle style="fill:#2C9984;" cx="391.6" cy="200.8" r="2.8"/>
	<polygon style="fill:#2C9984;" points="405.2,177.2 410,169.2 417.6,174.8 	"/>
	
		<rect x="403.171" y="174.42" transform="matrix(-0.9789 0.2042 -0.2042 -0.9789 850.0986 265.1172)" style="fill:#2C9984;" width="16.4" height="4"/>
	<path style="fill:#2C9984;" d="M434,256c0.4,3.2,0.4,5.6,0.4,5.6c0.8,0.8,2.8,3.6,2.8,3.6c4,3.2,2,5.6,2,5.6l0.4,2.4
		c0.8,1.2,0.4,3.2,0.4,3.2c-2,4-3.6,0.8-3.6,0.8c-2.4,2.8-3.6-0.8-3.6-0.8c-2.8,1.2-3.6-1.6-3.6-1.6s-4.8,0.8-4-10.4
		c0.4-2.8,0.4-5.6,0-8.4L434,256L434,256z"/>
	<path style="fill:#2C9984;" d="M429.6,267.2c0-0.4,0.4-2,0.4-2c-0.8,2.4,2,3.6,2,3.6c-0.4,0-0.4-1.6-0.4-1.6c0.4,2,3.6,3.2,3.6,3.2
		c0.4-1.2,1.6-2,1.6-2c-0.8,1.2-0.8,2-0.8,2c0.4,0,1.2,0.8,1.2,0.8c-0.8-0.8-1.2,0-1.2,0c1.6,0.4,1.2,2,1.2,2c0-1.6-0.8-1.2-0.8-1.2
		c0.8,0.8,0.4,1.6,0.4,1.6c0-1.2-1.6-1.2-1.6-1.2c0.8-1.2,0-0.8,0-0.8c-1.2-2-2,0-2,0.8h-0.4c0.8-2,0-2.4,0-2.4
		c-1.2-1.2-1.6,0.8-1.6,0.8c0,3.2-2,4.4-2,4.4h-0.4c1.2-0.4,2-2.4,2-2.4c1.2-3.2-0.4-3.2-0.4-3.2c-2.4-0.4-2,2-2,2
		c-0.8,0.4-2.4,0-2.4,0c0.4,0,1.2-0.4,1.2-0.4c0.8-0.8-0.4-2.4-0.4-2.4c0.8,0.8,3.6,0.8,3.6,0.8C431.2,268.8,430,267.6,429.6,267.2
		l-0.4,0.8c0-0.4-0.8-2.4-0.8-2.4C428.8,265.6,429.6,266.8,429.6,267.2z"/>
	<path style="fill:#2C9984;" d="M439.2,271.6c0,0-0.4,0.4-1.2,2.4c0,0-0.4,0.4-0.4,0.8c-0.4,0.4-0.8,0.8-1.6,0.8
		c-0.8-0.4-2-0.4-2.8-0.4c0,0-0.8,0-1.6,0c-0.4,0-0.8-0.4-0.8-0.8c0.4-0.8,0.8-1.6,2-2c0,0,1.6-0.4,2,0c0,0-2.4-0.8-3.6,0.8
		c0,0-1.6,1.6-0.4,2c0,0,3.6,0,4,0.4c0,0,1.6,0.8,2.4-0.4c0,0,0.4-1.6,2-1.2c0,0-0.4-0.4-1.2-0.4
		C438.4,273.6,438.8,272.4,439.2,271.6z"/>
	<path style="fill:#2C9984;" d="M436,275.2c0,0.8,0.4,2.8,0.4,2.8c-0.4-0.4-0.4-0.8-0.4-0.8c0,0.4-0.4,0.4-0.4,0.4
		c0.4-1.2,0-2.4,0-2.4H436z"/>
	<path style="fill:#2C9984;" d="M432.8,276.8C432.4,276.8,432.4,276.8,432.8,276.8c-0.4-0.4-0.4-0.4-0.4,0c0.4-0.8,0.4-2,0.4-2h0.4
		C433.2,276,432.8,276.8,432.8,276.8z"/>
	<rect x="423.6" y="250.4" style="fill:#2C9984;" width="12" height="8.4"/>
	<path style="fill:#2C9984;" d="M341.6,256c-0.4,3.2-0.4,5.6-0.4,5.6c-1.2,0.4-3.2,3.6-3.2,3.6c-4,3.2-2,5.6-2,5.6l-0.4,2.4
		c-0.8,1.2-0.4,3.2-0.4,3.2c2,4,3.6,0.8,3.6,0.8c2.4,2.8,3.6-0.8,3.6-0.8c2.8,1.2,3.6-1.6,3.6-1.6s4.8,0.8,4-10.4
		c-0.4-2.8-0.4-5.6,0-8.4L341.6,256L341.6,256z"/>
	<path style="fill:#2C9984;" d="M345.6,267.2c0-0.4-0.4-2-0.4-2c0.8,2.4-2,3.6-2,3.6c0.4,0,0.4-1.6,0.4-1.6c-0.4,2-3.6,3.2-3.6,3.2
		c-0.4-1.2-1.6-2-1.6-2c0.8,1.2,0.8,2,0.8,2c-0.4,0-1.2,0.8-1.2,0.8c0.8-0.8,1.2,0,1.2,0c-1.6,0.4-1.2,2-1.2,2
		c0-1.6,0.8-1.2,0.8-1.2c-0.8,0.8-0.4,1.6-0.4,1.6c0-1.2,1.6-1.2,1.6-1.2c-0.8-1.2,0-0.8,0-0.8c1.2-2,2,0,2,0.8h0.4
		c-0.8-2,0-2.4,0-2.4c1.2-1.2,1.6,0.8,1.6,0.8c0,3.2,2,4.4,2,4.4h0.4c-1.2-0.4-2-2.4-2-2.4c-1.2-3.2,0.4-3.2,0.4-3.2
		c2.4-0.4,2,2,2,2c0.8,0.4,2.4,0,2.4,0c-0.4,0-1.2-0.4-1.2-0.4c-0.8-0.8,0.4-2.4,0.4-2.4c-0.8,0.8-3.6,0.8-3.6,0.8
		C344.4,268.8,345.6,267.6,345.6,267.2l0.4,0.8c0-0.4,0.8-2.4,0.8-2.4C346.4,265.6,346,266.8,345.6,267.2z"/>
	<path style="fill:#2C9984;" d="M336,271.6c0,0,0.4,0.4,1.2,2.4c0,0,0,0.4,0.4,0.8s0.8,0.8,1.6,0.8c0.8-0.4,2-0.4,2.8-0.4
		c0,0,0.8,0,1.6,0c0.4,0,0.8-0.4,0.8-0.8c-0.4-0.8-0.8-1.6-2-2c0,0-1.6-0.4-2,0c0,0,2.4-0.8,3.6,0.8c0,0,1.6,1.6,0.4,2
		c0,0-3.6,0-4,0.4c0,0-1.6,0.8-2.4-0.4c0,0-0.4-1.6-2-1.2c0,0,0.4-0.4,1.2-0.4C336.8,273.6,336.8,272.4,336,271.6z"/>
	<path style="fill:#2C9984;" d="M339.2,275.2c0,0.8-0.4,2.8-0.4,2.8c0.4-0.4,0.4-0.8,0.4-0.8c0,0.4,0.4,0.4,0.4,0.4
		c-0.4-1.2,0-2.4,0-2.4H339.2z"/>
	<path style="fill:#2C9984;" d="M342.8,276.8C342.8,276.8,343.2,276.8,342.8,276.8c0.4-0.4,0.4-0.4,0.4,0c-0.4-0.8-0.4-2-0.4-2h-0.4
		C342.4,276,342.8,276.8,342.8,276.8z"/>
	<rect x="340" y="250.4" style="fill:#2C9984;" width="12" height="8.4"/>
	<path style="fill:#2C9984;" d="M438,255.2h-16.8c0,0-0.4-43.6,2-51.6c0,0,0.8-8.4-1.2-15.2c2.8-26,10.4-49.2,10.8-49.6
		C432.4,138.4,440.8,160,438,255.2z"/>
	<path style="fill:#2C9984;" d="M336.8,255.2H354c0,0,0.4-43.6-2-51.6c0,0-0.8-8.4,1.2-15.2c-2.8-26-10.4-49.2-10.8-49.6
		C342.8,138.4,334.4,160,336.8,255.2z"/>
	<ellipse style="fill:#2C9984;" cx="387.6" cy="119.2" rx="11.2" ry="12"/>
	<path style="fill:#2C9984;" d="M398.4,117.2c0,0,2,10.4-10.8,14.4c0,0,7.2,1.6,10.4,10.4C398,142,406.8,128,398.4,117.2z"/>
	<path style="fill:#2C9984;" d="M376.8,117.2c0,0-2,10.4,10.8,14.4c0,0-7.2,1.6-10.4,10.4C377.2,142,368.4,128,376.8,117.2z"/>
	<path style="fill:#2C9984;" d="M403.2,108c-1.6,4.4-2,7.2-2.4,8l0,0c-3.6,4.8-8,8-13.2,8c-4.8,0-8.8-2.8-12.4-7.2
		c-7.2-9.2-2.4-25.6-2.4-25.6c3.6,4.4,15.6,4.4,15.6,4.4c-4.8-0.8-6-4.4-6-4.8c0.8,2.4,12.4,4,12.4,4
		C407.2,96.4,403.2,108,403.2,108z"/>
	<path style="fill:#2C9984;" d="M380.8,73.6c0,0,16.4-6.4,24.4,8.4c8.8,15.6-2.4,32.8-4.4,34c0,0,0.4-2.8,2.4-8c0,0,4-11.6-8-13.6
		c0,0-11.6-1.6-12.4-4c0,0,0.8,4,6,5.2c0,0-12-0.4-15.6-4.4c0,0-5.2,16.8,2.4,25.6c0,0-12.8-10.4-11.2-26
		C364.4,90.8,363.6,69.2,380.8,73.6z"/>
</g>
<g>
	<path style="fill:#E6E9EE;" d="M318.8,414.4c0,0,2,7.6-0.8,10c0,0-3.2,0.8-2.8,5.2c0,0,0,4.8-6.4,4.8c0,0-17.2,2-19.6-2
		c0,0-2-2.4-0.8-5.6l19.6-7.2L318.8,414.4z"/>
	<path style="fill:#E6E9EE;" d="M316.4,402.8c0,0,7.2,6.4,2,14.4c0,0-4,5.2-4,8c0,0,0.4,8.4-8.4,6.4c0,0-8.8-6.4-15.2-1.2
		c0,0-4.4-0.4-2.4-6.8c0,0,5.2-6.4,8-12.4c0,0,1.6-1.2,0.8-5.6L316.4,402.8z"/>
	<path style="fill:#E6E9EE;" d="M336.4,414.4c0,0-2,7.6,0.8,10c0,0,3.2,0.8,2.8,5.2c0,0,0,4.8,6.4,4.8c0,0,17.2,2,19.6-2
		c0,0,2-2.4,0.8-5.6l-19.6-7.2L336.4,414.4z"/>
	<path style="fill:#E6E9EE;" d="M339.2,402.8c0,0-7.2,6.4-2,14.4c0,0,4,5.2,4,8c0,0-0.4,8.4,8.4,6.4c0,0,8.8-6.4,15.2-1.2
		c0,0,4.4-0.4,2.4-6.8c0,0-5.2-6.4-8-12.4c0,0-1.6-1.2-0.8-5.6L339.2,402.8z"/>
	<polygon style="fill:#E6E9EE;" points="309.6,126.4 326.8,192.8 344,126.4 	"/>
	<polygon style="fill:#E6E9EE;" points="331.6,133.6 334,126.4 321.2,126.4 323.6,133.6 	"/>
	<polygon style="fill:#E6E9EE;" points="331.6,133.6 327.6,133.6 323.6,133.6 314.8,184 327.6,192.8 340.4,184 	"/>
	<path style="fill:#E6E9EE;" d="M295.6,219.6c-3.2,17.2-6.4,48.4-0.8,84.4c0,0,5.2,83.2,0.4,101.6c0,0,9.6,17.6,27.2,0
		c0,0,0.4-136.8,5.2-142.4v-43.6H295.6z"/>
	<path style="fill:#E6E9EE;" d="M327.6,219.6v43.6c4.8,5.6,5.2,142.4,5.2,142.4c17.2,17.6,27.2,0,27.2,0
		c-4.8-18.4,0.4-101.6,0.4-101.6c5.6-36,2.4-67.2-0.8-84.4H327.6z"/>
	<polygon style="fill:#E6E9EE;" points="341.2,116.8 314,116.8 310,126.4 343.2,126.4 	"/>
	<path style="fill:#E6E9EE;" d="M311.2,122.8L280.8,134c0,0,18.4,56,10.4,93.6c0,0-3.2,18.8-0.8,33.6c0,0,21.2,15.2,29.2,1.2
		c0,0,10.8-33.6,8.8-66.4l-9.6-25.6L311.2,122.8z"/>
	<path style="fill:#E6E9EE;" d="M314,116.8l-14.8,15.6l5.6,2.4l-4.4,4c0,0,13.6,42,28,56.4C328.4,195.6,313.2,130.4,314,116.8z"/>
	<path style="fill:#E6E9EE;" d="M344,122.8l30.4,11.2c0,0-18.4,56-10.4,93.6c0,0,3.2,18.8,0.8,33.6c0,0-21.2,15.2-29.2,1.2
		c0,0-10.8-33.6-8.8-66.4l9.6-25.6L344,122.8z"/>
	<path style="fill:#E6E9EE;" d="M341.2,116.8l14.8,15.6l-5.6,2.4l4.4,4c0,0-13.6,42-28,56.4C326.4,195.6,342,130.4,341.2,116.8z"/>
	<circle style="fill:#E6E9EE;" cx="332" cy="198.8" r="3.2"/>
	<polygon style="fill:#E6E9EE;" points="346,174 351.2,165.6 359.2,171.6 	"/>
	
		<rect x="343.946" y="171.214" transform="matrix(-0.9789 0.2042 -0.2042 -0.9789 733.0341 270.786)" style="fill:#E6E9EE;" width="17.2" height="4"/>
	<path style="fill:#E6E9EE;" d="M376,256.4c0.4,3.2,0.4,5.6,0.4,5.6c0.8,0.8,3.2,4,3.2,4c4.4,3.6,2,6,2,6l0.4,2.8
		c1.2,1.2,0.4,3.2,0.4,3.2c-2,4.4-4,0.8-4,0.8c-2.4,3.2-4-0.8-4-0.8c-2.8,1.2-3.6-1.6-3.6-1.6s-5.2,0.8-4-11.2c0.4-2.8,0.4-6,0-8.8
		H376z"/>
	<path style="fill:#E6E9EE;" d="M371.6,268c0-0.4,0.4-2.4,0.4-2.4c-0.8,2.4,2,4,2,4c-0.4,0-0.4-1.6-0.4-1.6c0.4,2,4,3.6,4,3.6
		c0.4-1.2,1.6-2,1.6-2c-1.2,0.8-1.2,2-1.2,2c0.8,0,1.2,0.8,1.2,0.8c-0.8-0.8-1.2,0-1.2,0c1.6,0.4,1.2,2,1.2,2c0-1.6-1.2-1.6-1.2-1.6
		c0.8,0.8,0.4,1.6,0.4,1.6c0-1.2-1.6-1.6-1.6-1.6c0.8-1.2,0-0.8,0-0.8c-1.2-2-2,0-2,0.8h-0.4c0.8-2,0-2.4,0-2.4
		c-1.6-1.2-1.6,0.8-1.6,0.8c0,3.2-2,4.4-2,4.4H370c1.2-0.4,2-2.4,2-2.4c1.2-3.2-0.4-3.6-0.4-3.6c-2.8-0.4-2,2-2,2
		c-1.2,0.4-2.4,0-2.4,0c0.4,0,1.2-0.8,1.2-0.8c0.8-0.8-0.4-2.8-0.4-2.8c0.8,0.8,3.6,0.8,3.6,0.8c1.6,0,0.4-1.6,0.4-1.6l-0.8,0.4
		c0-0.4-0.8-2.4-0.8-2.4C370.8,266.4,371.2,267.6,371.6,268z"/>
	<path style="fill:#E6E9EE;" d="M381.6,272.4c0,0-0.4,0.4-1.2,2.4c0,0-0.4,0.4-0.4,0.8c-0.4,0.8-0.8,0.8-1.6,0.8
		c-0.8-0.4-2-0.4-2.8-0.4c0,0-0.8,0-1.6,0c-0.4,0-0.8-0.4-0.8-0.8c0.4-0.8,0.8-1.6,2.4-2c0,0,1.6-0.4,2,0c0,0-2.4-0.8-4,0.8
		c0,0-1.6,1.6-0.4,2.4c0,0,4,0,4,0.4c0,0,1.6,0.8,2.4-0.4c0,0,0.4-1.6,2-1.6c0,0-0.4-0.4-1.2-0.4
		C380.8,274.4,380.8,273.2,381.6,272.4z"/>
	<path style="fill:#E6E9EE;" d="M378.4,276.4c-0.4,0.8,0.4,2.8,0.4,2.8c-0.4-0.4-0.4-0.8-0.4-0.8c0,0.4-0.4,0.4-0.4,0.4
		c0.4-1.2,0-2.8,0-2.8h0.4V276.4z"/>
	<path style="fill:#E6E9EE;" d="M374.4,278L374.4,278c0,0,0,0-0.4,0c0.4-0.8,0.4-2,0.4-2h0.4C375.2,276.8,374.4,278,374.4,278z"/>
	<rect x="365.2" y="250.4" style="fill:#E6E9EE;" width="12.8" height="8.8"/>
	<path style="fill:#E6E9EE;" d="M279.6,256.4c-0.4,3.2-0.4,5.6-0.4,5.6c-0.8,0.8-3.2,4-3.2,4c-4.4,3.6-2,6-2,6v2.4
		c-1.2,1.2-0.4,3.2-0.4,3.2c2,4.4,4,0.8,4,0.8c2.4,3.2,4-0.8,4-0.8c2.8,1.2,3.6-1.6,3.6-1.6s5.2,0.8,4-11.2c-0.4-2.8-0.4-6,0-8.8
		h-9.6V256.4z"/>
	<path style="fill:#E6E9EE;" d="M284,268c0-0.4-0.4-2.4-0.4-2.4c0.8,2.4-2,4-2,4c0.4,0,0.4-1.6,0.4-1.6c-0.4,2-4,3.6-4,3.6
		c-0.4-1.2-1.6-2-1.6-2c0.8,1.2,1.2,2,1.2,2c-0.8,0-1.2,0.8-1.2,0.8c0.8-0.8,1.2,0,1.2,0c-1.6,0.4-1.2,2-1.2,2
		c0-1.6,1.2-1.6,1.2-1.6c-0.8,0.8-0.4,1.6-0.4,1.6c0-1.2,1.6-1.6,1.6-1.6c-0.8-1.2,0-0.8,0-0.8c1.2-2,2,0,2,0.8h0.4
		c-0.8-2,0-2.4,0-2.4c1.6-1.2,1.6,0.8,1.6,0.8c0,3.2,2,4.4,2,4.4h0.8c-1.6-0.4-2-2.4-2-2.4c-1.2-3.2,0.4-3.6,0.4-3.6
		c2.8-0.4,2,2,2,2c1.2,0.4,2.4,0,2.4,0c-0.4,0-1.2-0.8-1.2-0.8c-0.8-0.8,0.4-2.8,0.4-2.8c-0.4,2-3.6,2-3.6,2c-1.6,0-0.4-1.6-0.4-1.6
		l0.8,0.4c0-0.4,0.8-2.4,0.8-2.4C284.8,266.4,284.4,267.6,284,268z"/>
	<path style="fill:#E6E9EE;" d="M274,272.4c0,0,0.4,0.4,1.2,2.4c0,0,0.4,0.4,0.4,0.8c0.4,0.8,0.8,0.8,1.6,0.8c0.8-0.4,2-0.4,2.8-0.4
		c0,0,0.8,0,1.6,0c0.4,0,0.8-0.4,0.8-0.8c-0.4-0.8-0.8-1.6-2.4-2c0,0-1.6-0.4-2,0c0,0,2.4-0.8,4,0.8c0,0,1.6,1.6,0.4,2.4
		c0,0-4,0-4,0.4c0,0-1.6,0.8-2.4-0.4c0,0-0.4-1.6-2-1.6c0,0,0.4-0.4,1.2-0.4C274.8,274.4,274.8,273.2,274,272.4z"/>
	<path style="fill:#E6E9EE;" d="M277.2,276.4c0.4,0.8-0.4,2.8-0.4,2.8c0.4-0.4,0.4-0.8,0.4-0.8c0,0.4,0.4,0.4,0.4,0.4
		c-0.4-1.2,0-2.8,0-2.8h-0.4V276.4z"/>
	<path style="fill:#E6E9EE;" d="M281.2,278L281.2,278c0.4-0.4,0.4-0.4,0.4,0c-0.4-0.8-0.4-2-0.4-2h-0.4
		C280.4,276.8,281.2,278,281.2,278z"/>
	<rect x="278" y="250.4" style="fill:#E6E9EE;" width="12.8" height="8.8"/>
	<path style="fill:#E6E9EE;" d="M380.4,255.6h-17.6c0,0-0.4-45.2,2-54c0,0,0.8-8.8-1.6-16c3.2-27.2,10.8-51.2,11.2-52
		C374.4,134,383.2,156.4,380.4,255.6z"/>
	<path style="fill:#E6E9EE;" d="M274.8,255.6h17.6c0,0,0.4-45.2-2-54c0,0-0.8-8.8,1.6-16c-3.2-27.2-10.8-51.2-11.2-52
		C280.8,134,272,156.4,274.8,255.6z"/>
	<ellipse style="fill:#E6E9EE;" cx="327.6" cy="113.6" rx="11.6" ry="12.4"/>
	<path style="fill:#E6E9EE;" d="M338.8,111.6c0,0,2.4,10.8-11.2,14.8c0,0,7.6,1.6,10.8,10.8C338.8,137.2,347.6,123.2,338.8,111.6z"
		/>
	<path style="fill:#E6E9EE;" d="M316.4,111.6c0,0-2.4,10.8,11.2,14.8c0,0-7.6,1.6-10.8,10.8C316.8,137.2,308,123.2,316.4,111.6z"/>
	<path style="fill:#E6E9EE;" d="M344,102c-1.6,4.8-2,7.6-2.4,8l0,0c-3.6,5.2-8.4,8.4-13.6,8.4c-4.8,0-9.2-2.8-12.8-7.6
		c-7.6-9.6-2.4-26.8-2.4-26.8c4,4.4,16.4,4.8,16.4,4.8c-5.2-0.8-6-4.8-6.4-5.2C324,86,335.6,88,335.6,88C348,90,344,102,344,102z"/>
	<path style="fill:#E6E9EE;" d="M320.8,66c0,0,16.8-6.8,25.6,8.4c9.2,16.4-2.4,34-4.8,35.6c0,0,0.8-2.8,2.4-8.4c0,0,4-12-8.4-14
		c0,0-12-1.6-12.8-4.4c0,0,0.8,4.4,6.4,5.2c0,0-12.4-0.4-16.4-4.8c0,0-5.2,17.6,2.4,26.8c0,0-13.2-10.8-11.6-27.2
		C303.6,84,302.8,61.6,320.8,66z"/>
</g>
<g>
	<path style="fill:#2C9984;" d="M128.8,408c0,0-2,7.6,0.8,9.6c0,0,2.8,0.8,2.8,4.8c0,0,0,4.8,6,4.4c0,0,16.4,2,18.8-2
		c0,0,1.6-2,0.8-5.6l-18.8-7.2L128.8,408z"/>
	<path style="fill:#2C9984;" d="M131.2,396.8c0,0-7.2,6-2,14c0,0,3.6,5.2,4,7.6c0,0-0.4,8,8,6c0,0,8.4-6,14.4-1.2
		c0,0,4.4-0.4,2.4-6.4c0,0-4.8-6-7.6-11.6c0,0-1.6-1.2-0.8-5.6L131.2,396.8z"/>
	<path style="fill:#2C9984;" d="M112,408c0,0,2,7.6-0.8,9.6c0,0-2.8,0.8-2.8,4.8c0,0,0,4.8-6,4.4c0,0-16.4,2-18.8-2
		c0,0-1.6-2-0.8-5.6l18.8-7.2L112,408z"/>
	<path style="fill:#2C9984;" d="M109.6,396.8c0,0,7.2,6,2,14c0,0-3.6,5.2-4,7.6c0,0,0.4,8-8,6c0,0-8.4-6-14.4-1.2
		c0,0-4.4-0.4-2.4-6.4c0,0,4.8-6,7.6-11.6c0,0,1.6-1.2,0.8-5.6L109.6,396.8z"/>
	<polygon style="fill:#2C9984;" points="137.6,131.2 121.2,195.2 104.8,131.2 	"/>
	<polygon style="fill:#2C9984;" points="116.4,138 114.4,131.2 126.4,131.2 124.4,138 	"/>
	<polygon style="fill:#2C9984;" points="116.4,138 120.4,138 124.4,138 132.4,186.8 120.4,195.2 108.4,186.8 	"/>
	<path style="fill:#2C9984;" d="M151.2,220.8c2.8,16.8,6.4,46.4,0.8,81.2c0,0-5.2,79.6-0.4,97.2c0,0-9.6,16.8-26,0
		c0,0-0.4-131.2-4.8-136.4v-42H151.2z"/>
	<path style="fill:#2C9984;" d="M120.4,220.8v41.6c-4.4,5.6-4.8,136.4-4.8,136.4c-16.8,16.8-26,0-26,0c4.4-17.2-0.4-96.8-0.4-96.8
		c-5.6-34.8-2.4-64.4,0.8-81.2H120.4z"/>
	<polygon style="fill:#2C9984;" points="107.6,122.4 133.6,122.4 137.2,131.2 105.2,131.2 	"/>
	<path style="fill:#2C9984;" d="M136,128l29.2,10.8c0,0-17.6,53.6-10,89.6c0,0,3.2,18.4,0.8,32.4c0,0-20.4,14.8-28,1.2
		c0,0-10.4-32.4-8.4-64l9.2-24.4L136,128z"/>
	<path style="fill:#2C9984;" d="M133.6,122.4l14,15.2l-5.2,2.4l4,4c0,0-13.2,40.4-26.8,54.4C119.6,198,134.4,135.6,133.6,122.4z"/>
	<path style="fill:#2C9984;" d="M104.8,128l-29.2,10.8c0,0,17.6,53.6,10,89.6c0,0-3.2,18.4-0.8,32.4c0,0,20.4,14.8,28,1.2
		c0,0,10.4-32.4,8.4-64l-9.2-24.4L104.8,128z"/>
	<path style="fill:#2C9984;" d="M107.6,122.4l-14,15.2l5.2,2.4l-4,4c0,0,13.2,40.4,26.8,54.4C121.6,198,106.8,135.6,107.6,122.4z"/>
	<circle style="fill:#2C9984;" cx="116.4" cy="200.8" r="2.8"/>
	<polygon style="fill:#2C9984;" points="102.8,177.2 98,169.2 90.4,174.8 	"/>
	
		<rect x="88.15" y="174.55" transform="matrix(0.9789 0.2042 -0.2042 0.9789 38.0829 -15.9549)" style="fill:#2C9984;" width="16.4" height="4"/>
	<path style="fill:#2C9984;" d="M74,256c-0.4,3.2-0.4,5.6-0.4,5.6c-0.8,0.8-2.8,3.6-2.8,3.6c-4,3.2-2,5.6-2,5.6l-0.4,2.4
		c-0.8,1.2-0.4,3.2-0.4,3.2c2,4,3.6,0.8,3.6,0.8c2.4,2.8,3.6-0.8,3.6-0.8c2.8,1.2,3.6-1.6,3.6-1.6s4.8,0.8,4-10.4
		c-0.4-2.8-0.4-5.6,0-8.4L74,256L74,256z"/>
	<path style="fill:#2C9984;" d="M78.4,267.2c0-0.4-0.4-2-0.4-2c0.8,2.4-2,3.6-2,3.6c0.4,0,0.4-1.6,0.4-1.6c-0.4,2-3.6,3.2-3.6,3.2
		c-0.4-1.2-1.6-2-1.6-2c0.8,1.2,0.8,2,0.8,2c-0.4,0-1.2,0.8-1.2,0.8c0.8-0.8,1.2,0,1.2,0c-1.6,0.4-1.2,2-1.2,2
		c0-1.6,0.8-1.2,0.8-1.2c-0.8,0.8-0.4,1.6-0.4,1.6c0-1.2,1.6-1.2,1.6-1.2c-0.8-1.2,0-0.8,0-0.8c1.2-2,2,0,2,0.8h0.4
		c-0.8-2,0-2.4,0-2.4c1.2-1.2,1.6,0.8,1.6,0.8c0,3.2,2,4.4,2,4.4h0.4c-1.2-0.4-2-2.4-2-2.4c-1.2-3.2,0.4-3.2,0.4-3.2
		c2.4-0.4,2,2,2,2c0.8,0.4,2.4,0,2.4,0c-0.4,0-1.2-0.4-1.2-0.4c-0.4-1.2,1.2-2.8,1.2-2.8c-0.8,0.8-3.6,0.8-3.6,0.8
		C76.8,268.8,78,267.6,78.4,267.2l0.4,0.8c0-0.4,0.8-2.4,0.8-2.4C79.2,265.6,78.4,266.8,78.4,267.2z"/>
	<path style="fill:#2C9984;" d="M68.8,271.6c0,0,0.4,0.4,1.2,2.4c0,0,0.4,0.4,0.4,0.8c0.4,0.4,0.8,0.8,1.6,0.8
		c0.8-0.4,2-0.4,2.8-0.4c0,0,0.8,0,1.6,0c0.4,0,0.8-0.4,0.8-0.8c-0.4-0.8-0.8-1.6-2-2c0,0-1.6-0.4-2,0c0,0,2.4-0.8,3.6,0.8
		c0,0,1.6,1.6,0.4,2c0,0-3.6,0-4,0.4c0,0-1.6,0.8-2.4-0.4c0,0-0.4-1.6-2-1.2c0,0,0.4-0.4,1.2-0.4C69.6,273.6,69.2,272.4,68.8,271.6z
		"/>
	<path style="fill:#2C9984;" d="M72,275.2c0,0.8-0.4,2.8-0.4,2.8c0.4-0.4,0.4-0.8,0.4-0.8c0,0.4,0.4,0.4,0.4,0.4
		c-0.4-1.2,0-2.4,0-2.4H72z"/>
	<path style="fill:#2C9984;" d="M75.2,276.8C75.6,276.8,75.6,276.8,75.2,276.8c0.4-0.4,0.4-0.4,0.4,0c-0.4-0.8-0.4-2-0.4-2h-0.4
		C74.8,276,75.2,276.8,75.2,276.8z"/>
	<rect x="72.4" y="250.4" style="fill:#2C9984;" width="12" height="8.4"/>
	<path style="fill:#2C9984;" d="M166.4,256c0.4,3.2,0.4,5.6,0.4,5.6c0.8,0.8,2.8,3.6,2.8,3.6c4,3.2,2,5.6,2,5.6l0.4,2.4
		c0.8,1.2,0.4,3.2,0.4,3.2c-2,4-3.6,0.8-3.6,0.8c-2.4,2.8-3.6-0.8-3.6-0.8c-2.8,1.2-3.6-1.6-3.6-1.6s-4.8,0.8-4-10.4
		c0.4-2.8,0.4-5.6,0-8.4L166.4,256L166.4,256z"/>
	<path style="fill:#2C9984;" d="M162.4,267.2c0-0.4,0.4-2,0.4-2c-0.8,2.4,2,3.6,2,3.6c-0.4,0-0.4-1.6-0.4-1.6c0.4,2,3.6,3.2,3.6,3.2
		c0.4-1.2,1.6-2,1.6-2c-0.8,1.2-0.8,2-0.8,2c0.4,0,1.2,0.8,1.2,0.8c-0.8-0.8-1.2,0-1.2,0c1.6,0.4,1.2,2,1.2,2c0-1.6-0.8-1.2-0.8-1.2
		c0.8,0.8,0.4,1.6,0.4,1.6c0-1.2-1.6-1.2-1.6-1.2c0.8-1.2,0-0.8,0-0.8c-1.2-2-2,0-2,0.8h-0.4c0.8-2,0-2.4,0-2.4
		c-1.2-1.2-1.6,0.8-1.6,0.8c0,3.2-2,4.4-2,4.4h-0.4c1.2-0.4,2-2.4,2-2.4c1.2-3.2-0.4-3.2-0.4-3.2c-2.4-0.4-2,2-2,2
		c-0.8,0.4-2.4,0-2.4,0c0.4,0,1.2-0.4,1.2-0.4c0.8-0.8-0.4-2.4-0.4-2.4c0.8,0.8,3.6,0.8,3.6,0.8
		C163.6,268.8,162.4,267.6,162.4,267.2L162,268c0-0.4-0.8-2.4-0.8-2.4C161.6,265.6,162,266.8,162.4,267.2z"/>
	<path style="fill:#2C9984;" d="M172,271.6c0,0-0.4,0.4-1.2,2.4c0,0,0,0.4-0.4,0.8s-0.8,0.8-1.6,0.8c-0.8-0.4-2-0.4-2.8-0.4
		c0,0-0.8,0-1.6,0c-0.4,0-0.8-0.4-0.8-0.8c0.4-0.8,0.8-1.6,2-2c0,0,1.6-0.4,2,0c0,0-2.4-0.8-3.6,0.8c0,0-1.6,1.6-0.4,2
		c0,0,3.6,0,4,0.4c0,0,1.6,0.8,2.4-0.4c0,0,0.4-1.6,2-1.2c0,0-0.4-0.4-1.2-0.4C171.2,273.6,171.2,272.4,172,271.6z"/>
	<path style="fill:#2C9984;" d="M168.8,275.2c0,0.8,0.4,2.8,0.4,2.8c-0.4-0.4-0.4-0.8-0.4-0.8c0,0.4-0.4,0.4-0.4,0.4
		c0.4-1.2,0-2.4,0-2.4H168.8z"/>
	<path style="fill:#2C9984;" d="M165.2,276.8C165.2,276.8,164.8,276.8,165.2,276.8c-0.4-0.4-0.4-0.4-0.4,0c0.4-0.8,0.4-2,0.4-2h0.4
		C165.6,276,165.2,276.8,165.2,276.8z"/>
	<rect x="156" y="250.4" style="fill:#2C9984;" width="12" height="8.4"/>
	<path style="fill:#2C9984;" d="M70,255.2h16.8c0,0,0.4-43.6-2-51.6c0,0-0.8-8.4,1.2-15.2c-2.8-26-10.4-49.2-10.8-49.6
		C75.6,138.4,67.2,160,70,255.2z"/>
	<path style="fill:#2C9984;" d="M171.2,255.2H154c0,0-0.4-43.6,2-51.6c0,0,0.8-8.4-1.2-15.2c2.8-26,10.4-49.2,10.8-49.6
		C165.2,138.4,173.6,160,171.2,255.2z"/>
	<ellipse style="fill:#2C9984;" cx="120.4" cy="119.2" rx="11.2" ry="12"/>
	<path style="fill:#2C9984;" d="M109.6,117.2c0,0-2,10.4,10.8,14.4c0,0-7.2,1.6-10.4,10.4C110,142,101.2,128,109.6,117.2z"/>
	<path style="fill:#2C9984;" d="M131.2,117.2c0,0,2,10.4-10.8,14.4c0,0,7.2,1.6,10.4,10.4C130.8,142,139.6,128,131.2,117.2z"/>
	<path style="fill:#2C9984;" d="M104.8,108c1.6,4.4,2,7.2,2.4,8l0,0c3.6,4.8,8,8,13.2,8c4.8,0,8.8-2.8,12.4-7.2
		c7.2-9.2,2.4-25.6,2.4-25.6c-3.6,4.4-15.6,4.4-15.6,4.4c4.8-0.8,6-4.4,6-4.8c-0.8,2.4-12.4,4-12.4,4
		C100.8,96.4,104.8,108,104.8,108z"/>
	<path style="fill:#2C9984;" d="M127.2,73.6c0,0-16.4-6.4-24.4,8.4c-8.8,15.6,2.4,32.8,4.4,34c0,0-0.4-2.8-2.4-8c0,0-4-11.6,8-13.6
		c0,0,11.6-1.6,12.4-4c0,0-0.8,4-6,5.2c0,0,12-0.4,15.6-4.4c0,0,5.2,16.8-2.4,25.6c0,0,12.8-10.4,11.2-26
		C143.6,90.8,144.4,69.2,127.2,73.6z"/>
</g>
<g>
	<path style="fill:#E6E9EE;" d="M189.2,414.4c0,0-2,7.6,0.8,10c0,0,3.2,0.8,2.8,5.2c0,0,0,4.8,6.4,4.8c0,0,17.2,2,19.6-2
		c0,0,2-2.4,0.8-5.6l-19.6-7.2L189.2,414.4z"/>
	<path style="fill:#E6E9EE;" d="M191.6,402.8c0,0-7.2,6.4-2,14.4c0,0,4,5.2,4,8c0,0-0.4,8.4,8.4,6.4c0,0,8.8-6.4,15.2-1.2
		c0,0,4.4-0.4,2.4-6.8c0,0-5.2-6.4-8-12.4c0,0-1.6-1.2-0.8-5.6L191.6,402.8z"/>
	<path style="fill:#E6E9EE;" d="M171.6,414.4c0,0,2,7.6-0.8,10c0,0-3.2,0.8-2.8,5.2c0,0,0,4.8-6.4,4.8c0,0-17.2,2-19.6-2
		c0,0-2-2.4-0.8-5.6l19.6-7.2L171.6,414.4z"/>
	<path style="fill:#E6E9EE;" d="M168.8,402.8c0,0,7.2,6.4,2,14.4c0,0-4,5.2-4,8c0,0,0.4,8.4-8.4,6.4c0,0-8.8-6.4-15.2-1.2
		c0,0-4.4-0.4-2.4-6.8c0,0,5.2-6.4,8-12.4c0,0,1.6-1.2,0.8-5.6L168.8,402.8z"/>
	<polygon style="fill:#E6E9EE;" points="198.4,126.4 181.2,192.8 164,126.4 	"/>
	<polygon style="fill:#E6E9EE;" points="176.4,133.6 174,126.4 186.8,126.4 184.4,133.6 	"/>
	<polygon style="fill:#E6E9EE;" points="176.4,133.6 180.4,133.6 184.4,133.6 193.2,184 180.4,192.8 167.6,184 	"/>
	<path style="fill:#E6E9EE;" d="M212.4,219.6c3.2,17.2,6.4,48.4,0.8,84.4c0,0-5.2,83.2-0.4,101.6c0,0-9.6,17.6-27.2,0
		c0,0-0.4-136.8-5.2-142.4v-43.6H212.4z"/>
	<path style="fill:#E6E9EE;" d="M180.4,219.6v43.6c-4.8,5.6-5.2,142.4-5.2,142.4c-17.2,17.6-27.2,0-27.2,0
		c4.8-18.4-0.4-101.6-0.4-101.6c-5.6-36-2.4-67.2,0.8-84.4H180.4z"/>
	<polygon style="fill:#E6E9EE;" points="166.8,116.8 194,116.8 198,126.4 164.8,126.4 	"/>
	<path style="fill:#E6E9EE;" d="M196.8,122.8l30.4,11.2c0,0-18.4,56-10.4,93.6c0,0,3.2,18.8,0.8,33.6c0,0-21.2,15.2-29.2,1.2
		c0,0-10.8-33.6-8.8-66.4l9.6-25.6L196.8,122.8z"/>
	<path style="fill:#E6E9EE;" d="M194,116.8l14.8,15.6l-5.6,2.4l4.4,4c0,0-13.6,42-28,56.4C179.6,195.6,194.8,130.4,194,116.8z"/>
	<path style="fill:#E6E9EE;" d="M164,122.8L133.6,134c0,0,18.4,56,10.4,93.6c0,0-3.2,18.8-0.8,33.6c0,0,21.2,15.2,29.2,1.2
		c0,0,10.8-33.6,8.8-66.4l-9.6-25.6L164,122.8z"/>
	<path style="fill:#E6E9EE;" d="M166.8,116.8L152,132.4l5.6,2.4l-4.4,4c0,0,13.6,42,28,56.4C181.6,195.6,166,130.4,166.8,116.8z"/>
	<circle style="fill:#E6E9EE;" cx="176" cy="198.8" r="3.2"/>
	<polygon style="fill:#E6E9EE;" points="162,174 156.8,165.6 148.8,171.6 	"/>
	
		<rect x="146.805" y="171.596" transform="matrix(0.9789 0.2042 -0.2042 0.9789 38.7239 -28.0766)" style="fill:#E6E9EE;" width="17.2" height="4"/>
	<path style="fill:#E6E9EE;" d="M132,256.4c-0.4,3.2-0.4,5.6-0.4,5.6c-0.8,0.8-3.2,4-3.2,4c-4.4,3.6-2,6-2,6l-0.4,2.8
		c-1.2,1.2-0.4,3.2-0.4,3.2c2,4.4,4,0.8,4,0.8c2.4,3.2,4-0.8,4-0.8c2.8,1.2,3.6-1.6,3.6-1.6s5.2,0.8,4-11.2c-0.4-2.8-0.4-6,0-8.8
		H132z"/>
	<path style="fill:#E6E9EE;" d="M136.4,268c0-0.4-0.4-2.4-0.4-2.4c0.8,2.4-2,4-2,4c0.4,0,0.4-1.6,0.4-1.6c-0.4,2-4,3.6-4,3.6
		c-0.4-1.2-1.6-2-1.6-2c0.8,1.2,1.2,2,1.2,2c-0.8,0-1.2,0.8-1.2,0.8c0.8-0.8,1.2,0,1.2,0c-1.6,0.4-1.2,2-1.2,2
		c0-1.6,1.2-1.6,1.2-1.6c-0.8,0.8-0.4,1.6-0.4,1.6c0-1.2,1.6-1.6,1.6-1.6c-0.8-1.2,0-0.8,0-0.8c1.2-2,2,0,2,0.8h0.4
		c-0.8-2,0-2.4,0-2.4c1.6-1.2,1.6,0.8,1.6,0.8c0,3.2,2,4.4,2,4.4h0.8c-1.2-0.4-2-2.4-2-2.4c-1.2-3.2,0.4-3.6,0.4-3.6
		c2.8-0.4,2,2,2,2c1.2,0.4,2.4,0,2.4,0c-0.4,0-1.2-0.8-1.2-0.8c-0.8-0.8,0.4-2.8,0.4-2.8c-0.4,2-3.6,2-3.6,2c-1.6,0-0.4-1.6-0.4-1.6
		l0.8,0.4c0-0.4,0.8-2.4,0.8-2.4C137.2,266.4,136.8,267.6,136.4,268z"/>
	<path style="fill:#E6E9EE;" d="M126.4,272.4c0,0,0.4,0.4,1.2,2.4c0,0,0.4,0.4,0.4,0.8c0.4,0.8,0.8,0.8,1.6,0.8
		c0.8-0.4,2-0.4,2.8-0.4c0,0,0.8,0,1.6,0c0.4,0,0.8-0.4,0.8-0.8c-0.4-0.8-0.8-1.6-2.4-2c0,0-1.6-0.4-2,0c0,0,2.4-0.8,4,0.8
		c0,0,1.6,1.6,0.4,2.4c0,0-4,0-4,0.4c0,0-1.6,0.8-2.4-0.4c0,0-0.4-1.6-2-1.6c0,0,0.4-0.4,1.2-0.4
		C127.2,274.4,127.2,273.2,126.4,272.4z"/>
	<path style="fill:#E6E9EE;" d="M129.6,276.4c0.4,0.8-0.4,2.8-0.4,2.8c0.4-0.4,0.4-0.8,0.4-0.8c0,0.4,0.4,0.4,0.4,0.4
		c-0.4-1.2,0-2.8,0-2.8h-0.4V276.4z"/>
	<path style="fill:#E6E9EE;" d="M133.6,278L133.6,278c0.4-0.4,0.4-0.4,0.4,0c-0.4-0.8-0.4-2-0.4-2h-0.4
		C132.8,276.8,133.6,278,133.6,278z"/>
	<rect x="130.4" y="250.4" style="fill:#E6E9EE;" width="12.8" height="8.8"/>
	<path style="fill:#E6E9EE;" d="M228.4,256.4c0.4,3.2,0.4,5.6,0.4,5.6c0.8,0.8,3.2,4,3.2,4c4.4,3.6,2,6,2,6l0.4,2.8
		c1.2,1.2,0.4,3.2,0.4,3.2c-2,4.4-4,0.8-4,0.8c-2.4,3.2-4-0.8-4-0.8c-2.8,1.2-3.6-1.6-3.6-1.6s-5.2,0.8-4-11.2c0.4-2.8,0.4-6,0-8.8
		H228.4z"/>
	<path style="fill:#E6E9EE;" d="M224,268c0-0.4,0.4-2.4,0.4-2.4c-0.8,2.4,2,4,2,4c-0.4,0-0.4-1.6-0.4-1.6c0.4,2,4,3.6,4,3.6
		c0.4-1.2,1.6-2,1.6-2c-0.8,1.2-1.2,2-1.2,2c0.8,0,1.2,0.8,1.2,0.8c-0.8-0.8-1.2,0-1.2,0c1.6,0.4,1.2,2,1.2,2c0-1.6-1.2-1.6-1.2-1.6
		c0.8,0.8,0.4,1.6,0.4,1.6c0-1.2-1.6-1.6-1.6-1.6c0.8-1.2,0-0.8,0-0.8c-1.2-2-2,0-2,0.8h-0.4c0.8-2,0-2.4,0-2.4
		c-1.6-1.2-1.6,0.8-1.6,0.8c0,3.2-2,4.4-2,4.4h-0.8c1.6-0.4,2-2.4,2-2.4c1.2-3.2-0.4-3.6-0.4-3.6c-2.4,0.4-2,2.8-2,2.8
		c-1.2,0.4-2.4,0-2.4,0c0.4,0,1.2-0.8,1.2-0.8c0.8-0.8-0.4-2.8-0.4-2.8c0.8,0.8,3.6,0.8,3.6,0.8c1.6,0,0.4-1.6,0.4-1.6l-0.8,0.4
		c0-0.4-0.8-2.4-0.8-2.4C223.2,266.4,223.6,267.6,224,268z"/>
	<path style="fill:#E6E9EE;" d="M234,272.4c0,0-0.4,0.4-1.2,2.4c0,0-0.4,0.4-0.4,0.8c-0.4,0.8-0.8,0.8-1.6,0.8
		c-0.8-0.4-2-0.4-2.8-0.4c0,0-0.8,0-1.6,0c-0.4,0-0.8-0.4-0.8-0.8c0.4-0.8,0.8-1.6,2.4-2c0,0,1.6-0.4,2,0c0,0-2.4-0.8-4,0.8
		c0,0-1.6,1.6-0.4,2.4c0,0,4,0,4,0.4c0,0,1.6,0.8,2.4-0.4c0,0,0.4-1.6,2-1.6c0,0-0.4-0.4-1.2-0.4C233.2,274.4,233.2,273.2,234,272.4
		z"/>
	<path style="fill:#E6E9EE;" d="M230.8,276.4c-0.4,0.8,0.4,2.8,0.4,2.8c-0.4-0.4-0.4-0.8-0.4-0.8c0,0.4-0.4,0.4-0.4,0.4
		c0.4-1.2,0-2.8,0-2.8h0.4V276.4z"/>
	<path style="fill:#E6E9EE;" d="M226.8,278L226.8,278c-0.4-0.4-0.4-0.4-0.4,0c0.4-0.8,0.4-2,0.4-2h0.4
		C227.6,276.8,226.8,278,226.8,278z"/>
	<rect x="217.6" y="250.4" style="fill:#E6E9EE;" width="12.8" height="8.8"/>
	<path style="fill:#E6E9EE;" d="M127.6,255.6h17.6c0,0,0.4-45.2-2-54c0,0-0.8-8.8,1.6-16c-2.8-27.2-10.8-51.2-11.2-51.6
		C133.6,134,124.8,156.4,127.6,255.6z"/>
	<path style="fill:#E6E9EE;" d="M233.2,255.6h-17.6c0,0-0.4-45.2,2-54c0,0,0.8-8.8-1.6-16c3.2-27.2,10.8-51.2,11.2-52
		C227.2,134,236,156.4,233.2,255.6z"/>
	<ellipse style="fill:#E6E9EE;" cx="180.4" cy="113.6" rx="11.6" ry="12.4"/>
	<path style="fill:#E6E9EE;" d="M169.2,111.6c0,0-2.4,10.8,11.2,14.8c0,0-7.6,1.6-10.8,10.8C169.2,137.2,160.4,123.2,169.2,111.6z"
		/>
	<path style="fill:#E6E9EE;" d="M191.6,111.6c0,0,2.4,10.8-11.2,14.8c0,0,7.6,1.6,10.8,10.8C191.2,137.2,200,123.2,191.6,111.6z"/>
	<path style="fill:#E6E9EE;" d="M164,102c1.6,4.8,2,7.6,2.4,8l0,0c3.6,5.2,8.4,8.4,13.6,8.4c4.8,0,9.2-2.8,12.8-7.6
		c7.6-9.6,2.4-26.8,2.4-26.8c-4,4.4-16.4,4.8-16.4,4.8c5.2-0.8,6-4.8,6.4-5.2C184,86,172.4,88,172.4,88C160,90,164,102,164,102z"/>
	<path style="fill:#E6E9EE;" d="M187.2,66c0,0-16.8-6.8-25.6,8.4c-9.2,16.4,2.4,34,4.8,35.6c0,0-0.8-2.8-2.4-8.4c0,0-4-12,8.4-14
		c0,0,12-1.6,12.8-4.4c0,0-0.8,4.4-6.4,5.2c0,0,12.4-0.4,16.4-4.8c0,0,5.2,17.6-2.4,26.8c0,0,13.2-10.8,11.6-27.2
		C204.4,84,205.2,61.6,187.2,66z"/>
</g>
<g>
	<path style="fill:#324A5E;" d="M242.8,453.6c0,0,2.8,9.6-1.2,12.4c0,0-4,0.8-3.6,6.4c0,0,0,6-8,5.6c0,0-21.2,2.4-24-2.4
		c0,0-2.4-2.8-0.8-7.2l24.4-9.2L242.8,453.6z"/>
	<path style="fill:#324A5E;" d="M239.6,439.2c0,0,9.2,7.6,2.4,18c0,0-4.8,6.4-4.8,10c0,0,0.8,10.4-10.4,8c0,0-11.2-8-18.4-1.2
		c0,0-5.6-0.4-2.8-8c0,0,6.4-8,10-15.2c0,0,2.4-1.6,1.2-7.2L239.6,439.2z"/>
	<path style="fill:#324A5E;" d="M264.8,453.6c0,0-2.8,9.6,1.2,12.4c0,0,4,0.8,3.6,6.4c0,0,0,6,8,5.6c0,0,21.2,2.4,24-2.4
		c0,0,2.4-2.8,0.8-7.2l-24.4-9.2L264.8,453.6z"/>
	<path style="fill:#324A5E;" d="M268,439.2c0,0-9.2,7.6-2.4,18c0,0,4.8,6.4,4.8,10c0,0-0.8,10.4,10.4,8c0,0,11.2-8,18.4-1.2
		c0,0,5.6-0.4,2.8-8c0,0-6.4-8-10-15.2c0,0-2.4-1.6-1.2-7.2L268,439.2z"/>
</g>
<polygon style="fill:#E6E9EE;" points="231.6,96.8 252.8,179.2 273.6,96.8 "/>
<polygon style="fill:#F1543F;" points="258.8,106 261.6,96.8 246,96.8 248.8,106 "/>
<polygon style="fill:#FF7058;" points="258.8,106 254,106 248.8,106 238,168.4 254,179.2 269.6,168.4 "/>
<g>
	<path style="fill:#2B3B4E;" d="M214,212.4c-4,21.6-8,60-0.8,104.4c0,0,6.4,102.8,0.4,125.6c0,0,12,21.6,33.6,0
		c0,0,0.8-169.2,6.4-176v-54H214z"/>
	<path style="fill:#2B3B4E;" d="M253.6,212.4v54c5.6,7.2,6.4,176,6.4,176c21.6,21.6,33.6,0,33.6,0c-6-22.8,0.4-125.6,0.4-125.6
		c7.2-44.8,2.8-83.2-0.8-104.4H253.6z"/>
</g>
<polygon style="fill:#CED5E0;" points="270.4,85.6 236.8,85.6 232,96.8 273.2,96.8 "/>
<path style="fill:#324A5E;" d="M233.6,92.8L196,106.4c0,0,22.8,69.2,12.8,115.6c0,0-4,23.6-0.8,41.6c0,0,26,18.8,36.4,1.2
	c0,0,13.2-41.6,11.2-82.4L244,150.8L233.6,92.8z"/>
<path style="fill:#2B3B4E;" d="M236.8,85.6l-18.4,19.6l6.8,3.2l-5.2,4.8c0,0,17.2,52,34.8,70C254.8,182.8,236,102.4,236.8,85.6z"/>
<path style="fill:#324A5E;" d="M274,92.8l37.6,13.6c0,0-22.8,69.2-12.8,115.6c0,0,4,23.6,0.8,41.6c0,0-26,18.8-36.4,1.2
	c0,0-13.2-41.6-11.2-82.4l11.6-31.6L274,92.8z"/>
<g>
	<path style="fill:#2B3B4E;" d="M270.4,85.6l18.4,19.6L282,108l5.2,4.8c0,0-17.2,52-34.8,70C252.4,182.8,271.6,102.4,270.4,85.6z"/>
	<circle style="fill:#2B3B4E;" cx="258.8" cy="186.8" r="3.6"/>
</g>
<polygon style="fill:#FFFFFF;" points="276.8,156.4 282.8,145.6 292.8,152.8 "/>
<rect x="274.018" y="152.807" transform="matrix(-0.9789 0.2042 -0.2042 -0.9789 594.9732 249.4189)" style="fill:#2B3B4E;" width="21.199" height="5.2"/>
<g>
	<path style="fill:#FFD05B;" d="M313.6,258c0.4,4,0.4,6.8,0.4,6.8c1.2,1.2,4,4.8,4,4.8c5.2,4.4,2.4,7.6,2.4,7.6l0.4,3.2
		c1.2,1.6,0.4,4,0.4,4c-2.8,5.2-4.8,0.8-4.8,0.8c-3.2,3.6-4.8-0.8-4.8-0.8c-3.6,1.6-4.8-2-4.8-2s-6.4,0.8-4.8-13.6
		c0.4-3.2,0.4-7.2,0-11.2h11.6V258z"/>
	<path style="fill:#FFD05B;" d="M308,272.4c0-0.8,0.4-2.8,0.4-2.8c-0.8,2.8,2.4,4.8,2.4,4.8c-0.4,0-0.4-2-0.4-2
		c0.4,2.4,4.8,4.4,4.8,4.4c0.8-1.6,2-2.8,2-2.8c-1.2,1.2-1.2,2.8-1.2,2.8c0.8,0,1.6,0.8,1.6,0.8c-1.2-0.8-1.6,0-1.6,0
		c2,0.4,1.2,2.4,1.2,2.4c0-2-1.2-1.6-1.2-1.6c1.2,0.8,0.8,2,0.8,2c0-1.6-2-1.6-2-1.6c0.8-1.2,0.4-1.2,0.4-1.2
		c-1.6-2.4-2.4,0.4-2.8,1.2c-0.4,0-0.4,0-0.8,0.4c1.2-2.4,0-2.8,0-2.8c-1.6-1.6-2,0.8-2,0.8c0,4-2.8,5.6-2.8,5.6H306
		c1.6-0.8,2.4-2.8,2.4-2.8c1.6-4-0.4-4.4-0.4-4.4c-3.2-0.4-2.4,2.4-2.4,2.4c-1.2,0.4-2.8,0.4-2.8,0.4c0.8-0.4,1.2-0.8,1.2-0.8
		c1.2-1.2-0.8-3.2-0.8-3.2c0.8,0.8,4.4,0.8,4.4,0.8c1.6,0,0.4-2,0.4-2l-0.8,0.4c0-0.4-0.8-2.8-0.8-2.8
		C307.2,270.4,308,272,308,272.4z"/>
	<path style="fill:#FFD05B;" d="M320.8,278c0,0-0.8,0.4-1.6,2.8c0,0-0.4,0.4-0.4,1.2c-0.4,0.8-1.2,1.2-2,0.8
		c-1.2-0.4-2.4-0.8-3.6-0.4c0,0-1.2,0-2,0s-1.2-0.4-0.8-1.2c0.4-0.8,1.2-2,2.8-2.4c0,0,2-0.4,2.8,0c0,0-3.2-1.2-4.8,0.8
		c0,0-2,2-0.4,2.8c0,0,4.8,0,5.2,0.4c0,0,2,0.8,2.8-0.4c0,0,0.4-2,2.4-1.6c0,0-0.8-0.4-1.6-0.4C319.6,280.4,320,279.2,320.8,278z"/>
	<path style="fill:#FFD05B;" d="M316.4,282.8c-0.4,0.8,0.8,3.6,0.8,3.6c-0.4-0.4-0.8-0.8-0.8-0.8c-0.4,0.4-0.4,0.4-0.8,0.8
		c0.4-1.2,0-3.2,0-3.2h0.8V282.8z"/>
	<path style="fill:#FFD05B;" d="M312,284.8C311.6,284.8,311.6,284.4,312,284.8c-0.4-0.4-0.4-0.4-0.4-0.4c0.4-0.8,0.4-2.4,0.4-2.4
		h0.8C312.8,283.6,312,284.8,312,284.8z"/>
</g>
<rect x="300" y="250.4" style="fill:#FFFFFF;" width="15.6" height="10.8"/>
<g>
	<path style="fill:#FFD05B;" d="M194.4,258c-0.4,4-0.4,6.8-0.4,6.8c-1.2,1.2-4,4.8-4,4.8c-5.2,4.4-2.4,7.6-2.4,7.6l-0.4,3.2
		c-1.2,1.6-0.4,4-0.4,4c2.8,5.2,4.8,0.8,4.8,0.8c3.2,3.6,4.8-0.8,4.8-0.8c3.6,1.6,4.8-2,4.8-2s6.4,0.8,4.8-13.6
		c-0.4-3.2-0.4-7.2,0-11.2h-11.6V258z"/>
	<path style="fill:#FFD05B;" d="M200,272.4c0-0.8-0.4-2.8-0.4-2.8c0.8,2.8-2.4,4.8-2.4,4.8c0.4,0,0.4-2,0.4-2
		c-0.4,2.4-4.8,4.4-4.8,4.4c-0.8-1.6-2-2.8-2-2.8c1.2,1.2,1.2,2.8,1.2,2.8c-0.8,0-1.6,0.8-1.6,0.8c1.2-0.8,1.6,0,1.6,0
		c-2,0.4-1.2,2.4-1.2,2.4c0-2,1.2-1.6,1.2-1.6c-1.2,0.8-0.8,2-0.8,2c0-1.6,2-1.6,2-1.6c-0.8-1.2-0.4-1.2-0.4-1.2
		c1.6-2.4,2.4,0.4,2.8,1.2c0.4,0,0.4,0,0.8,0.4c-1.2-2.4,0-2.8,0-2.8c1.6-1.6,2,0.8,2,0.8c0,4,2.8,5.6,2.8,5.6h0.8
		c-1.6-0.8-2.4-2.8-2.4-2.8c-1.6-4,0.4-4.4,0.4-4.4c3.2-0.4,2.4,2.4,2.4,2.4c1.2,0.4,2.8,0.4,2.8,0.4c-0.8-0.4-1.2-0.8-1.2-0.8
		c-1.2-1.2,0.8-3.2,0.8-3.2c-0.8,0.8-4.4,0.8-4.4,0.8c-1.6,0-0.4-2-0.4-2l0.8,0.4c0-0.4,0.8-2.8,0.8-2.8
		C200.8,270.4,200,272,200,272.4z"/>
	<path style="fill:#FFD05B;" d="M187.2,278c0,0,0.8,0.4,1.6,2.8c0,0,0.4,0.4,0.4,1.2c0.4,0.8,1.2,1.2,2,0.8c1.2-0.4,2.4-0.8,3.6-0.4
		c0,0,1.2,0,2,0s1.2-0.4,0.8-1.2c-0.4-0.8-1.2-2-2.8-2.4c0,0-2-0.4-2.8,0c0,0,3.2-1.2,4.8,0.8c0,0,2,2,0.4,2.8c0,0-4.8,0-5.2,0.4
		c0,0-2,0.8-2.8-0.4c0,0-0.4-2-2.4-1.6c0,0,0.8-0.4,1.6-0.4C188.4,280.4,188,279.2,187.2,278z"/>
	<path style="fill:#FFD05B;" d="M191.6,282.8c0.4,0.8-0.8,3.6-0.8,3.6c0.4-0.4,0.8-0.8,0.8-0.8c0.4,0.4,0.4,0.4,0.8,0.8
		c-0.4-1.2,0-3.2,0-3.2h-0.8V282.8z"/>
	<path style="fill:#FFD05B;" d="M196,284.8C196.4,284.8,196.4,284.4,196,284.8c0.4-0.4,0.4-0.4,0.4-0.4c-0.4-0.8-0.4-2.4-0.4-2.4
		h-0.8C195.2,283.6,196,284.8,196,284.8z"/>
</g>
<rect x="192" y="250.4" style="fill:#FFFFFF;" width="15.6" height="10.8"/>
<g>
	<path style="fill:#324A5E;" d="M319.2,256.8h-22c0,0-0.4-56,2.4-66.8c0,0,0.8-11.2-1.6-19.6c4-33.6,13.6-63.6,13.6-64
		C311.6,106.4,322.4,134,319.2,256.8z"/>
	<path style="fill:#324A5E;" d="M188.4,256.8h22c0,0,0.4-56-2.4-66.8c0,0-0.8-11.2,1.6-19.6c-4-33.6-13.6-63.6-13.6-64
		C196,106.4,184.8,134,188.4,256.8z"/>
</g>
<ellipse style="fill:#F9B54C;" cx="254" cy="81.6" rx="14.4" ry="15.6"/>
<g>
	<path style="fill:#FFFFFF;" d="M267.6,78.4c0,0,2.8,13.6-14,18.4c0,0,9.6,2,13.6,13.6C267.6,110.4,278.4,92.8,267.6,78.4z"/>
	<path style="fill:#FFFFFF;" d="M240,78.4c0,0-2.8,13.6,14,18.4c0,0-9.6,2-13.6,13.6C240.4,110.4,229.2,92.8,240,78.4z"/>
</g>
<path style="fill:#FFD05B;" d="M274,66.8c-2,6-2.8,9.2-2.8,10l0,0c-4.4,6.4-10.4,10.4-16.8,10.4c-6,0-11.6-3.6-16-9.2
	c-9.6-11.6-2.8-33.2-2.8-33.2c4.8,5.6,20,5.6,20,5.6c-6.4-0.8-7.6-6-7.6-6.4c1.2,3.2,16,5.2,16,5.2C279.2,52,274,66.8,274,66.8z"/>
<path style="fill:#324A5E;" d="M245.2,22.4c0,0,20.8-8.4,31.6,10.8c11.2,20.4-2.8,42.4-6,44c0,0,0.8-3.6,2.8-10.4
	c0,0,5.2-15.2-10.4-17.2c0,0-14.8-2-16-5.2c0,0,1.2,5.6,7.6,6.4c0,0-15.2-0.4-20-5.6c0,0-6.4,21.6,2.8,33.2c0,0-16.4-13.2-14.4-33.6
	C224,44.8,222.8,16.8,245.2,22.4z"/>
<g>
</g>
<g>
</g>
<g>
</g>
<g>
</g>
<g>
</g>
<g>
</g>
<g>
</g>
<g>
</g>
<g>
</g>
<g>
</g>
<g>
</g>
<g>
</g>
<g>
</g>
<g>
</g>
<g>
</g>
</svg>
