<?xml version="1.0" encoding="iso-8859-1"?>
<!-- Generator: Adobe Illustrator 19.0.0, SVG Export Plug-In . SVG Version: 6.00 Build 0)  -->
<svg version="1.1" id="Layer_1" xmlns="http://www.w3.org/2000/svg" xmlns:xlink="http://www.w3.org/1999/xlink" x="0px" y="0px"
	 viewBox="0 0 508 508" style="enable-background:new 0 0 508 508;" xml:space="preserve">
<circle style="fill:#84DBFF;" cx="254" cy="254" r="254"/>
<path style="fill:#54C0EB;" d="M10,184c-6.4,22.4-10,45.6-10,70c0,140.4,113.6,254,254,254s254-113.6,254-254c0-24.4-3.6-47.6-10-70
	H10z"/>
<g>
	<path style="fill:#84DBFF;" d="M221.6,386.4c0,0,10-8.8,31.2,0.8c21.2,10,37.6,2.4,37.6,2.4s-19.2,0.8-32.4-7.6
		c-4-2.4-8.4-4.4-12.8-4.8C238.4,377.2,230,378.4,221.6,386.4z"/>
	<path style="fill:#84DBFF;" d="M98.4,406.8c0,0,11.6-10.4,36.8,1.2s44.4,2.8,44.4,2.8s-22.8,1.2-38.4-8.8
		c-4.8-2.8-9.6-4.8-15.2-5.6C118.8,395.6,108.4,397.2,98.4,406.8z"/>
	<path style="fill:#84DBFF;" d="M227.6,445.6c0,0,13.2-11.6,41.2,1.2s49.6,3.2,49.6,3.2s-25.6,1.2-42.8-9.6
		c-5.2-3.2-10.8-5.6-16.8-6C250,433.2,238.8,435.2,227.6,445.6z"/>
</g>
<g>
	<path style="fill:#FFFFFF;" d="M236.4,102c0.4-1.2,0.8-2.8,0.8-4c0-5.6-3.6-10.4-8.8-12c0.4-1.6,0.8-3.2,0.8-4.8
		c0-9.2-7.6-16.8-16.8-16.8c-4,0-7.6,1.2-10.4,3.6c-3.6-4.8-9.6-8.4-16-8.4c-11.2,0-20,8.8-20,20c0,2.4,0.4,4.8,1.2,6.8
		c-4.4,2-7.6,6.4-7.6,11.6c0,1.6,0.4,2.8,0.8,4C160.4,102,236.4,102,236.4,102z"/>
	<path style="fill:#FFFFFF;" d="M392,132.4c0.4-0.8,0.4-2,0.4-3.2c0-4.4-2.8-7.6-6.4-9.2c0.4-1.2,0.4-2.4,0.4-3.6
		c0-7.2-5.6-12.8-12.8-12.8c-2.8,0-5.6,0.8-7.6,2.8c-2.8-3.6-7.2-6.4-12-6.4c-8.4,0-15.2,6.8-15.2,15.2c0,2,0.4,3.6,0.8,5.2
		c-3.2,1.6-5.6,4.8-5.6,8.8c0,1.2,0,2,0.4,3.2H392z"/>
</g>
<g>
	<path style="fill:#324A5E;" d="M192.8,236c-13.2-16.8-2.4-18.8-2.4-18.8c9.6-7.6,15.2,0.8,15.2,0.8s-0.8,2.4-4.4,0.8
		c-4-1.6-1.2,4.8-1.2,4.8h-1.6c0,0-1.6,2,0.4,4l-1.6,0.4c-0.4-2.8-6-4.8-3.6,2c0,0,3.6,4,0.8,5.6C194.4,235.6,193.2,236.4,192.8,236
		z"/>
	<path style="fill:#324A5E;" d="M81.6,236c-13.2-16.8-2.4-18.8-2.4-18.8c9.6-7.6,15.2,0.8,15.2,0.8s-0.4,2.4-4.4,0.8
		c-4-1.6-1.2,4.8-1.2,4.8h-1.6c0,0-1.6,2,0.4,4l-1.6,0.8c-0.4-2.8-6-4.8-3.6,2c0,0,3.6,4,0.8,5.6C83.2,235.6,82,236.4,81.6,236z"/>
</g>
<g>
	<path style="fill:#84DBFF;" d="M396.4,220c0,0,4-3.6,12.4,0.4s14.8,0.8,14.8,0.8s-7.6,0.4-12.8-2.8c-1.6-0.8-3.2-1.6-5.2-2
		C403.2,216.4,400,216.8,396.4,220z"/>
	<path style="fill:#84DBFF;" d="M380,229.6c0,0-7.6,3.6-17.6-1.2c-4.8-2.4-8.4-2.4-10.8-2l6-2.4c0,0,0.4,0,1.6,0c2,0.4,4,0.8,5.6,2
		C371.2,230,380,229.6,380,229.6z"/>
	<path style="fill:#84DBFF;" d="M153.2,229.6c0,0-7.6,3.6-17.6-1.2c-4.8-2.4-8.4-2.4-10.8-2l6-2.4c0,0,0.4,0,1.6,0
		c2,0.4,4,0.8,5.6,2C144.4,230,153.2,229.6,153.2,229.6z"/>
	<path style="fill:#84DBFF;" d="M398.8,243.6c0,0,5.2-4.8,16.4,0.4c11.2,5.2,19.6,1.2,19.6,1.2s-10,0.4-16.8-4c-2-1.2-4.4-2-6.8-2.4
		C407.6,238.4,403.2,239.2,398.8,243.6z"/>
	<path style="fill:#84DBFF;" d="M154.8,220c0,0,4-3.6,12.4,0.4s14.8,0.8,14.8,0.8s-7.6,0.4-12.8-2.8c-1.6-0.8-3.2-1.6-5.2-2
		C161.6,216.4,158.4,216.8,154.8,220z"/>
	<path style="fill:#84DBFF;" d="M157.2,243.6c0,0,5.2-4.8,16.4,0.4s19.6,1.2,19.6,1.2s-10,0.4-16.8-4c-2-1.2-4.4-2-6.8-2.4
		C166.4,238.4,161.6,239.2,157.2,243.6z"/>
</g>
<path style="fill:#E6E9EE;" d="M320,268c0,0,7.6,8.4,20.4,12c0,0,10-2.4,8.8,5.6c0,0-4.8,6-11.6-0.8c0,0-14-2.4-15.6-5.2L320,268z"
	/>
<path style="fill:#FFFFFF;" d="M332.4,297.2H312l-13.6-35.6c-2.4-6.4-1.6-13.6,2.4-19.6l7.6,1.6c9.2,2,16,9.6,17.2,18.8L332.4,297.2
	z"/>
<g>
	<path style="fill:#E6E9EE;" d="M127.6,285.6c0,0-4.8,6-11.6-0.8c0,0-3.6-0.8-7.6-1.6l-1.6-8.8c3.2,2,7.6,4,12.4,5.6
		C118.8,280,128.8,277.6,127.6,285.6z"/>
	<path style="fill:#E6E9EE;" d="M238.8,285.6c0,0-4.8,6-11.6-0.8c0,0-4-0.8-7.6-1.6l-1.6-8.8c3.2,2,7.6,4,12.4,5.6
		C230,280,240,277.6,238.8,285.6z"/>
</g>
<path style="fill:#FFD05B;" d="M208.8,232.4c0,0,3.6,3.6,0,4.4c0,0-2.8,1.2-3.2,1.2c0,0.4,1.2,3.6-0.8,7.6
	c-4.4-1.2-9.2-5.6-11.2-7.2c0-0.8-0.4-1.6-0.8-2.4c0.4,0,1.2-0.4,1.2-0.4c2.8-1.6-0.8-5.6-0.8-5.6c-2.4-6.8,3.6-4.4,3.6-2l1.6-0.4
	c-2-2-0.4-4-0.4-4l1.6-0.4c0,0-2.8-6.4,1.2-4.8c2,0.8,3.2,0.8,3.6,0.4c0.4,1.6,1.6,4.8,2.8,5.6l2.8,2.8l-2,1.2l0.4,1.6
	c0,0,0.4,0.4,0,1.2C208.8,231.2,209.6,231.6,208.8,232.4z"/>
<path style="fill:#FFFFFF;" d="M222,297.2h-20.4L188,261.6c-2.4-6.4-1.6-13.6,2.4-19.6h0.8c0-1.2,0.4-3.2,2-4.4c0,0,6.8,6.4,12.4,8
	c0,0,0.4,0.8,0.4,1.6c4.8,3.6,8.4,8.8,9.2,15.2L222,297.2z"/>
<path style="fill:#FF7058;" d="M19.2,297.2l12,16.4c18,24.4,45.2,38.4,74.4,38.4h297.2c29.2,0,56.4-14.4,74.4-38.4l12-16.4H19.2z"/>
<rect x="240.432" y="194.456" transform="matrix(-0.8144 -0.5803 0.5803 -0.8144 282.8226 632.9662)" style="fill:#FFD05B;" width="4.4" height="153.6"/>
<g>
	<path style="fill:#E6E9EE;" d="M180,363.2l-4-2.8c-4.4-3.2-3.2-11.6,2.4-17.2l10-10c4-4,8.8-5.2,12-2.8l0,0c3.2,2,3.6,7.2,1.2,12.4
		l-6,12.8C192.4,362.4,184.4,366.4,180,363.2z"/>
	<path style="fill:#E6E9EE;" d="M188.8,258.4c0,0,14.4,10.8,34.8,11.2l24-10c0,0,6.4,0,9.6-1.6c0,0,2.8-5.6,2-8
		c0,0-9.6,0.8-14.8,4.8c0,0-22.4,6-25.2,4.8L196,246C184.4,249.6,188.8,258.4,188.8,258.4z"/>
</g>
<path style="fill:#FFD05B;" d="M314.8,217.6c0,0,1.2,5.6,3.2,7.2l2.8,2.8l-2,1.2l0.4,1.6c0,0,0.4,0.4,0,1.2c0,0,0.4,0.4,0,0.8
	c0,0,3.6,3.6,0,4.4c0,0-3.2,1.2-3.2,0.8c0,0,1.2,3.6-0.8,8.4c0,0-9.6-3.6-10.8-6c0,0-0.8-4.4-2-6.8c0,0-4-8,2-12c0,0,5.2-6,8.8-4
	L314.8,217.6z"/>
<path style="fill:#FFFFFF;" d="M303.6,237.6c0,0,6.8,6.4,12.4,8c0,0,0.8,3.2,1.6,4.4l-16-6C301.6,243.6,301.2,239.6,303.6,237.6z"/>
<rect x="350.814" y="194.469" transform="matrix(-0.8144 -0.5803 0.5803 -0.8144 483.0918 697.0447)" style="fill:#FFD05B;" width="4.4" height="153.6"/>
<g>
	<path style="fill:#E6E9EE;" d="M290.4,363.2l-4-2.8c-4.4-3.2-3.2-11.6,2.4-17.2l10-10c4-4,8.8-5.2,12-2.8l0,0
		c3.2,2,3.6,7.2,1.2,12.4l-6,12.4C302.8,362.4,294.8,366.4,290.4,363.2z"/>
	<path style="fill:#E6E9EE;" d="M299.2,258.4c0,0,14.4,10.8,34.8,11.2l24-10c0,0,6.4,0,9.6-1.6c0,0,2.8-5.6,2-8
		c0,0-9.6,0.8-14.8,4.8c0,0-22.4,6-25.2,4.8L306.4,246C294.8,249.6,299.2,258.4,299.2,258.4z"/>
</g>
<path style="fill:#FFD05B;" d="M97.6,232.4c0,0,3.6,3.6,0,4.4c0,0-2.8,1.2-3.2,1.2c0,0.4,1.2,3.6-0.8,7.6c-4.4-1.2-9.2-5.2-11.2-6.8
	l0,0c0-0.8-0.4-1.6-0.8-2.4c0.4,0,1.2-0.4,1.2-0.4c2.8-1.6-0.8-6-0.8-6c-2.4-6.8,3.6-4.4,3.6-2l1.6-0.4c-2-2-0.4-4-0.4-4l1.6-0.4
	c0,0-2.8-6.4,1.2-4.8c2,0.8,3.2,0.8,3.6,0.4c0.4,1.6,1.6,4.8,2.8,5.6l2.8,2.8l-2,1.2l0.4,1.6c0,0,0.4,0.4,0,1.2
	C97.6,231.2,98.4,231.6,97.6,232.4z"/>
<path style="fill:#FFFFFF;" d="M110.8,297.2H90.4l-13.6-35.6c-2.4-6.4-1.6-13.6,2.4-19.6H80c0-1.2,0.4-3.2,2-4.4c0,0,6.8,6.4,12.4,8
	c0,0,0.4,0.8,0.4,1.6c4.8,3.6,8.4,8.8,9.2,15.2L110.8,297.2z"/>
<rect x="129.219" y="194.458" transform="matrix(-0.8144 -0.5803 0.5803 -0.8144 81.0355 568.4338)" style="fill:#FFD05B;" width="4.4" height="153.6"/>
<g>
	<path style="fill:#E6E9EE;" d="M68.8,363.2l-4-2.8c-4.4-3.2-3.2-11.6,2.4-17.2l10-10c4-4,8.8-5.2,12-2.8l0,0
		c3.2,2,3.6,7.2,1.2,12.4l-6,12.8C81.2,362.4,73.2,366.4,68.8,363.2z"/>
	<path style="fill:#E6E9EE;" d="M77.6,258.4c0,0,14.4,10.8,34.8,11.2l24-10c0,0,6.4,0,9.6-1.6c0,0,2.8-5.6,2-8c0,0-9.6,0.8-14.8,4.8
		c0,0-22.4,6-25.2,4.8L84.8,246C73.2,249.6,77.6,258.4,77.6,258.4z"/>
</g>
<path style="fill:#324A5E;" d="M303.2,236c-13.2-16.8-2.4-18.8-2.4-18.8c9.6-7.6,15.2,0.8,15.2,0.8s-0.8,2.4-4.4,0.8
	c-4-1.6-1.2,4.8-1.2,4.8h-1.6c0,0-1.6,2,0.4,4l-1.6,0.4c-0.4-2.8-6-4.8-3.6,2c0,0,3.6,4,0.8,5.6C304.4,235.6,303.6,236.4,303.2,236z
	"/>
<g>
</g>
<g>
</g>
<g>
</g>
<g>
</g>
<g>
</g>
<g>
</g>
<g>
</g>
<g>
</g>
<g>
</g>
<g>
</g>
<g>
</g>
<g>
</g>
<g>
</g>
<g>
</g>
<g>
</g>
</svg>
