<svg id="Layer_5" enable-background="new 0 0 64 64" height="512" viewBox="0 0 64 64" width="512" xmlns="http://www.w3.org/2000/svg"><g><g><g><circle cx="9" cy="55" fill="#ff826e" r="7"/></g><g><circle cx="55" cy="9" fill="#ff826e" r="7"/></g><g><path d="m9 4 5 9h-5-5z" fill="#b4dd7f"/></g><g><path d="m60 51-5 9-5-9h5z" fill="#b4dd7f"/></g><g><path d="m51 29v6l-2.45.82c-.42 1.86-1.16 3.61-2.15 5.18l1.16 2.31-4.25 4.25-2.31-1.16c-1.57.99-3.32 1.73-5.18 2.15l-.82 2.45h-6l-.82-2.45c-1.86-.42-3.61-1.16-5.18-2.15l-2.31 1.16-4.25-4.25 1.16-2.31c-.99-1.57-1.73-3.32-2.15-5.18l-2.45-.82v-6l2.45-.82c.42-1.86 1.16-3.61 2.15-5.18l-1.16-2.31 4.25-4.25 2.31 1.16c1.57-.99 3.32-1.73 5.18-2.15l.82-2.45h6l.82 2.45c1.86.42 3.61 1.16 5.18 2.15l2.31-1.16 4.25 4.25-1.16 2.31c.99 1.57 1.73 3.32 2.15 5.18z" fill="#fcd770"/></g><g><path d="m45 32c0 3.59-1.46 6.84-3.81 9.19s-5.6 3.81-9.19 3.81-6.84-1.46-9.19-3.81-3.81-5.6-3.81-9.19 1.46-6.84 3.81-9.19 5.6-3.81 9.19-3.81 6.84 1.46 9.19 3.81 3.81 5.6 3.81 9.19z" fill="#69d6f4"/></g><g><path d="m32 30c1.1 0 2 .9 2 2s-.9 2-2 2-2-.9-2-2c0-.55.22-1.05.59-1.41.36-.37.86-.59 1.41-.59z" fill="#e6e9ed"/></g></g><g><path d="m55 17c4.411 0 8-3.589 8-8s-3.589-8-8-8-8 3.589-8 8 3.589 8 8 8zm0-14c3.309 0 6 2.691 6 6s-2.691 6-6 6-6-2.691-6-6 2.691-6 6-6z"/><path d="m59.707 6.707-1.414-1.414-5.293 5.293-1.293-1.293-1.414 1.414 2.707 2.707z"/><path d="m32 18c-7.72 0-14 6.28-14 14s6.28 14 14 14 14-6.28 14-14-6.28-14-14-14zm11.949 15c-.213 2.558-1.226 4.888-2.795 6.741l-1.376-1.376-1.414 1.414 1.376 1.376c-1.852 1.569-4.183 2.582-6.741 2.795v-1.95h-2v1.949c-2.558-.213-4.888-1.226-6.741-2.795l1.376-1.376-1.414-1.414-1.376 1.376c-1.569-1.852-2.582-4.183-2.795-6.741h1.951v-2h-1.949c.213-2.558 1.226-4.888 2.795-6.741l1.376 1.376 1.414-1.414-1.376-1.376c1.852-1.569 4.183-2.582 6.741-2.795v1.951h2v-1.949c2.558.213 4.888 1.226 6.741 2.795l-1.376 1.376 1.414 1.414 1.376-1.376c1.569 1.852 2.582 4.183 2.795 6.741h-1.951v2h1.949z"/><path d="m32 29c-.462 0-.894.113-1.285.301l-3.008-3.008-1.414 1.414 3.008 3.008c-.188.391-.301.823-.301 1.285 0 1.302.839 2.402 2 2.816v2.184h2v-2.184c1.161-.414 2-1.514 2-2.816 0-1.654-1.346-3-3-3zm0 4c-.551 0-1-.449-1-1s.449-1 1-1 1 .449 1 1-.449 1-1 1z"/><path d="m47.542 41.049c.819-1.403 1.44-2.899 1.851-4.46l2.607-.868v-7.441l-2.606-.869c-.411-1.561-1.032-3.057-1.851-4.46l1.23-2.461-5.261-5.262-2.462 1.231c-1.403-.82-2.899-1.44-4.46-1.852l-.869-2.607h-7.441l-.869 2.606c-1.561.411-3.057 1.032-4.46 1.851l-2.461-1.23-5.262 5.262 1.23 2.461c-.819 1.403-1.44 2.899-1.851 4.46l-2.607.869v7.441l2.606.869c.411 1.561 1.032 3.057 1.851 4.46l-1.23 2.461 5.262 5.262 2.461-1.23c1.403.819 2.899 1.44 4.46 1.851l.869 2.607h7.441l.869-2.606c1.561-.411 3.057-1.032 4.46-1.852l2.462 1.231 5.261-5.262zm-4.426 5.29-2.168-1.083-.476.298c-1.514.949-3.156 1.63-4.881 2.026l-.547.125-.765 2.295h-4.559l-.765-2.294-.547-.125c-1.725-.396-3.367-1.078-4.881-2.026l-.476-.298-2.168 1.083-3.223-3.223 1.083-2.168-.298-.476c-.949-1.514-1.63-3.156-2.026-4.881l-.125-.547-2.294-.766v-4.559l2.294-.765.125-.547c.396-1.725 1.078-3.367 2.026-4.881l.298-.476-1.083-2.168 3.223-3.223 2.168 1.083.476-.298c1.514-.949 3.156-1.63 4.881-2.026l.547-.125.766-2.294h4.559l.765 2.294.547.125c1.725.396 3.367 1.078 4.881 2.026l.476.298 2.168-1.083 3.223 3.223-1.083 2.168.298.476c.949 1.514 1.63 3.156 2.026 4.881l.125.547 2.294.766v4.559l-2.294.765-.125.547c-.396 1.725-1.078 3.367-2.026 4.881l-.298.476 1.083 2.168z"/><path d="m54 23h2v2h-2z"/><path d="m54 19h2v2h-2z"/><path d="m56 27h-2v23h-5.7l6.7 12.059 6.7-12.059h-5.7zm-1 30.941-3.3-5.941h6.6z"/><path d="m9 47c-4.411 0-8 3.589-8 8s3.589 8 8 8 8-3.589 8-8-3.589-8-8-8zm0 14c-3.309 0-6-2.691-6-6s2.691-6 6-6 6 2.691 6 6-2.691 6-6 6z"/><path d="m7 56.586-1.293-1.293-1.414 1.414 2.707 2.707 6.707-6.707-1.414-1.414z"/><path d="m8 39h2v2h-2z"/><path d="m8 43h2v2h-2z"/><path d="m8 37h2v-23h5.7l-6.7-12.059-6.7 12.059h5.7zm1-30.941 3.3 5.941h-6.6z"/></g></g></svg>