<svg id="Layer_1" enable-background="new 0 0 128 128" height="512" viewBox="0 0 128 128" width="512" xmlns="http://www.w3.org/2000/svg"><g><g fill="#e6e7e8"><path d="m106.845 27.021c-10.781-11.298-25.294-17.521-40.864-17.521-19.435 0-37.732 10.203-47.999 26.696l-2.954-1.783c-.34-.204-.768-.19-1.094.04-.324.229-.482.628-.402 1.018l2.956 14.425c.056.273.224.511.463.655s.528.183.795.104l14.14-4.106c.381-.11.661-.437.713-.83.051-.394-.135-.781-.475-.986l-3.003-1.812c7.926-12.622 21.957-20.421 36.86-20.421 12.045 0 23.667 5.081 31.886 13.94 8.328 8.977 12.407 20.662 11.488 32.902-1.594 21.229-18.805 38.438-40.033 40.032-11.893.885-23.336-2.969-32.22-10.871-8.906-7.921-14.085-18.808-14.583-30.653-.067-1.598-1.381-2.85-2.992-2.85h-7.008c-.819 0-1.582.325-2.15.914-.569.592-.878 1.405-.848 2.231.568 15.14 7.053 29.149 18.26 39.449 10.519 9.669 23.988 14.906 38.186 14.906.9 0 1.805-.021 2.711-.063 28.786-1.346 52.392-24.95 53.74-53.736.729-15.591-4.801-30.392-15.573-41.68z"/><path d="m75.179 55.554c.129.375.469.639.865.671l14.677 1.185c.278.024.554-.072.759-.262s.322-.456.322-.735v-14.725c0-.397-.235-.757-.599-.916-.364-.158-.788-.089-1.08.181l-2.423 2.236c-5.884-5.614-13.555-8.689-21.72-8.689-.029 0-.059 0-.088 0-16.478.046-30.244 12.938-31.339 29.353-.588 8.812 2.405 17.212 8.429 23.65 5.943 6.354 14.327 9.997 23 9.997 16.478 0 30.281-12.867 31.423-29.293.058-.823-.234-1.643-.799-2.249-.569-.608-1.372-.958-2.203-.958h-7.023c-1.553 0-2.834 1.176-2.98 2.736-.927 9.916-9.471 17.272-19.426 16.736-9.298-.493-16.971-8.165-17.467-17.463-.273-5.129 1.521-10.005 5.052-13.729 3.534-3.729 8.301-5.781 13.421-5.781 4.486 0 8.75 1.606 12.119 4.545l-2.654 2.447c-.291.271-.396.688-.266 1.063z"/></g><g><path d="m61.981 6.5c-19.487 0-37.672 10.354-47.663 27.067l-3.806-2.297 2.956 14.424 14.14-4.106-3.865-2.333c8.007-13.428 22.596-21.755 38.238-21.755 25.668 0 46.329 21.844 44.371 47.918-1.634 21.757-19.199 39.321-40.956 40.953-25.429 1.909-46.834-17.698-47.876-42.478-.044-1.062-.93-1.893-1.993-1.893h-7.009c-1.147 0-2.041.962-1.998 2.109 1.145 30.5 27.021 54.783 58.111 53.329 28.405-1.329 51.457-24.38 52.787-52.785 1.489-31.803-23.955-58.153-55.437-58.153z" fill="#0089ef"/><g><path d="m61.981 6.5c-.611 0-1.221.01-1.83.031 30.938.646 55.738 26.716 54.267 58.123-1.33 28.405-24.382 51.456-52.787 52.785-.383.018-.762.014-1.144.024 1.371.037 2.75.041 4.144-.024 28.405-1.329 51.457-24.38 52.787-52.785 1.489-31.804-23.955-58.154-55.437-58.154z" fill="#fff"/></g><path d="m81.396 63.829c-.957 10.241-9.867 18.207-20.474 17.643-9.833-.523-17.888-8.577-18.412-18.41-.6-11.232 8.366-20.562 19.471-20.562 5.132 0 9.934 1.975 13.594 5.545l-3.45 3.183 14.677 1.184v-14.724l-3.123 2.882c-5.795-5.868-13.526-9.092-21.783-9.069-15.867.043-29.29 12.588-30.346 28.418-1.185 17.755 12.924 32.581 30.431 32.581 16.099 0 29.325-12.539 30.426-28.363.08-1.155-.846-2.137-2.004-2.137h-7.023c-1.037 0-1.888.796-1.984 1.829z" fill="#fa759e"/><g fill="#3a2c60"><path d="m102.845 23.021c-10.781-11.298-25.294-17.521-40.864-17.521-19.435 0-37.732 10.203-47.999 26.696l-2.954-1.783c-.339-.204-.769-.189-1.094.04-.324.229-.482.628-.402 1.018l2.956 14.425c.056.273.224.511.463.655.24.144.528.185.795.104l14.14-4.106c.381-.11.661-.437.713-.83.051-.394-.135-.781-.475-.986l-3.003-1.812c7.926-12.622 21.957-20.421 36.86-20.421 12.045 0 23.667 5.081 31.886 13.94 8.328 8.977 12.407 20.662 11.488 32.902-1.594 21.229-18.805 38.438-40.033 40.032-11.893.889-23.336-2.969-32.22-10.871-8.906-7.921-14.085-18.808-14.583-30.653-.067-1.598-1.381-2.85-2.992-2.85h-7.008c-.819 0-1.582.325-2.15.914-.569.592-.878 1.405-.848 2.231.568 15.14 7.053 29.149 18.26 39.449 10.519 9.669 23.988 14.906 38.186 14.906.9 0 1.805-.021 2.711-.063 28.786-1.346 52.392-24.95 53.74-53.736.729-15.591-4.801-30.392-15.573-41.68zm13.574 41.585c-1.3 27.767-24.069 50.534-51.835 51.832-14.654.684-28.659-4.398-39.45-14.316-10.811-9.936-17.067-23.45-17.614-38.051-.011-.291.092-.564.289-.77.187-.194.44-.301.71-.301h7.008c.536 0 .972.41.994.935.521 12.393 5.938 23.779 15.251 32.064 9.292 8.266 21.259 12.297 33.699 11.37 22.207-1.666 40.21-19.669 41.878-41.876.961-12.803-3.306-25.023-12.017-34.413-8.596-9.266-20.752-14.58-33.351-14.58-15.934 0-30.916 8.522-39.098 22.243-.282.472-.129 1.084.342 1.368l1.911 1.153-10.907 3.167-2.28-11.126 1.852 1.117c.228.137.5.177.759.114.258-.064.479-.229.616-.458 9.801-16.393 27.735-26.578 46.805-26.578 15.018 0 29.017 6.002 39.418 16.901 10.39 10.889 15.725 25.167 15.02 40.205z"/><path d="m86.074 79.005c-2.015 2.845-4.489 5.292-7.354 7.274-.454.314-.568.937-.253 1.392.194.28.506.431.823.431.196 0 .395-.058.568-.178 3.059-2.115 5.699-4.728 7.849-7.763.319-.451.213-1.075-.238-1.395-.453-.318-1.076-.212-1.395.239z"/><path d="m71.179 51.554c.129.375.469.639.865.671l14.676 1.185c.279.024.554-.072.759-.262s.322-.456.322-.735v-14.725c0-.397-.235-.757-.599-.916s-.787-.089-1.08.181l-2.423 2.236c-5.884-5.614-13.554-8.689-21.719-8.689-.029 0-.059 0-.088 0-16.478.046-30.244 12.938-31.339 29.353-.588 8.812 2.405 17.212 8.429 23.65 5.943 6.354 14.327 9.997 23 9.997 4.359 0 8.583-.878 12.555-2.61.506-.221.737-.811.517-1.316-.221-.507-.809-.737-1.316-.518-3.718 1.622-7.673 2.444-11.755 2.444-8.122 0-15.972-3.413-21.539-9.363-5.641-6.03-8.444-13.896-7.894-22.151 1.026-15.369 13.918-27.442 29.35-27.485h.083c7.948 0 15.398 3.113 20.987 8.772.379.383.994.396 1.39.032l1.445-1.334v11.357l-11.32-.914 1.772-1.634c.202-.187.318-.447.322-.722s-.105-.538-.302-.729c-3.858-3.759-8.934-5.829-14.296-5.829-5.675 0-10.957 2.274-14.873 6.405-3.912 4.126-5.9 9.528-5.597 15.211.55 10.305 9.053 18.807 19.357 19.354 11.035.575 20.497-7.561 21.523-18.549.049-.525.475-.921.989-.921h7.023c.283 0 .545.114.739.322.191.205.286.47.267.746-.263 3.772-1.233 7.406-2.886 10.802-.242.496-.035 1.095.461 1.337.494.24 1.095.034 1.336-.462 1.766-3.627 2.803-7.509 3.083-11.538.058-.823-.234-1.643-.799-2.249-.567-.608-1.37-.958-2.201-.958h-7.023c-1.553 0-2.834 1.176-2.98 2.736-.927 9.916-9.467 17.27-19.426 16.736-9.298-.493-16.971-8.165-17.467-17.463-.273-5.129 1.521-10.005 5.052-13.729 3.534-3.729 8.301-5.781 13.421-5.781 4.486 0 8.75 1.606 12.119 4.545l-2.653 2.447c-.291.271-.396.688-.267 1.063z"/></g></g></g></svg>