<?xml version="1.0" encoding="iso-8859-1"?>
<!-- Generator: Adobe Illustrator 19.0.0, SVG Export Plug-In . SVG Version: 6.00 Build 0)  -->
<svg version="1.1" id="Layer_1" xmlns="http://www.w3.org/2000/svg" xmlns:xlink="http://www.w3.org/1999/xlink" x="0px" y="0px"
	 viewBox="0 0 511.993 511.993" style="enable-background:new 0 0 511.993 511.993;" xml:space="preserve">
<circle style="fill:#E9E4D8;" cx="255.997" cy="255.997" r="255.997"/>
<g>
	<path style="fill:#F0A037;" d="M57.906,305.7c-8.301,17.55-15.549,43.027-3.026,64.722c11.537,19.981,36.094,30.264,70.198,30.264
		c14.917,0,31.652-1.962,49.939-5.955c-1.139-3.562-2.231-7.218-3.293-10.971c-1.12-3.974-2.183-8.004-3.188-12.111
		c-47.201,10.025-82.301,5.209-92.928-13.193c-7.344-12.724-1.915-30.15,3.935-42.529L57.906,305.7z"/>
	<path style="fill:#F0A037;" d="M78.892,272.104l18.985,14.572c3.877-5.045,8.148-10.158,12.762-15.29
		c-3.045-2.92-6.012-5.859-8.885-8.817c-2.719-2.796-5.343-5.573-7.86-8.349C88.466,260.195,83.44,266.178,78.892,272.104z"/>
</g>
<path style="fill:#32AACE;" d="M54.88,138.017c16.602-28.723,60.069-37.407,120.147-24.309c-1.149,3.571-2.25,7.238-3.303,10.982
	c-1.12,3.964-2.183,8.004-3.188,12.101c-47.191-10.024-82.291-5.209-92.928,13.194c-10.627,18.411,2.767,51.213,35.042,87.078
	c2.624,2.92,5.381,5.859,8.253,8.808c2.719,2.796,5.534,5.592,8.425,8.349c8.75,8.415,18.258,16.688,28.454,24.778
	c0.383,8.885,0.986,17.693,1.8,26.358c0.172,1.819,0.344,3.629,0.536,5.428c-17.463-12.648-33.366-25.851-47.479-39.398
	c-3.045-2.92-6.012-5.859-8.885-8.817c-2.719-2.796-5.343-5.573-7.86-8.349C52.524,208.732,38.297,166.75,54.88,138.017z"/>
<path style="fill:#F0A037;" d="M110.649,237.063c2.624,2.92,5.381,5.859,8.253,8.808c2.719,2.796,5.534,5.592,8.425,8.349
	c8.75-8.406,18.258-16.688,28.454-24.778c0.383-8.885,0.986-17.693,1.8-26.358c0.172-1.82,0.354-3.639,0.536-5.447
	C140.656,210.293,124.743,223.505,110.649,237.063z"/>
<g>
	<path style="fill:#EB305B;" d="M157.583,203.084c-0.814,8.664-1.417,17.473-1.8,26.358c6.596-5.246,13.48-10.407,20.632-15.472
		c0.124-0.087,0.24-0.172,0.354-0.259c1.379-0.976,2.767-1.953,4.165-2.91c0.153-1.839,0.306-3.667,0.479-5.486
		c0.824-8.742,1.858-17.291,3.102-25.631c-7.526,4.797-14.859,9.728-21.944,14.754c-0.114,0.077-0.23,0.163-0.335,0.25
		c-1.379,0.976-2.757,1.962-4.117,2.949C157.937,199.446,157.755,201.264,157.583,203.084z"/>
	<path style="fill:#EB305B;" d="M168.536,136.791c1.005-4.098,2.069-8.138,3.188-12.101c1.053-3.744,2.154-7.41,3.303-10.982
		c5.065-15.845,10.972-30.024,17.616-42.261l21.035,11.423c-5.745,10.579-10.915,22.91-15.405,36.755
		c-1.226,3.743-2.394,7.601-3.514,11.565c-1.063,3.753-2.077,7.582-3.026,11.471c-2.901,11.766-5.314,24.136-7.219,37.024
		c-7.526,4.797-14.859,9.728-21.944,14.754c-0.114,0.077-0.23,0.163-0.335,0.25c-1.379,0.976-2.757,1.962-4.117,2.949
		C160.369,176.161,163.844,155.768,168.536,136.791z"/>
	<path style="fill:#EB305B;" d="M155.783,229.442c6.596-5.246,13.48-10.407,20.632-15.472c0.124-0.087,0.24-0.172,0.354-0.259
		c1.379-0.976,2.767-1.953,4.165-2.91c-1.168,14.208-1.762,28.79-1.762,43.419c0,14.64,0.594,29.21,1.762,43.419
		c0.153,1.839,0.306,3.667,0.479,5.486c0.814,8.742,1.848,17.291,3.092,25.621c1.915,12.888,4.328,25.257,7.228,37.034
		c0.957,3.887,1.963,7.717,3.026,11.47c1.12,3.974,2.288,7.822,3.514,11.566c14.916,45.89,36.631,73.876,57.877,73.876
		c21.245,0,42.96-27.986,57.886-73.876c4.069,1.187,8.1,2.278,12.093,3.293c3.763,0.947,7.487,1.829,11.154,2.623
		c-18.718,58.575-47.967,91.894-81.133,91.894s-62.415-33.319-81.133-91.894c-1.139-3.562-2.231-7.218-3.293-10.971
		c-1.12-3.974-2.183-8.004-3.188-12.111c-4.691-18.995-8.176-39.389-10.417-60.864c-0.191-1.8-0.364-3.61-0.536-5.428
		c-0.814-8.665-1.417-17.473-1.8-26.358c-0.364-8.214-0.545-16.487-0.545-24.778C155.237,245.928,155.419,237.656,155.783,229.442z"
		/>
</g>
<path style="fill:#32AACE;" d="M194.76,131.191c-1.063,3.753-2.077,7.582-3.026,11.471c11.643,3.361,23.562,7.458,35.684,12.245
	c7.88-4.098,15.807-7.975,23.734-11.613c1.665-0.766,3.332-1.522,4.989-2.26c-19.704-8.798-39.101-15.97-57.867-21.407
	C197.048,123.368,195.88,127.227,194.76,131.191z"/>
<path style="fill:#F0A037;" d="M191.734,365.779c0.957,3.887,1.963,7.717,3.026,11.47c1.12,3.974,2.288,7.822,3.514,11.566
	c18.747-5.428,38.153-12.61,57.877-21.418c-1.665-0.737-3.332-1.493-4.998-2.26c-7.928-3.639-15.864-7.516-23.744-11.614
	C215.287,358.321,203.367,362.419,191.734,365.779z"/>
<g>
	<path style="fill:#EB305B;" d="M217.173,38.617l16.181,17.635c7.592-6.97,15.261-10.503,22.796-10.503
		c21.245,0,42.96,27.995,57.886,73.884c4.059-1.187,8.09-2.278,12.083-3.293c3.782-0.958,7.506-1.839,11.163-2.634
		c-18.718-58.575-47.967-91.894-81.133-91.894C242.44,21.815,229.323,27.473,217.173,38.617z"/>
	<path style="fill:#EB305B;" d="M320.565,142.661c2.901,11.766,5.323,24.146,7.228,37.034c7.526,4.788,14.859,9.718,21.934,14.744
		c0.114,0.077,0.23,0.163,0.344,0.25c1.379,0.976,2.748,1.962,4.107,2.949c-2.241-21.485-5.725-41.868-10.407-60.845
		c-3.85,0.814-7.765,1.733-11.767,2.748C328.226,140.497,324.415,141.531,320.565,142.661z"/>
	<path style="fill:#EB305B;" d="M327.795,328.746c-1.915,12.888-4.328,25.267-7.228,37.043c3.848,1.12,7.659,2.154,11.441,3.111
		c3.983,1.006,7.909,1.924,11.767,2.738c4.682-18.985,8.166-39.379,10.407-60.845c-1.359,0.986-2.729,1.973-4.107,2.949
		c-0.114,0.087-0.23,0.172-0.344,0.249C342.653,319.019,335.319,323.95,327.795,328.746z"/>
	<path style="fill:#EB305B;" d="M331.366,210.791c1.178,14.218,1.771,28.8,1.771,43.429c0,14.64-0.594,29.22-1.771,43.429
		c1.398-0.977,2.796-1.953,4.175-2.93c0.105-0.087,0.23-0.173,0.344-0.259c7.152-5.065,14.036-10.225,20.632-15.472
		c0.373-8.205,0.555-16.477,0.555-24.769c0-8.292-0.182-16.564-0.555-24.778c-6.596-5.246-13.48-10.407-20.632-15.472
		c-0.114-0.087-0.24-0.172-0.344-0.259C334.161,212.735,332.763,211.758,331.366,210.791z"/>
</g>
<g>
	<path style="fill:#32AACE;" d="M217.662,320.886c12.619,7.286,25.534,14.064,38.479,20.172c1.665,0.785,3.332,1.561,4.998,2.327
		c7.985,3.667,15.903,7.046,23.734,10.138c12.13,4.797,24.06,8.895,35.693,12.265c3.848,1.12,7.659,2.154,11.441,3.111
		c3.983,1.006,7.909,1.924,11.767,2.738c10.005,2.125,19.551,3.6,28.493,4.395l-2.116,23.84
		c-10.359-0.918-21.369-2.643-32.869-5.142c-3.667-0.794-7.391-1.675-11.154-2.623c-3.993-1.015-8.023-2.106-12.093-3.293
		c-18.747-5.428-38.144-12.61-57.886-21.418c-1.665-0.737-3.332-1.493-4.998-2.26c-7.928-3.639-15.864-7.516-23.744-11.614
		c-7.305-3.801-14.562-7.775-21.724-11.91c-7.19-4.165-14.265-8.454-21.178-12.868c-1.245-8.33-2.278-16.879-3.092-25.621
		c-0.172-1.819-0.325-3.647-0.479-5.486C192.586,305.719,204.927,313.523,217.662,320.886z"/>
	<path style="fill:#32AACE;" d="M261.139,165.045c7.985-3.667,15.903-7.046,23.734-10.139c7.315,3.801,14.572,7.784,21.743,11.92
		c7.19,4.155,14.265,8.454,21.178,12.868c7.526,4.788,14.859,9.718,21.934,14.744c0.114,0.077,0.23,0.163,0.344,0.25
		c1.379,0.976,2.748,1.962,4.107,2.949c17.463,12.657,33.376,25.869,47.47,39.417c-2.624,2.92-5.371,5.859-8.253,8.818
		c-2.719,2.796-5.534,5.592-8.425,8.349c-8.75-8.406-18.258-16.688-28.454-24.778c-6.596-5.246-13.48-10.407-20.632-15.472
		c-0.114-0.087-0.24-0.172-0.344-0.259c-1.379-0.976-2.777-1.953-4.175-2.92c-11.662-8.09-23.993-15.883-36.717-23.237
		c-12.638-7.296-25.573-14.074-38.508-20.182C257.806,166.587,259.472,165.812,261.139,165.045z"/>
</g>
<path style="fill:#F0A037;" d="M181.413,205.315c0.824-8.742,1.858-17.291,3.102-25.631c6.913-4.414,13.978-8.713,21.168-12.859
	c7.162-4.136,14.429-8.129,21.734-11.92c7.88-4.098,15.807-7.975,23.734-11.613c1.665-0.766,3.332-1.522,4.989-2.26
	c19.733-8.798,39.13-15.98,57.896-21.398c4.059-1.187,8.09-2.278,12.083-3.293c3.782-0.958,7.506-1.839,11.163-2.634
	c60.079-13.089,103.556-4.414,120.138,24.309c16.583,28.732,2.355,70.716-39.015,116.203c-2.518,2.777-5.142,5.553-7.86,8.349
	c-2.872,2.958-5.84,5.898-8.885,8.817c-14.103,13.548-30.015,26.76-47.479,39.408c-1.359,0.986-2.729,1.973-4.107,2.949
	c-0.114,0.087-0.23,0.172-0.344,0.249c-7.075,5.026-14.41,9.957-21.934,14.754c-6.913,4.414-13.988,8.713-21.178,12.868
	c-7.172,4.136-14.429,8.119-21.744,11.91c-7.832-3.092-15.75-6.472-23.734-10.138c-1.665-0.766-3.332-1.542-4.998-2.327
	c12.935-6.099,25.869-12.878,38.498-20.172c12.734-7.363,25.066-15.156,36.727-23.237c1.398-0.977,2.796-1.953,4.175-2.93
	c0.105-0.087,0.23-0.173,0.344-0.259c7.152-5.065,14.036-10.225,20.632-15.472c10.196-8.081,19.704-16.353,28.454-24.769
	c2.891-2.758,5.706-5.553,8.425-8.349c2.882-2.959,5.629-5.898,8.253-8.818c32.275-35.856,45.67-68.667,35.042-87.068
	c-10.637-18.401-45.727-23.218-92.919-13.194c-3.85,0.814-7.765,1.733-11.767,2.748c-3.782,0.958-7.592,1.992-11.441,3.121
	c-11.643,3.361-23.572,7.468-35.693,12.245c-7.832,3.092-15.75,6.472-23.734,10.14c-1.665,0.766-3.332,1.542-4.998,2.327
	c-12.944,6.108-25.861,12.886-38.479,20.182c-12.734,7.353-25.076,15.166-36.727,23.247
	C181.087,208.962,181.241,207.133,181.413,205.315z"/>
<g>
	<path style="fill:#32AACE;" d="M406.284,375.268l3.954,23.61c22.27-3.724,38.584-13.567,47.182-28.455
		c16.593-28.732,2.355-70.716-39.015-116.202c-2.518,2.777-5.142,5.553-7.86,8.349c-2.872,2.958-5.84,5.898-8.885,8.817
		c32.275,35.856,45.66,68.667,35.032,87.068C431.723,367.071,421.488,372.731,406.284,375.268z"/>
	<circle style="fill:#32AACE;" cx="213.016" cy="61.401" r="30.465"/>
</g>
<circle style="fill:#EB305B;" cx="78.278" cy="295.669" r="30.465"/>
<path style="fill:#F0A037;" d="M358.949,388.958c0,16.831,13.644,30.465,30.465,30.465c12.322,0,22.93-7.305,27.727-17.827
	c1.762-3.848,2.738-8.129,2.738-12.638c0-16.821-13.634-30.465-30.465-30.465c-4.509,0-8.789,0.976-12.638,2.738
	C366.264,366.029,358.949,376.646,358.949,388.958z"/>
<path style="fill:#F9B462;" d="M374.038,373.87c0,16.831,13.644,30.466,30.465,30.466c4.509,0,8.789-0.977,12.638-2.739
	c1.762-3.848,2.738-8.129,2.738-12.638c0-16.821-13.634-30.465-30.465-30.465c-4.509,0-8.789,0.976-12.638,2.738
	C375.015,365.081,374.038,369.36,374.038,373.87z"/>
<path style="fill:#F96B91;" d="M62.898,280.574c0,16.831,13.644,30.465,30.465,30.465c4.509,0,8.789-0.976,12.638-2.738
	c1.762-3.849,2.738-8.129,2.738-12.638c0-16.821-13.634-30.465-30.465-30.465c-4.509,0-8.789,0.976-12.638,2.738
	C63.874,271.785,62.898,276.065,62.898,280.574z"/>
<path style="fill:#6ACEE5;" d="M197.642,46.316c0,16.831,13.644,30.465,30.465,30.465c4.509,0,8.789-0.976,12.638-2.738
	c1.762-3.848,2.738-8.129,2.738-12.638c0-16.821-13.634-30.465-30.465-30.465c-4.509,0-8.789,0.976-12.638,2.738
	C198.618,37.528,197.642,41.807,197.642,46.316z"/>
</svg>
