<?xml version="1.0" encoding="iso-8859-1"?>
<!-- Generator: Adobe Illustrator 19.0.0, SVG Export Plug-In . SVG Version: 6.00 Build 0)  -->
<svg version="1.1" id="Capa_1" xmlns="http://www.w3.org/2000/svg" xmlns:xlink="http://www.w3.org/1999/xlink" x="0px" y="0px"
	 viewBox="0 0 512 512" style="enable-background:new 0 0 512 512;" xml:space="preserve">
<circle style="fill:#F24976;" cx="267" cy="267" r="245"/>
<path style="fill:#D9EAFC;" d="M142.425,196.213c-0.096,0.304-0.04,0.634,0.148,0.891c0.189,0.257,0.487,0.408,0.806,0.408h2.118
	c2.206,0,4,1.794,4,4V244.9c0,2.206-1.794,4-4,4h-15.013c-0.553,0-1,0.447-1,1v6.344c0,4.963-4.037,9-9,9H98.792
	c-4.963,0-9-4.037-9-9V249.9c0-0.553-0.447-1-1-1h-11.29v173.392C122.434,477.056,190.635,512,267,512
	c76.367,0,144.568-34.945,189.5-89.712V175.475H148.93L142.425,196.213z"/>
<path style="fill:#C3DDF4;" d="M89.792,256.243v-6.344c0-0.553-0.447-1-1-1h-11.29v173.392c6.182,7.535,12.819,14.679,19.843,21.424
	v-178.6C93.069,264.42,89.792,260.712,89.792,256.243z"/>
<path style="fill:#52BBEF;" d="M427.348,196.913H142.492c0.029,0.063,0.039,0.134,0.081,0.19c0.189,0.257,0.487,0.408,0.806,0.408
	h2.118c2.206,0,4,1.794,4,4v43.388c0,2.206-1.794,4-4,4h-15.013c-0.553,0-1,0.447-1,1v6.344c0,4.963-4.037,9-9,9h-16.83v9.074
	c0,1.65,1.35,3,3,3h320.693c1.65,0,3-1.35,3-3v-74.404C430.348,198.263,428.998,196.913,427.348,196.913z"/>
<g>
	<path style="fill:#EEF6FF;" d="M430.348,416.317c0,1.65-1.35,3-3,3H106.654c-1.65,0-3-1.35-3-3v-14.404c0-1.65,1.35-3,3-3h320.693
		c1.65,0,3,1.35,3,3v14.404H430.348z"/>
	<path style="fill:#EEF6FF;" d="M368.348,451.317c0,1.649-1.35,3-3,3H168.654c-1.65,0-3-1.351-3-3v-14.404c0-1.65,1.35-3,3-3
		h196.693c1.65,0,3,1.35,3,3v14.404H368.348z"/>
</g>
<g>
	<path style="fill:#FFFFFF;" d="M312.34,376.61c0,1.65-1.35,3-3,3h-95.959c-1.65,0-3-1.35-3-3v-78.764c0-1.65,1.35-3,3-3h95.959
		c1.65,0,3,1.35,3,3V376.61z"/>
	<path style="fill:#FFFFFF;" d="M430.348,376.61c0,1.65-1.35,3-3,3h-95.961c-1.65,0-3-1.35-3-3v-78.764c0-1.65,1.35-3,3-3h95.961
		c1.65,0,3,1.35,3,3V376.61z"/>
</g>
<g>
	<path style="fill:#EEF6FF;" d="M230.224,376.61v-78.764c0-1.65,1.35-3,3-3h-19.843c-1.65,0-3,1.35-3,3v78.764c0,1.65,1.35,3,3,3
		h19.843C231.573,379.61,230.224,378.261,230.224,376.61z"/>
	<path style="fill:#EEF6FF;" d="M348.229,376.61v-78.764c0-1.65,1.35-3,3-3h-19.843c-1.65,0-3,1.35-3,3v78.764c0,1.65,1.35,3,3,3
		h19.843C349.579,379.61,348.229,378.261,348.229,376.61z"/>
</g>
<path style="fill:#293D7C;" d="M447.322,126.812H183.879c-4.646,18.366-16.006,34.537-32.295,45.216
	c-1.162,0.762-2.046,1.847-2.558,3.138l-0.411,1.31H456.5V135.99C456.5,130.941,452.371,126.812,447.322,126.812z"/>
<path style="fill:#FE3745;" d="M379.129,159.579c-1.98,0-3.91-0.801-5.309-2.19c-1.391-1.4-2.191-3.33-2.191-5.31
	c0-1.971,0.801-3.9,2.191-5.3c1.398-1.401,3.328-2.2,5.309-2.2c1.971,0,3.91,0.799,5.299,2.2c1.4,1.399,2.201,3.329,2.201,5.3
	c0,1.979-0.801,3.909-2.201,5.31C383.039,158.778,381.1,159.579,379.129,159.579z"/>
<path style="fill:#FFAF10;" d="M403.725,159.579c-1.971,0-3.91-0.801-5.301-2.2c-1.4-1.391-2.199-3.32-2.199-5.3
	c0-1.971,0.799-3.9,2.199-5.3c1.4-1.401,3.33-2.2,5.301-2.2c1.978,0,3.908,0.799,5.309,2.2c1.391,1.399,2.191,3.329,2.191,5.3
	c0,1.97-0.801,3.909-2.191,5.3C407.633,158.778,405.703,159.579,403.725,159.579z"/>
<path style="fill:#02AF8E;" d="M428.328,159.579c-1.98,0-3.91-0.801-5.299-2.19c-1.4-1.4-2.201-3.33-2.201-5.31
	c0-1.971,0.801-3.9,2.201-5.3c1.389-1.401,3.318-2.2,5.299-2.2c1.971,0,3.91,0.799,5.301,2.2c1.398,1.399,2.199,3.329,2.199,5.3
	c0,1.979-0.801,3.909-2.199,5.31C432.228,158.778,430.299,159.579,428.328,159.579z"/>
<g>
	<path style="fill:#445EA0;" d="M187.438,310.452h-76.746c-4.143,0-7.5-3.357-7.5-7.5c0-4.142,3.357-7.5,7.5-7.5h76.746
		c4.143,0,7.5,3.358,7.5,7.5C194.938,307.095,191.58,310.452,187.438,310.452z"/>
	<path style="fill:#445EA0;" d="M187.438,333.411h-76.746c-4.143,0-7.5-3.357-7.5-7.5s3.357-7.5,7.5-7.5h76.746
		c4.143,0,7.5,3.357,7.5,7.5C194.938,330.054,191.58,333.411,187.438,333.411z"/>
	<path style="fill:#445EA0;" d="M187.438,356.368h-76.746c-4.143,0-7.5-3.357-7.5-7.5s3.357-7.5,7.5-7.5h76.746
		c4.143,0,7.5,3.357,7.5,7.5C194.938,353.011,191.58,356.368,187.438,356.368z"/>
	<path style="fill:#445EA0;" d="M149.219,379.325h-38.527c-4.143,0-7.5-3.357-7.5-7.5s3.357-7.5,7.5-7.5h38.527
		c4.143,0,7.5,3.357,7.5,7.5S153.361,379.325,149.219,379.325z"/>
</g>
<path style="fill:#FFD00D;" d="M109.639,30.353c-42.781,0-77.587,34.805-77.587,77.586c0,26.25,13.119,50.521,35.094,64.925
	c0.981,0.645,1.742,1.578,2.175,2.67l6.891,21.979h66.854l6.891-21.979c0.433-1.092,1.193-2.025,2.176-2.67
	c21.974-14.404,35.093-38.675,35.093-64.925C187.225,65.157,152.419,30.353,109.639,30.353z"/>
<g>
	<path style="fill:#FFAF10;" d="M102.139,145.95v51.562h15V145.95c14.859-3.416,25.977-16.739,25.977-32.62
		c0-18.46-15.018-33.479-33.477-33.479c-18.46,0-33.479,15.019-33.479,33.479C76.16,129.211,87.279,142.535,102.139,145.95z
		 M109.639,94.852c10.188,0,18.477,8.289,18.477,18.479c0,7.518-4.519,13.988-10.977,16.871v-14.4c0-4.143-3.357-7.5-7.5-7.5
		s-7.5,3.357-7.5,7.5v14.4c-6.459-2.882-10.979-9.354-10.979-16.871C91.16,103.141,99.449,94.852,109.639,94.852z"/>
	<path style="fill:#FFAF10;" d="M76.211,197.512h21.725l-8.772-27.979c-0.433-1.092-1.193-2.025-2.175-2.67
		c-21.975-14.404-35.094-38.675-35.094-64.925c0-31.339,18.688-58.378,45.496-70.61c-36.98,5.891-65.339,37.997-65.339,76.61
		c0,26.25,13.119,50.521,35.094,64.925c0.981,0.645,1.742,1.578,2.175,2.67L76.211,197.512z"/>
</g>
<path style="fill:#1A2B63;" d="M88.797,248.899c0,0.035-0.005,0.068-0.005,0.104v7.24c0,5.5,4.5,10,10,10h21.692c5.5,0,10-4.5,10-10
	v-7.24c0-0.035-0.005-0.068-0.005-0.104H88.797z"/>
<path style="fill:#445EA0;" d="M150.497,244.899c0,2.75-2.25,5-5,5H73.78c-2.75,0-5-2.25-5-5v-43.388c0-2.75,2.25-5,5-5h71.717
	c2.75,0,5,2.25,5,5L150.497,244.899L150.497,244.899z"/>
<g>
	<path style="fill:#293D7C;" d="M135.61,220.885H83.666c-4.143,0-7.5-3.357-7.5-7.5s3.357-7.5,7.5-7.5h51.944
		c4.143,0,7.5,3.357,7.5,7.5C143.11,217.527,139.753,220.885,135.61,220.885z"/>
	<path style="fill:#293D7C;" d="M135.61,241.447H83.666c-4.143,0-7.5-3.357-7.5-7.5s3.357-7.5,7.5-7.5h51.944
		c4.143,0,7.5,3.357,7.5,7.5C143.11,238.09,139.753,241.447,135.61,241.447z"/>
</g>
<g>
	<path style="fill:#FFAF10;" d="M109.639,22.937c-4.143,0-7.5-3.357-7.5-7.5V7.5c0-4.143,3.357-7.5,7.5-7.5s7.5,3.357,7.5,7.5v7.936
		C117.139,19.579,113.781,22.937,109.639,22.937z"/>
	<path style="fill:#FFAF10;" d="M175.804,50.711c-1.919,0-3.839-0.732-5.304-2.196c-2.929-2.93-2.929-7.678,0-10.607l5.612-5.612
		c2.93-2.928,7.678-2.928,10.607,0c2.929,2.93,2.929,7.678,0,10.607l-5.612,5.612C179.643,49.979,177.723,50.711,175.804,50.711z"/>
	<path style="fill:#FFAF10;" d="M210.888,117.136h-7.938c-4.143,0-7.5-3.357-7.5-7.5c0-4.142,3.357-7.5,7.5-7.5h7.938
		c4.143,0,7.5,3.358,7.5,7.5S215.03,117.136,210.888,117.136z"/>
	<path style="fill:#FFAF10;" d="M180.79,188.914c-1.919,0-3.839-0.732-5.304-2.196l-5.612-5.612c-2.929-2.93-2.929-7.678,0-10.607
		c2.93-2.928,7.678-2.928,10.607,0l5.612,5.612c2.929,2.93,2.929,7.678,0,10.607C184.629,188.182,182.709,188.914,180.79,188.914z"
		/>
	<path style="fill:#FFAF10;" d="M36.973,188.288c-1.92,0-3.839-0.732-5.304-2.197c-2.929-2.929-2.929-7.678,0.001-10.606
		l5.613-5.612c2.929-2.929,7.678-2.928,10.606,0.001c2.929,2.929,2.929,7.678-0.001,10.607l-5.613,5.612
		C40.812,187.556,38.892,188.288,36.973,188.288z"/>
	<path style="fill:#FFAF10;" d="M15.439,116.25H7.5c-4.143,0-7.5-3.357-7.5-7.5s3.357-7.5,7.5-7.5h7.939c4.143,0,7.5,3.357,7.5,7.5
		S19.581,116.25,15.439,116.25z"/>
	<path style="fill:#FFAF10;" d="M43.212,50.084c-1.919,0-3.839-0.732-5.304-2.196l-5.613-5.613c-2.929-2.93-2.929-7.678,0-10.607
		c2.93-2.928,7.678-2.928,10.607,0l5.613,5.613c2.929,2.93,2.929,7.678,0,10.607C47.051,49.352,45.131,50.084,43.212,50.084z"/>
	<path style="fill:#FFAF10;" d="M73.729,29.905c-2.943,0-5.735-1.743-6.932-4.631l-3.038-7.332c-1.586-3.827,0.231-8.214,4.058-9.8
		c3.824-1.584,8.215,0.231,9.8,4.058l3.038,7.332c1.586,3.827-0.231,8.214-4.058,9.8C75.658,29.721,74.686,29.905,73.729,29.905z"/>
	<path style="fill:#FFAF10;" d="M145.48,30.244c-0.957,0-1.929-0.184-2.867-0.573c-3.827-1.585-5.645-5.972-4.059-9.799l3.037-7.332
		c1.586-3.827,5.975-5.646,9.799-4.059c3.827,1.585,5.645,5.972,4.059,9.799l-3.037,7.332
		C151.215,28.5,148.423,30.244,145.48,30.244z"/>
	<path style="fill:#FFAF10;" d="M195.984,81.225c-2.943,0-5.736-1.744-6.933-4.633c-1.584-3.826,0.233-8.214,4.061-9.799
		l7.334-3.037c3.824-1.587,8.214,0.233,9.799,4.06c1.584,3.826-0.233,8.214-4.061,9.799l-7.334,3.037
		C197.913,81.041,196.94,81.225,195.984,81.225z"/>
	<path style="fill:#FFAF10;" d="M202.975,156.02c-0.956,0-1.928-0.184-2.866-0.572l-7.334-3.037
		c-3.827-1.585-5.645-5.973-4.061-9.799c1.585-3.827,5.972-5.645,9.799-4.061l7.334,3.037c3.827,1.585,5.645,5.973,4.061,9.799
		C208.711,154.275,205.918,156.02,202.975,156.02z"/>
	<path style="fill:#FFAF10;" d="M15.074,155.202c-2.943,0-5.735-1.743-6.932-4.632c-1.586-3.826,0.231-8.214,4.059-9.799
		l7.334-3.038c3.826-1.585,8.214,0.231,9.799,4.059c1.586,3.826-0.231,8.214-4.059,9.799l-7.334,3.038
		C17.003,155.018,16.03,155.202,15.074,155.202z"/>
	<path style="fill:#FFAF10;" d="M22.741,80.406c-0.956,0-1.928-0.184-2.865-0.572l-7.335-3.036C8.714,75.214,6.896,70.827,8.479,67
		c1.584-3.828,5.975-5.646,9.798-4.062l7.335,3.036c3.827,1.584,5.645,5.971,4.061,9.798C28.479,78.662,25.685,80.406,22.741,80.406
		z"/>
</g>
<g>
</g>
<g>
</g>
<g>
</g>
<g>
</g>
<g>
</g>
<g>
</g>
<g>
</g>
<g>
</g>
<g>
</g>
<g>
</g>
<g>
</g>
<g>
</g>
<g>
</g>
<g>
</g>
<g>
</g>
</svg>
