<?xml version="1.0" encoding="iso-8859-1"?>
<!-- Generator: Adobe Illustrator 19.0.0, SVG Export Plug-In . SVG Version: 6.00 Build 0)  -->
<svg version="1.1" id="Capa_1" xmlns="http://www.w3.org/2000/svg" xmlns:xlink="http://www.w3.org/1999/xlink" x="0px" y="0px"
	 viewBox="0 0 512 512" style="enable-background:new 0 0 512 512;" xml:space="preserve">
<circle style="fill:#3EB7FF;" cx="256" cy="267" r="245"/>
<path style="fill:#D9EAFC;" d="M479.67,125.514H365.895c9.719,7.409,18.658,15.787,26.658,25.006h87.117
	c7.641,0,13.892-5.626,13.892-12.503C493.561,131.14,487.31,125.514,479.67,125.514z"/>
<g>
	<path style="fill:#69CDFF;" d="M441.342,175.03H410.41c4.813,7.948,9.012,16.308,12.551,25.006h18.381
		c7.641,0,13.892-5.626,13.892-12.503C455.233,180.656,448.982,175.03,441.342,175.03z"/>
	<path style="fill:#69CDFF;" d="M424.171,391.001h-9.626c-4.039,4.185-9.699,6.796-15.962,6.796c-5.499,0-10.534-2.015-14.416-5.339
		c-8.778,8.814-18.464,16.723-28.925,23.549h68.929c7.641,0,13.892-5.626,13.892-12.503
		C438.063,396.627,431.811,391.001,424.171,391.001z"/>
	<path style="fill:#69CDFF;" d="M157.4,120.527H57.373c-7.793,0-14.168,5.737-14.168,12.75c0,7.013,6.375,12.75,14.168,12.75h25.863
		c7.791,0,14.166,5.738,14.166,12.751s-6.375,12.751-14.166,12.751h-69.07C6.375,171.528,0,177.266,0,184.278
		c0,7.013,6.375,12.75,14.166,12.75h80.542C108.014,165.977,129.907,139.485,157.4,120.527z"/>
</g>
<path style="fill:#D9EAFC;" d="M105.972,358.908H67.783c-7.627,0-13.868,5.615-13.868,12.48c0,6.864,6.241,12.479,13.868,12.479
	h25.313c7.627,0,13.864,5.616,13.864,12.479c0,6.864-6.237,12.479-13.864,12.479H25.492c-7.624,0-13.864,5.616-13.864,12.479
	c0,6.864,6.24,12.48,13.864,12.48h170.972C158.5,419.727,126.646,393.08,105.972,358.908z"/>
<path style="fill:#37C47A;" d="M296.998,93.449l-37.531,65.264c-0.711,1.237-2.039,2.006-3.467,2.006
	c-1.427,0-2.756-0.769-3.467-2.006l-37.005-64.35C137.944,113.48,80.402,183.514,80.402,267c0,98.2,79.606,177.807,177.807,177.807
	c49.227,0,93.78-20.008,125.976-52.332c-4.768-4.075-7.801-10.127-7.801-16.877c0-12.24,9.958-22.199,22.198-22.199
	c4.736,0,9.128,1.496,12.736,4.034c15.685-26.497,24.697-57.41,24.697-90.433C436.017,182.124,376.542,111.149,296.998,93.449z"/>
<path style="fill:#02AF8E;" d="M112.087,267c0-73.623,44.752-136.777,108.533-163.783l-5.092-8.854
	C137.944,113.48,80.402,183.514,80.402,267c0,98.2,79.606,177.807,177.807,177.807c5.341,0,10.622-0.25,15.843-0.71
	C183.274,436.079,112.087,359.86,112.087,267z"/>
<path style="fill:#0F9390;" d="M300.899,86.665l-12.638,21.976c9.881,8.128,19.068,20.269,27.065,36.025
	c2.75,5.419,5.288,11.145,7.618,17.131c3.59-2.497,7.946-3.966,12.642-3.966c0.65,0,1.292,0.034,1.929,0.089
	c-2.669-7.019-5.605-13.722-8.813-20.042c-7.199-14.186-15.421-25.866-24.382-34.837c32.32,9.102,60.772,27.523,82.262,52.169
	c-10.046,4.259-21.355,7.946-33.629,11.018c3.02,3.793,4.831,8.588,4.831,13.802c0,0.141-0.008,0.281-0.011,0.421
	c14.146-3.599,27.104-7.985,38.462-13.095c18.925,26.14,30.612,57.84,32.106,92.145H355.86c-0.441-21.489-2.782-42.333-6.855-61.803
	c-3.73,2.84-8.381,4.531-13.42,4.531c-0.318,0-0.635-0.011-0.949-0.024c3.674,18.04,5.797,37.352,6.222,57.295H263.5v-67.577
	c17.769-0.197,35.089-1.389,51.546-3.486c-1.065-2.595-1.658-5.433-1.658-8.408c0-2.307,0.354-4.533,1.011-6.627
	c-16.182,2.106-33.284,3.318-50.898,3.518v-25.221l-4.033,7.014c-0.711,1.237-2.039,2.006-3.467,2.006
	c-1.427,0-2.756-0.769-3.467-2.006l-4.033-7.014v25.15c-20.495-0.428-40.261-2.209-58.593-5.204
	c3.226-9.615,6.961-18.656,11.186-26.98c7.195-14.179,15.355-25.43,24.118-33.466l-13.56-23.58
	C131.934,108.324,72.902,180.896,72.902,267c0,102.178,83.128,185.307,185.307,185.307c51.894,0,98.866-21.452,132.539-55.942
	c-4.849-1.835-8.889-5.322-11.436-9.771c-20.47,20.726-46.188,36.255-74.992,44.367c8.962-8.971,17.184-20.651,24.383-34.837
	c4.841-9.54,9.079-19.938,12.685-31.009c12.615,2.64,24.378,5.892,35.018,9.708c0.185-5.329,2.253-10.185,5.563-13.922
	c-11.09-3.997-23.298-7.411-36.352-10.191c6.176-23.436,9.692-49.321,10.245-76.209h72.481c-1.264,29.025-9.827,56.185-23.896,79.69
	c5.04,1.382,9.366,4.499,12.298,8.667c16.984-27.984,26.772-60.799,26.772-95.857C443.517,179.51,382.566,105.995,300.899,86.665z
	 M212.099,103.04c-8.962,8.971-17.183,20.651-24.382,34.837c-4.841,9.54-9.08,19.938-12.685,31.009
	c-16.787-3.512-32.064-8.109-45.195-13.677C151.327,130.564,179.779,112.142,212.099,103.04z M129.836,378.79
	c13.131-5.567,28.409-10.164,45.195-13.677c3.605,11.071,7.843,21.469,12.685,31.009c7.2,14.186,15.42,25.867,24.382,34.837
	C179.779,421.858,151.327,403.436,129.836,378.79z M248.5,436.098c-17.575-4.383-34.131-20.603-47.407-46.764
	c-4.225-8.325-7.96-17.365-11.186-26.981c18.332-2.994,38.098-4.775,58.593-5.203V436.098z M248.5,259.5h-60.367
	c0.828,2.324,1.283,4.824,1.283,7.429c0,2.658-0.471,5.207-1.331,7.571H248.5v67.65c-21.992,0.448-43.242,2.418-62.94,5.748
	c-5.02-18.737-8.233-39.225-9.483-60.62c-2.716,1.187-5.711,1.85-8.859,1.85c-2.118,0-4.164-0.304-6.105-0.861
	c1.294,21.945,4.578,43.034,9.691,62.441c-18.928,4.031-36.079,9.394-50.62,15.935c-18.924-26.141-30.612-57.84-32.107-92.145
	h58.273c-0.86-2.364-1.331-4.913-1.331-7.571c0-2.605,0.455-5.105,1.283-7.429H88.077c1.495-34.304,13.183-66.004,32.107-92.145
	c14.541,6.542,31.692,11.904,50.62,15.936c-5.102,19.365-8.383,40.404-9.683,62.298c1.939-0.555,3.982-0.858,6.097-0.858
	c3.151,0,6.149,0.665,8.867,1.854c1.255-21.344,4.466-41.786,9.475-60.482c19.699,3.33,40.948,5.3,62.94,5.748L248.5,259.5
	L248.5,259.5z M315.326,389.335c-14.385,28.343-32.618,45.009-51.826,47.604V357.08c22.071,0.25,43.366,2.065,63.012,5.274
	C323.286,371.969,319.551,381.01,315.326,389.335z M330.859,347.898c-21.016-3.553-43.796-5.56-67.359-5.821V274.5h77.358
	C340.304,300.512,336.871,325.46,330.859,347.898z"/>
<g>
	<circle style="fill:#FE3745;" cx="167.22" cy="266.93" r="23.2"/>
	<circle style="fill:#FE3745;" cx="335.59" cy="180.03" r="23.2"/>
	<circle style="fill:#FE3745;" cx="398.58" cy="375.6" r="23.2"/>
</g>
<g>
	<path style="fill:#B7092B;" d="M157.861,266.929c0-10.401,6.846-19.204,16.278-22.148c-2.186-0.683-4.511-1.051-6.921-1.051
		c-12.813,0-23.199,10.387-23.199,23.199c0,12.813,10.386,23.199,23.199,23.199c2.411,0,4.735-0.368,6.921-1.051
		C164.706,286.133,157.861,277.331,157.861,266.929z"/>
	<path style="fill:#B7092B;" d="M326.23,180.029c0-10.401,6.846-19.204,16.277-22.148c-2.187-0.683-4.511-1.051-6.922-1.051
		c-12.813,0-23.198,10.387-23.198,23.199c0,12.813,10.386,23.199,23.198,23.199c2.411,0,4.735-0.368,6.922-1.051
		C333.076,199.233,326.23,190.431,326.23,180.029z"/>
	<path style="fill:#B7092B;" d="M389.228,375.598c0-10.401,6.846-19.204,16.276-22.148c-2.186-0.683-4.51-1.051-6.921-1.051
		c-12.813,0-23.198,10.387-23.198,23.199c0,12.813,10.386,23.199,23.198,23.199c2.411,0,4.735-0.368,6.921-1.051
		C396.073,394.802,389.228,386,389.228,375.598z"/>
</g>
<path style="fill:#FE3745;" d="M256,161.719c-1.789,0-3.442-0.956-4.334-2.507L208.938,84.91c-5.52-8.819-8.438-18.986-8.438-29.409
	C200.5,24.897,225.397,0,256,0c30.602,0,55.5,24.897,55.5,55.5c0,10.423-2.918,20.59-8.439,29.409l-42.727,74.302
	C259.442,160.763,257.789,161.719,256,161.719z"/>
<path style="fill:#B7092B;" d="M223.781,80.067c-5.521-8.819-8.439-18.986-8.439-29.409c0-21.831,12.675-40.751,31.049-49.808
	C220.354,5.416,200.5,28.175,200.5,55.5c0,10.423,2.918,20.59,8.438,29.409l42.728,74.302c0.892,1.551,2.545,2.507,4.334,2.507
	s3.442-0.956,4.334-2.507l4.479-7.79L223.781,80.067z"/>
<circle style="fill:#FFFFFF;" cx="256" cy="55.5" r="33.33"/>
<circle style="fill:#5DC1D8;" cx="256" cy="55.5" r="20.231"/>
<path style="fill:#28A5A5;" d="M247.611,55.5c0-9.113,6.027-16.814,14.311-19.346c-1.874-0.573-3.861-0.885-5.922-0.885
	c-11.173,0-20.231,9.058-20.231,20.231S244.827,75.731,256,75.731c2.06,0,4.048-0.313,5.922-0.885
	C253.638,72.314,247.611,64.613,247.611,55.5z"/>
<path style="fill:#D9EAFC;" d="M499.815,255.527H322.496c-6.701,0-12.185,4.936-12.185,10.968s5.483,10.967,12.185,10.967h24.982
	c6.701,0,12.186,4.935,12.186,10.968c0,6.032-5.484,10.968-12.186,10.968h-96.876c-6.704,0-12.186,4.936-12.186,10.967
	c0,6.033,5.483,10.968,12.186,10.968h212.045c6.703,0,12.188-4.935,12.188-10.968c0-6.032-5.484-10.967-12.188-10.967h-22.248
	c-6.702,0-12.185-4.936-12.185-10.968c0-6.033,5.482-10.968,12.185-10.968h59.416c6.7,0,12.185-4.936,12.185-10.967
	C512,260.462,506.516,255.527,499.815,255.527z"/>
<g>
</g>
<g>
</g>
<g>
</g>
<g>
</g>
<g>
</g>
<g>
</g>
<g>
</g>
<g>
</g>
<g>
</g>
<g>
</g>
<g>
</g>
<g>
</g>
<g>
</g>
<g>
</g>
<g>
</g>
</svg>
