<?xml version="1.0" encoding="iso-8859-1"?>
<!-- Generator: Adobe Illustrator 19.0.0, SVG Export Plug-In . SVG Version: 6.00 Build 0)  -->
<svg version="1.1" id="Capa_1" xmlns="http://www.w3.org/2000/svg" xmlns:xlink="http://www.w3.org/1999/xlink" x="0px" y="0px"
	 viewBox="0 0 512 512" style="enable-background:new 0 0 512 512;" xml:space="preserve">
<path style="fill:#5C5E70;" d="M512,256c0,17.951-1.849,35.474-5.371,52.381c-1.943,9.404-4.42,18.62-7.387,27.617
	c-2.842,8.673-6.134,17.126-9.853,25.36c-15.767,34.879-39.131,65.588-67.971,90.028c-10.031,8.495-20.72,16.238-31.984,23.124
	c-7.21,4.42-14.66,8.495-22.319,12.184c-13.155,6.343-26.927,11.598-41.211,15.642c-8.735,2.476-17.669,4.503-26.76,6.039
	c-10.459,1.776-21.128,2.926-31.984,3.385c-3.699,0.157-7.419,0.24-11.16,0.24c-3.741,0-7.471-0.084-11.17-0.24
	c-23.625-1.014-46.414-5.224-67.96-12.225c-4.012-1.306-7.993-2.706-11.912-4.201c-6.834-2.602-13.531-5.486-20.072-8.641
	c-7.659-3.699-15.109-7.764-22.329-12.184c-26.102-15.977-49.121-36.498-67.96-60.458c-12.664-16.123-23.437-33.792-31.984-52.694
	c-6.175-13.678-11.191-27.982-14.911-42.809c-2.194-8.714-3.939-17.607-5.193-26.645C0.857,280.168,0,268.184,0,256
	c0-52.496,15.799-101.303,42.904-141.918c11.515-17.251,25.067-33.029,40.323-46.979c28.4-25.997,62.683-45.672,100.624-56.79
	C206.733,3.594,230.943,0,256,0c50.469,0,97.52,14.597,137.164,39.811c11.682,7.429,22.716,15.778,33.008,24.942
	c3.856,3.427,7.596,6.959,11.233,10.616C483.506,121.657,512,185.511,512,256z"/>
<path style="fill:#FF525D;" d="M244.83,155.585V511.76c-23.625-1.014-46.414-5.224-67.96-12.225
	c-11.003-3.574-21.682-7.868-31.984-12.842V155.585c0-3.041,2.456-5.507,5.496-5.507h88.952
	C242.375,150.079,244.83,152.545,244.83,155.585z"/>
<path style="fill:#EF4152;" d="M176.87,150.079v349.456c-11.003-3.574-21.682-7.868-31.984-12.842V155.585
	c0-3.041,2.456-5.507,5.496-5.507L176.87,150.079L176.87,150.079z"/>
<path style="fill:#E8DBC4;" d="M237.636,150.083c0,0-10.695-63.769-42.777-82.361c-32.083,18.592-42.777,82.361-42.777,82.361"/>
<path style="fill:#D6C8B0;" d="M194.859,67.721c-11.549,18.591-15.4,82.362-15.4,82.362h-27.377
	C152.083,150.083,162.776,86.312,194.859,67.721z"/>
<path style="fill:#EF4152;" d="M194.859,49.13L194.859,49.13c-3.543,0-6.417,2.872-6.417,6.417v16.255
	c0,3.543,2.872,6.417,6.417,6.417l0,0c3.543,0,6.417-2.872,6.417-6.417V55.547C201.276,52.004,198.403,49.13,194.859,49.13z"/>
<path style="fill:#4BC999;" d="M122.556,155.585v318.924c-26.102-15.977-49.121-36.498-67.96-60.458
	c-12.664-16.123-23.437-33.792-31.984-52.694V155.585c0-3.041,2.456-5.507,5.496-5.507h88.952
	C120.101,150.079,122.556,152.545,122.556,155.585z"/>
<path style="fill:#41B787;" d="M54.596,150.079v263.973c-12.664-16.123-23.437-33.792-31.984-52.694V155.585
	c0-3.041,2.456-5.507,5.496-5.507L54.596,150.079L54.596,150.079z"/>
<path style="fill:#4BC999;" d="M126.078,196.311H19.087c-2.748,0-4.976,2.228-4.976,4.976v11.79c0,2.748,2.228,4.976,4.976,4.976
	h106.991c2.748,0,4.976-2.228,4.976-4.976v-11.79C131.053,198.539,128.827,196.311,126.078,196.311z"/>
<path style="fill:#41B787;" d="M43.6,213.076v-11.789c0-2.748,2.228-4.976,4.976-4.976H19.087c-2.748,0-4.976,2.228-4.976,4.976
	v11.789c0,2.748,2.228,4.976,4.976,4.976h29.488C45.827,218.051,43.6,215.824,43.6,213.076z"/>
<path style="fill:#4BC999;" d="M107.395,129.851H37.771c-8.375,0-15.165,6.79-15.165,15.165v51.296h99.953v-51.296
	C122.559,136.64,115.769,129.851,107.395,129.851z"/>
<path style="fill:#41B787;" d="M70.255,129.851H37.771c-8.375,0-15.165,6.79-15.165,15.165v51.296h32.483v-51.296
	C55.089,136.64,61.879,129.851,70.255,129.851z"/>
<path style="fill:#4BC999;" d="M97.769,20.339H47.397c-7.353,0-13.313,5.96-13.313,13.313v99.403h76.999V33.652
	C111.082,26.3,105.122,20.339,97.769,20.339z"/>
<path style="fill:#41B787;" d="M74.867,20.339h-27.47c-7.353,0-13.313,5.96-13.313,13.313v99.403h27.47V33.652
	C61.554,26.3,67.514,20.339,74.867,20.339z"/>
<path style="fill:#FFD15C;" d="M367.114,155.585v331.107c-21.201,10.23-44.022,17.627-67.971,21.682
	c-10.459,1.776-21.128,2.926-31.984,3.385V155.585c0-3.041,2.466-5.507,5.507-5.507h88.942
	C364.648,150.079,367.114,152.545,367.114,155.585z"/>
<path style="fill:#EDBB4C;" d="M299.144,150.079v358.295c-10.459,1.776-21.128,2.926-31.984,3.385V155.585
	c0-3.041,2.466-5.507,5.507-5.507L299.144,150.079L299.144,150.079z"/>
<path style="fill:#FFD15C;" d="M370.63,196.311H263.639c-2.748,0-4.976,2.228-4.976,4.976v11.79c0,2.748,2.228,4.976,4.976,4.976
	h106.991c2.748,0,4.976-2.228,4.976-4.976v-11.79C375.605,198.539,373.378,196.311,370.63,196.311z"/>
<path style="fill:#EDBB4C;" d="M288.151,213.076v-11.789c0-2.748,2.228-4.976,4.976-4.976h-29.488c-2.748,0-4.976,2.228-4.976,4.976
	v11.789c0,2.748,2.228,4.976,4.976,4.976h29.488C290.379,218.051,288.151,215.824,288.151,213.076z"/>
<path style="fill:#FFD15C;" d="M351.947,129.851h-69.624c-8.375,0-15.165,6.79-15.165,15.165v51.296h99.953v-51.296
	C367.111,136.64,360.322,129.851,351.947,129.851z"/>
<path style="fill:#EDBB4C;" d="M314.806,129.851h-32.483c-8.375,0-15.165,6.79-15.165,15.165v51.296h32.483v-51.296
	C299.641,136.64,306.431,129.851,314.806,129.851z"/>
<path style="fill:#FFD15C;" d="M342.321,20.339h-50.372c-7.353,0-13.313,5.96-13.313,13.313v99.403h76.999V33.652
	C355.634,26.3,349.674,20.339,342.321,20.339z"/>
<path style="fill:#EDBB4C;" d="M319.418,20.339h-27.47c-7.353,0-13.313,5.96-13.313,13.313v99.403h27.47V33.652
	C306.105,26.3,312.066,20.339,319.418,20.339z"/>
<path style="fill:#34ABE0;" d="M489.388,155.585v205.772c-15.767,34.879-39.131,65.588-67.971,90.028
	c-10.031,8.495-20.72,16.238-31.984,23.124V155.585c0-3.041,2.466-5.507,5.507-5.507h88.942
	C486.922,150.079,489.388,152.545,489.388,155.585z"/>
<path style="fill:#279FC9;" d="M421.418,150.079v301.307c-10.031,8.495-20.72,16.238-31.984,23.124V155.585
	c0-3.041,2.466-5.507,5.507-5.507L421.418,150.079L421.418,150.079z"/>
<path style="fill:#34ABE0;" d="M492.906,196.311h-106.99c-2.748,0-4.976,2.228-4.976,4.976v11.79c0,2.748,2.228,4.976,4.976,4.976
	h106.991c2.748,0,4.976-2.228,4.976-4.976v-11.79C497.881,198.539,495.654,196.311,492.906,196.311z"/>
<path style="fill:#279FC9;" d="M410.428,213.076v-11.789c0-2.748,2.228-4.976,4.976-4.976h-29.488c-2.748,0-4.976,2.228-4.976,4.976
	v11.789c0,2.748,2.228,4.976,4.976,4.976h29.488C412.655,218.051,410.428,215.824,410.428,213.076z"/>
<path style="fill:#34ABE0;" d="M474.222,129.851h-69.624c-8.375,0-15.165,6.79-15.165,15.165v51.296h99.953v-51.296
	C489.387,136.64,482.598,129.851,474.222,129.851z"/>
<path style="fill:#279FC9;" d="M437.082,129.851h-32.483c-8.375,0-15.165,6.79-15.165,15.165v51.296h32.483v-51.296
	C421.917,136.64,428.707,129.851,437.082,129.851z"/>
<path style="fill:#34ABE0;" d="M464.597,20.339h-50.372c-7.353,0-13.313,5.96-13.313,13.313v99.403h76.999V33.652
	C477.91,26.3,471.949,20.339,464.597,20.339z"/>
<path style="fill:#279FC9;" d="M441.694,20.339h-27.47c-7.353,0-13.313,5.96-13.313,13.313v99.403h27.47V33.652
	C428.381,26.3,434.341,20.339,441.694,20.339z"/>
<g>
</g>
<g>
</g>
<g>
</g>
<g>
</g>
<g>
</g>
<g>
</g>
<g>
</g>
<g>
</g>
<g>
</g>
<g>
</g>
<g>
</g>
<g>
</g>
<g>
</g>
<g>
</g>
<g>
</g>
</svg>
