<?xml version="1.0" encoding="iso-8859-1"?>
<!-- Generator: Adobe Illustrator 19.0.0, SVG Export Plug-In . SVG Version: 6.00 Build 0)  -->
<svg version="1.1" id="Layer_1" xmlns="http://www.w3.org/2000/svg" xmlns:xlink="http://www.w3.org/1999/xlink" x="0px" y="0px"
	 viewBox="0 0 512 512" style="enable-background:new 0 0 512 512;" xml:space="preserve">
<path style="fill:#42577F;" d="M512,256c0,47.544-12.957,92.056-35.541,130.207c-6.917,11.692-14.745,22.784-23.372,33.176
	c-9.16,11.048-19.242,21.307-30.112,30.667c-44.823,38.606-103.171,61.945-166.969,61.945s-122.157-23.339-166.98-61.945
	c-10.87-9.36-20.941-19.619-30.101-30.656c-8.638-10.404-16.466-21.496-23.383-33.187C12.957,348.056,0,303.544,0,256
	c0-62.122,22.129-119.07,58.924-163.394c5.252-6.34,10.814-12.413,16.655-18.209c9.171-9.116,19.02-17.532,29.479-25.171
	c2.532-1.865,5.107-3.664,7.717-5.429c1.443-0.988,2.909-1.954,4.386-2.898c4.508-2.92,9.105-5.696,13.801-8.327
	C167.935,11.83,210.594,0.006,256.006,0.006s88.059,11.825,125.033,32.566c8.982,5.041,17.632,10.604,25.904,16.655
	c10.459,7.639,20.319,16.066,29.49,25.182c5.84,5.796,11.403,11.869,16.655,18.209C489.882,136.941,512,193.889,512,256z"/>
<g>
	<rect x="112.775" y="40.898" style="fill:#698084;" width="8.883" height="221.963"/>
	<rect x="182.869" y="40.898" style="fill:#698084;" width="8.883" height="221.963"/>
	<rect x="252.963" y="40.898" style="fill:#698084;" width="8.883" height="221.963"/>
	<rect x="323.057" y="40.898" style="fill:#698084;" width="8.883" height="221.963"/>
</g>
<path style="fill:#279CB7;" d="M436.987,213.53l-0.555-2.21v26.181c1.832-1.121,3.797-2.065,5.874-2.831L436.987,213.53z
	 M417.012,32.571H94.988c-19.886,0-36.063,16.177-36.063,36.074v350.749c9.16,11.037,19.231,21.296,30.101,30.656h333.95
	c10.87-9.36,20.952-19.619,30.112-30.667V68.645C453.087,48.748,436.898,32.571,417.012,32.571z M436.432,433.395H75.579V68.645
	c0-10.715,8.705-19.419,19.408-19.419h322.025c10.703,0,19.419,8.705,19.419,19.419V433.395z"/>
<circle style="fill:#E9E4D8;" cx="117.216" cy="274.548" r="35.047"/>
<path style="fill:#DBD7CC;" d="M104.235,274.548c0-15.5,10.066-28.641,24.014-33.265c-3.471-1.15-7.177-1.782-11.033-1.782
	c-19.356,0-35.047,15.691-35.047,35.047s15.691,35.047,35.047,35.047c3.856,0,7.563-0.632,11.033-1.782
	C114.301,303.188,104.235,290.048,104.235,274.548z"/>
<circle style="fill:#E9E4D8;" cx="187.31" cy="274.548" r="35.047"/>
<path style="fill:#DBD7CC;" d="M174.331,274.548c0-15.5,10.066-28.641,24.014-33.265c-3.471-1.15-7.177-1.782-11.033-1.782
	c-19.356,0-35.047,15.691-35.047,35.047s15.691,35.047,35.047,35.047c3.856,0,7.563-0.632,11.033-1.782
	C184.396,303.188,174.331,290.048,174.331,274.548z"/>
<circle style="fill:#E9E4D8;" cx="257.405" cy="274.548" r="35.047"/>
<path style="fill:#DBD7CC;" d="M244.425,274.548c0-15.5,10.066-28.641,24.014-33.265c-3.471-1.15-7.177-1.782-11.033-1.782
	c-19.356,0-35.047,15.691-35.047,35.047s15.691,35.047,35.047,35.047c3.856,0,7.563-0.632,11.033-1.782
	C254.491,303.188,244.425,290.048,244.425,274.548z"/>
<circle style="fill:#E9E4D8;" cx="327.499" cy="274.548" r="35.047"/>
<path style="fill:#DBD7CC;" d="M314.519,274.548c0-15.5,10.066-28.641,24.014-33.265c-3.471-1.15-7.177-1.782-11.033-1.782
	c-19.356,0-35.047,15.691-35.047,35.047s15.691,35.047,35.047,35.047c3.856,0,7.564-0.632,11.033-1.782
	C324.585,303.188,314.519,290.048,314.519,274.548z"/>
<path style="fill:#279CB7;" d="M453.087,236.714l-0.233-0.933l-0.822-3.242l-13.934-55.427v36.418l5.219,20.774l2.509,9.948
	l3.198,12.724l0.067,0.266l3.997-0.999l1.665-0.422v-12.491L453.087,236.714z"/>
<polygon style="fill:#698084;" points="456.595,255.078 453.642,255.822 447.979,257.244 436.987,213.53 395.672,49.226 
	404.821,49.226 436.987,177.112 453.642,243.331 "/>
<circle style="fill:#E9E4D8;" cx="454.574" cy="267.497" r="35.047"/>
<path style="fill:#DBD7CC;" d="M441.986,270.658c-3.779-15.031,2.777-30.231,15.177-38.117c-3.646-0.27-7.395,0.021-11.135,0.962
	c-18.772,4.72-30.163,23.764-25.442,42.536c4.72,18.772,23.764,30.163,42.536,25.442c3.74-0.94,7.18-2.457,10.266-4.419
	C458.733,295.98,445.766,285.691,441.986,270.658z"/>
<path style="fill:#F0A037;" d="M476.459,386.207c-6.917,11.692-14.745,22.784-23.372,33.176
	c-9.16,11.048-19.242,21.307-30.112,30.667c-44.823,38.606-103.171,61.945-166.969,61.945s-122.157-23.339-166.98-61.945
	c-10.87-9.36-20.941-19.619-30.101-30.656c-8.638-10.404-16.466-21.496-23.383-33.187L476.459,386.207L476.459,386.207z"/>
<g>
</g>
<g>
</g>
<g>
</g>
<g>
</g>
<g>
</g>
<g>
</g>
<g>
</g>
<g>
</g>
<g>
</g>
<g>
</g>
<g>
</g>
<g>
</g>
<g>
</g>
<g>
</g>
<g>
</g>
</svg>
