<svg height="512pt" viewBox="0 0 512 512" width="512pt" xmlns="http://www.w3.org/2000/svg"><path d="m512 256c0 141.386719-114.613281 256-256 256s-256-114.613281-256-256 114.613281-256 256-256 256 114.613281 256 256zm0 0" fill="#025f80"/><path d="m256 0c125.679688 0 230.199219 90.570312 251.871094 210h-503.742188c21.671875-119.429688 126.191406-210 251.871094-210zm0 0" fill="#017296"/><path d="m439.269531 322.5c0 24.8125-20.1875 45-45 45h-22.566406c-3.382813 6.253906-9.996094 10.5-17.601563 10.5-7.609374 0-14.222656-4.246094-17.601562-10.5h-95.820312c-3.578126 5.417969-9.714844 9-16.695313 9s-13.117187-3.582031-16.695313-9h-83.019531c-6.425781 0-12.292969 2.4375-16.722656 6.433594 2.109375 3.171875 3.34375 6.972656 3.34375 11.066406 0 7.269531-3.894531 13.617188-9.695313 17.117188 3.773438 9.023437 12.695313 15.382812 23.070313 15.382812h25.898437c2.96875-7.328125 10.144532-12.5 18.535157-12.5s15.5625 5.171875 18.53125 12.5h152.039062c5.519531 0 10 4.476562 10 10s-4.480469 10-10 10h-154.96875c-3.667969 4.566406-9.289062 7.5-15.601562 7.5s-11.933594-2.933594-15.597657-7.5h-28.832031c-21.582031 0-39.65625-15.273438-44-35.574219-5.628906-3.539062-9.378906-9.789062-9.378906-16.925781 0-10.261719 7.730469-18.703125 17.679687-19.855469 8.234376-10.71875 21.167969-17.644531 35.699219-17.644531h81.871094c3.296875-6.519531 10.039063-11 17.84375-11s14.546875 4.480469 17.84375 11h95.273437c3.527344-5.695312 9.8125-9.5 17-9.5s13.472657 3.804688 17 9.5h23.167969c13.785157 0 25-11.214844 25-25s-11.214843-25-25-25h-97.398437c-3.382813 6.253906-9.996094 10.5-17.601563 10.5-7.609375 0-14.222656-4.246094-17.605469-10.5h-132.394531c-5.523437 0-10-4.476562-10-10s4.476563-10 10-10h133c3.527344-5.695312 9.808594-9.5 17-9.5 7.1875 0 13.472657 3.804688 17 9.5h98c24.8125 0 45 20.1875 45 45zm0 0" fill="#5de0c3"/><path d="m345.296875 420.5h-24.535156v-233.085938h24.535156zm0 0" fill="#f8bb5e"/><path d="m479.355469 297.824219h-153.6875c-2.710938 0-4.90625-2.195313-4.90625-4.90625v-138.011719c0-2.710938 2.195312-4.90625 4.90625-4.90625h153.6875c3.695312 0 6.066406 3.929688 4.339843 7.199219l-34.027343 64.421875c-.757813 1.433594-.757813 3.148437 0 4.582031l34.027343 64.421875c1.726563 3.269531-.644531 7.199219-4.339843 7.199219zm0 0" fill="#fd7d43"/><path d="m354.269531 297.824219h-34.351562c-2.707031 0-4.90625-2.195313-4.90625-4.90625v-138.011719c0-2.710938 2.199219-4.90625 4.90625-4.90625h34.351562c-2.710937 0-4.910156 2.195312-4.910156 4.90625v138.011719c0 2.710937 2.199219 4.90625 4.910156 4.90625zm0 0" fill="#fc5426"/><path d="m362.269531 425c0 16.570312-13.433593 30-30 30-16.570312 0-30-13.429688-30-30s13.429688-30 30-30c16.566407 0 30 13.429688 30 30zm0 0" fill="#5de0c3"/><path d="m199.574219 200.476562c-18.617188 16.546876-28.964844 40.484376-28.964844 65.390626v1.695312h-79.21875v-2c0-25.121094-10.96875-48.820312-29.605469-65.660156-21.011718-18.984375-34.175781-46.484375-34.050781-77.0625.230469-56.9375 46.328125-102.839844 103.265625-102.839844 57.035156 0 103.269531 46.234375 103.269531 103.269531 0 30.710938-13.410156 58.292969-34.695312 77.207031zm0 0" fill="#fded32"/><path d="m170.609375 265.863281v1.699219h-52.339844v-2.003906c0-25.117188-10.96875-48.816406-29.605469-65.65625-21.011718-18.984375-34.175781-46.484375-34.050781-77.0625.210938-52.378906 39.242188-95.414063 89.816407-101.972656 50.6875 6.582031 89.839843 49.917968 89.839843 102.402343 0 30.710938-13.410156 58.292969-34.695312 77.207031-18.617188 16.542969-28.964844 40.484376-28.964844 65.386719zm0 0" fill="#fdf385"/><path d="m154.8125 44.757812c3.835938-5.039062 28.265625 2.820313 43.382812 19.804688 12.949219 14.546875 18.976563 35.695312 14.144532 39.136719-5.945313 4.234375-28.328125-18.378907-33.007813-23.105469-2.816406-2.847656-29.28125-29.585938-24.519531-35.835938zm0 0" fill="#fdf7bd"/><path d="m157.101562 114.539062h-52.203124c-15.988282 0-29 13.011719-29 29 0 12.792969 10.410156 23.199219 23.203124 23.199219 3.195313 0 5.796876 2.605469 5.796876 5.800781v75.402344c0 12.789063 10.410156 23.199219 23.203124 23.199219h5.796876c12.792968 0 23.203124-10.410156 23.203124-23.199219v-75.402344c0-3.195312 2.601563-5.800781 5.796876-5.800781 12.792968 0 23.203124-10.40625 23.203124-23.199219 0-15.988281-13.011718-29-29-29zm5.796876 34.800782c-12.789063 0-23.199219 10.40625-23.199219 23.199218v75.402344c0 3.195313-2.601563 5.796875-5.800781 5.796875h-5.796876c-3.199218 0-5.800781-2.601562-5.800781-5.796875v-75.402344c0-12.792968-10.410156-23.199218-23.199219-23.199218-3.199218 0-5.800781-2.601563-5.800781-5.800782 0-6.394531 5.203125-11.597656 11.597657-11.597656h52.203124c6.394532 0 11.597657 5.203125 11.597657 11.597656 0 3.199219-2.601563 5.800782-5.800781 5.800782zm0 0" fill="#e8ce00"/><path d="m184.050781 260.488281c0 6.332031-4.164062 11.695313-9.902343 13.496094v.652344c0 19.53125-15.835938 35.363281-35.367188 35.363281h-15.5625c-19.53125 0-35.363281-15.832031-35.363281-35.363281v-.652344c-5.742188-1.800781-9.902344-7.164063-9.902344-13.496094 0-7.8125 6.332031-14.144531 14.144531-14.144531h77.804688c7.8125-.003906 14.148437 6.332031 14.148437 14.144531zm0 0" fill="#88b9d3"/><path d="m184.050781 260.488281c0 6.332031-4.164062 11.695313-9.902343 13.496094v.652344c0 16.980469-11.976563 31.164062-27.941407 34.578125-10.636719-2.277344-19.503906-9.332032-24.234375-18.8125-1.183594-2.367188.5-5.15625 3.144532-5.15625h31.699218c2.984375 0 5.394532-2.464844 5.304688-5.46875-.089844-2.902344-2.621094-5.140625-5.527344-5.140625h-43.984375c-7.8125 0-14.144531-6.335938-14.144531-14.148438s6.332031-14.144531 14.144531-14.144531h57.292969c7.8125-.003906 14.148437 6.332031 14.148437 14.144531zm0 0" fill="#b3d1e1"/></svg>