<?xml version="1.0" encoding="iso-8859-1"?>
<!-- Generator: Adobe Illustrator 19.0.0, SVG Export Plug-In . SVG Version: 6.00 Build 0)  -->
<svg version="1.1" id="Layer_1" xmlns="http://www.w3.org/2000/svg" xmlns:xlink="http://www.w3.org/1999/xlink" x="0px" y="0px"
	 viewBox="0 0 512 512" style="enable-background:new 0 0 512 512;" xml:space="preserve">
<path style="fill:#42577F;" d="M512,256c0,116.827-78.255,215.368-185.212,246.079c-10.537,3.031-21.362,5.396-32.41,7.051
	c-12.513,1.888-25.326,2.865-38.372,2.865c-20.341,0-40.138-2.376-59.102-6.862c-10.77-2.543-21.285-5.763-31.477-9.626
	C68.74,458.932,0,365.499,0,256C0,114.612,114.618,0.006,256.006,0.006c68.273,0,130.318,26.736,176.218,70.316
	c2.065,1.954,4.097,3.953,6.096,5.985c18.265,18.509,33.72,39.805,45.69,63.177c1.033,2.021,2.043,4.053,3.02,6.107
	C503.04,179.022,512,216.462,512,256z"/>
<circle style="fill:#52C3DD;" cx="464.745" cy="105.291" r="39.227"/>
<polygon style="fill:#D6D0C4;" points="95.709,184.618 99.573,194.133 79.265,202.372 60.734,156.682 81.042,148.444 
	84.906,157.959 "/>
<polygon style="fill:#A35895;" points="215.634,104.93 226.449,131.589 95.709,184.618 84.906,157.959 "/>
<g>
	<polygon style="fill:#C1BBB0;" points="157.157,216.157 167.972,242.816 37.232,295.845 26.429,269.186 	"/>
	
		<rect x="153.736" y="143.563" transform="matrix(-0.3759 -0.9267 0.9267 -0.3759 123.1776 381.1903)" style="fill:#C1BBB0;" width="72.44" height="11.104"/>
	
		<rect x="97.884" y="166.215" transform="matrix(-0.3759 -0.9267 0.9267 -0.3759 25.3413 360.601)" style="fill:#C1BBB0;" width="72.44" height="11.104"/>
</g>
<path style="fill:#A35895;" d="M270.895,281.215v25.726h-51.963v-25.726c0-14.356,11.647-25.981,25.981-25.981
	C259.27,255.234,270.895,266.859,270.895,281.215z"/>
<g>
	<path style="fill:#D6D0C4;" d="M326.788,502.079c-10.537,3.031-21.362,5.396-32.41,7.051l-49.465-136.824v-32.488h23.217
		l5.085,14.068L326.788,502.079z"/>
	<path style="fill:#D6D0C4;" d="M244.913,339.818v32.488l-48.01,132.827c-10.77-2.543-21.285-5.763-31.477-9.626l51.197-141.621
		l5.085-14.068L244.913,339.818L244.913,339.818z"/>
</g>
<polygon style="fill:#E9E4D8;" points="292.013,306.941 292.013,339.818 268.13,339.818 244.913,339.818 221.708,339.818 
	197.836,339.818 197.836,306.941 218.932,306.941 270.895,306.941 "/>
<polygon style="fill:#C1BBB0;" points="273.215,353.885 216.623,353.885 221.708,339.818 268.13,339.818 "/>
<g>
	<path style="fill:#D6D0C4;" d="M244.913,231.995v23.239c-14.334,0-25.981,11.625-25.981,25.981l-22.317-16.533l-11.425-8.461
		L244.913,231.995z"/>
	<polygon style="fill:#D6D0C4;" points="72.015,228.22 97.752,291.686 59.213,297.87 40.06,250.637 	"/>
</g>
<polygon style="fill:#A35895;" points="498.665,140.871 442.028,163.844 437.92,153.718 427.738,128.613 412.183,90.252 
	408.074,80.115 464.701,57.142 484.375,105.641 "/>
<polygon style="fill:#8E4D85;" points="498.665,140.871 442.028,163.844 437.92,153.718 427.738,128.613 484.375,105.641 "/>
<polygon style="fill:#E9E4D8;" points="437.92,153.718 244.913,231.995 185.19,256.222 97.752,291.686 90.835,274.631 
	72.015,228.22 412.183,90.252 431.002,136.663 "/>
<polygon style="fill:#D8D2C5;" points="437.92,153.718 244.913,231.995 185.19,256.222 97.752,291.686 90.835,274.631 
	431.002,136.663 "/>
<polygon style="fill:#C1BBB0;" points="244.913,231.995 244.913,248.539 243.392,249.049 196.615,264.683 185.19,256.222 "/>
<circle style="fill:#E9E4D8;" cx="244.902" cy="283.131" r="8.883"/>
<g>
	<path style="fill:#F0A037;" d="M452.531,252.969h-16.655c-3.373,0-6.107-2.734-6.107-6.107v-16.655
		c0-3.373-2.734-6.107-6.107-6.107l0,0c-3.373,0-6.107,2.734-6.107,6.107v16.655c0,3.373-2.734,6.107-6.107,6.107h-16.655
		c-3.373,0-6.107,2.734-6.107,6.107l0,0c0,3.373,2.734,6.107,6.107,6.107h16.655c3.373,0,6.107,2.734,6.107,6.107v16.655
		c0,3.373,2.734,6.107,6.107,6.107l0,0c3.373,0,6.107-2.734,6.107-6.107v-16.655c0-3.373,2.734-6.107,6.107-6.107h16.655
		c3.373,0,6.107-2.734,6.107-6.107l0,0C458.638,255.704,455.905,252.969,452.531,252.969z"/>
	<path style="fill:#F0A037;" d="M138.057,338.208h-9.782c-1.981,0-3.586-1.606-3.586-3.586v-9.782c0-1.981-1.606-3.586-3.586-3.586
		l0,0c-1.981,0-3.586,1.606-3.586,3.586v9.782c0,1.981-1.606,3.586-3.586,3.586h-9.782c-1.981,0-3.586,1.606-3.586,3.586l0,0
		c0,1.981,1.606,3.586,3.586,3.586h9.782c1.981,0,3.586,1.606,3.586,3.586v9.782c0,1.981,1.606,3.586,3.586,3.586l0,0
		c1.981,0,3.586-1.606,3.586-3.586v-9.782c0-1.981,1.606-3.586,3.586-3.586h9.782c1.981,0,3.586-1.606,3.586-3.586l0,0
		C141.643,339.813,140.037,338.208,138.057,338.208z"/>
	<path style="fill:#F0A037;" d="M307.08,67.035h-9.782c-1.981,0-3.586-1.606-3.586-3.586v-9.782c0-1.981-1.606-3.586-3.586-3.586
		l0,0c-1.981,0-3.586,1.606-3.586,3.586v9.782c0,1.981-1.606,3.586-3.586,3.586h-9.782c-1.981,0-3.586,1.606-3.586,3.586l0,0
		c0,1.981,1.606,3.586,3.586,3.586h9.782c1.981,0,3.586,1.606,3.586,3.586v9.782c0,1.981,1.606,3.586,3.586,3.586l0,0
		c1.981,0,3.586-1.606,3.586-3.586v-9.782c0-1.981,1.606-3.586,3.586-3.586h9.782c1.981,0,3.586-1.606,3.586-3.586l0,0
		C310.666,68.641,309.061,67.035,307.08,67.035z"/>
</g>
<g>
</g>
<g>
</g>
<g>
</g>
<g>
</g>
<g>
</g>
<g>
</g>
<g>
</g>
<g>
</g>
<g>
</g>
<g>
</g>
<g>
</g>
<g>
</g>
<g>
</g>
<g>
</g>
<g>
</g>
</svg>
