<?xml version="1.0" encoding="iso-8859-1"?>
<!-- Generator: Adobe Illustrator 19.0.0, SVG Export Plug-In . SVG Version: 6.00 Build 0)  -->
<svg version="1.1" id="Layer_1" xmlns="http://www.w3.org/2000/svg" xmlns:xlink="http://www.w3.org/1999/xlink" x="0px" y="0px"
	 viewBox="0 0 512 512" style="enable-background:new 0 0 512 512;" xml:space="preserve">
<path style="fill:#77D7ED;" d="M512,256c0,44.823-11.525,86.96-31.766,123.6c-7.239,13.113-15.6,25.515-24.938,37.085
	c-0.933,1.155-1.876,2.309-2.831,3.442c-0.933,1.121-1.876,2.232-2.831,3.331c-3.931,4.541-8.017,8.938-12.258,13.191
	c-0.944,0.966-1.91,1.91-2.876,2.842c-0.977,0.955-1.954,1.899-2.953,2.831c-10.992,10.359-22.895,19.753-35.586,28.047
	c-15.522,10.159-32.21,18.676-49.831,25.304c-5.785,2.176-11.681,4.153-17.665,5.918c-22.972,6.773-47.288,10.404-72.459,10.404
	s-49.487-3.631-72.459-10.404c-5.985-1.754-11.88-3.731-17.676-5.918c-17.621-6.629-34.309-15.145-49.831-25.304
	c-12.691-8.294-24.593-17.687-35.586-28.047c-0.999-0.933-1.976-1.876-2.953-2.831c-0.966-0.933-1.932-1.876-2.876-2.842
	c-4.241-4.253-8.327-8.649-12.258-13.191c-0.955-1.099-1.899-2.21-2.831-3.331c-0.955-1.133-1.899-2.287-2.831-3.442
	c-9.338-11.569-17.698-23.972-24.938-37.085C11.525,342.96,0,300.823,0,256C0,114.612,114.618,0.006,256.006,0.006
	C397.382,0.006,512,114.612,512,256z"/>
<rect x="253.74" y="27.238" style="fill:#4D4D4D;" width="4.531" height="74.635"/>
<path style="fill:#F0A037;" d="M316.051,184.551v-50.22H195.949v50.22h-7.162v217.633l0.3,0.477l66.919-47.222l66.908,47.211
	l0.3-0.477V184.551L316.051,184.551L316.051,184.551z"/>
<path style="fill:#D3CDC1;" d="M328.465,494.129v7.461c-22.972,6.773-47.288,10.404-72.459,10.404s-49.487-3.631-72.459-10.404
	v-7.461H328.465z"/>
<rect x="183.546" y="475.115" style="fill:#DDD9CE;" width="144.918" height="19.009"/>
<polygon style="fill:#E9E4D8;" points="328.461,457.307 328.461,475.115 183.542,475.115 183.542,457.307 203.742,457.307 
	227.498,457.307 256.002,457.307 284.506,457.307 308.263,457.307 "/>
<path style="fill:#F0A037;" d="M342.599,179.044h-6.207v192.729l-0.255,0.4l17.665,11.78v21.684l-17.554-11.703l-0.255,0.366v47.566
	h10.137v28.502h49.831c12.691-8.294,24.594-17.687,35.586-28.047c0.999-0.933,1.976-1.876,2.953-2.831h-6.973v-26.115
	c0-6.573,5.318-11.903,11.891-11.903h1.155c6.573,0,11.891,5.329,11.891,11.903v6.751c0.955-1.133,1.899-2.287,2.831-3.442
	c9.338-11.569,17.698-23.972,24.938-37.085V236.636L342.599,179.044z M452.465,367.032h-24.938v-26.115
	c0-6.573,5.318-11.903,11.891-11.903h1.155c6.573,0,11.891,5.329,11.891,11.903V367.032z M452.465,294.561h-24.938v-26.104
	c0-6.573,5.318-11.903,11.891-11.903h1.155c6.573,0,11.891,5.33,11.891,11.903V294.561z M398.936,439.491h-24.949v-26.115
	c0-6.573,5.341-11.903,11.903-11.903h1.155c6.573,0,11.891,5.329,11.891,11.903V439.491z M398.936,367.032h-24.949v-26.115
	c0-6.573,5.341-11.903,11.903-11.903h1.155c6.573,0,11.891,5.329,11.891,11.903V367.032z M398.936,294.561h-24.949v-26.104
	c0-6.573,5.341-11.903,11.903-11.903h1.155c6.573,0,11.891,5.33,11.891,11.903V294.561z"/>
<polygon style="fill:#E09132;" points="480.235,236.642 480.235,248.73 329.303,191.16 330.191,166.636 "/>
<polygon style="fill:#EB305B;" points="497.852,224.305 497.852,243.36 480.235,236.642 342.6,184.144 342.6,179.045 342.6,165.1 
	"/>
<path style="fill:#FCBA6B;" d="M395.961,470.369c-15.522,10.159-32.21,18.676-49.831,25.304v-25.304H395.961z"/>
<g>
	<path style="fill:#4D4D4D;" d="M452.465,413.376v6.751c-0.933,1.121-1.876,2.232-2.831,3.331
		c-3.931,4.541-8.016,8.938-12.258,13.191c-0.944,0.966-1.91,1.91-2.876,2.842h-6.973v-26.115c0-6.573,5.318-11.903,11.891-11.903
		h1.155C447.146,401.474,452.465,406.803,452.465,413.376z"/>
	<path style="fill:#4D4D4D;" d="M452.468,340.914v26.114h-24.947v-26.114c0-6.571,5.325-11.896,11.896-11.896h1.156
		C447.144,329.018,452.468,334.343,452.468,340.914z"/>
	<path style="fill:#4D4D4D;" d="M452.468,268.453v26.113h-24.947v-26.114c0-6.571,5.325-11.896,11.896-11.896h1.156
		C447.144,256.558,452.468,261.882,452.468,268.453z"/>
	<path style="fill:#4D4D4D;" d="M398.939,413.373v26.114h-24.947v-26.114c0-6.571,5.336-11.896,11.896-11.896h1.156
		C393.615,401.478,398.939,406.802,398.939,413.373z"/>
	<path style="fill:#4D4D4D;" d="M398.939,340.914v26.114h-24.947v-26.114c0-6.571,5.336-11.896,11.896-11.896h1.156
		C393.615,329.018,398.939,334.343,398.939,340.914z"/>
</g>
<path style="fill:#E09132;" d="M270.151,134.332c0.067,0.522,0.1,1.055,0.1,1.599c0,7.872-6.373,14.245-14.245,14.245
	s-14.256-6.373-14.256-14.245c0-0.544,0.033-1.077,0.1-1.599h-45.9v33.609h120.103v-33.609H270.151z"/>
<path style="fill:#4D4D4D;" d="M398.939,268.453v26.113h-24.947v-26.114c0-6.571,5.336-11.896,11.896-11.896h1.156
	C393.615,256.558,398.939,261.882,398.939,268.453z"/>
<path style="fill:#EB305B;" d="M258.271,76.417l-2.265-1.732l-2.265,1.732l-101.794,77.933h208.107L258.271,76.417z
	 M256.006,108.084c7.872,0,14.245,6.373,14.245,14.245c0,5.041-2.609,9.471-6.562,12.003c-2.21,1.421-4.852,2.254-7.683,2.254
	c-2.831,0-5.474-0.833-7.694-2.254c-3.942-2.532-6.562-6.962-6.562-12.003C241.749,114.457,248.133,108.084,256.006,108.084z"/>
<g>
	<path style="fill:#D3CDC1;" d="M346.13,441.867v53.806c-5.785,2.176-11.681,4.153-17.665,5.918v-59.724L346.13,441.867
		L346.13,441.867z"/>
	<polygon style="fill:#D3CDC1;" points="342.6,154.348 342.6,179.045 336.392,179.045 336.392,179.034 314.176,179.034 
		314.176,179.045 307.979,179.045 307.979,154.348 	"/>
</g>
<polygon style="fill:#E9E4D8;" points="336.392,179.045 336.392,371.773 336.131,372.17 313.904,357.352 314.176,356.954 
	314.176,179.045 "/>
<polygon style="fill:#FCBA6B;" points="336.245,393.932 335.996,394.306 335.996,441.865 328.461,441.865 328.461,457.307 
	308.263,457.307 308.263,402.667 203.742,402.667 203.742,457.307 183.542,457.307 183.542,441.865 176.008,441.865 
	176.008,394.306 175.76,393.932 256.002,340.437 "/>
<path style="fill:#EB305B;" d="M323.455,27.238c0,9.064,0,18.126,0,27.189c-23.247,6.525-46.482-6.525-69.718,0
	c0-9.064,0-18.126,0-27.189C276.972,20.713,300.207,33.764,323.455,27.238z"/>
<g>
	<rect x="284.507" y="402.667" style="fill:#4D4D4D;" width="23.756" height="54.639"/>
	<rect x="256.006" y="402.667" style="fill:#4D4D4D;" width="28.504" height="54.639"/>
	<path style="fill:#4D4D4D;" d="M268.475,263.82v26.114h-24.947V263.82c0-6.571,5.325-11.896,11.896-11.896h1.156
		C263.15,251.924,268.475,257.249,268.475,263.82z"/>
</g>
<polygon style="fill:#EAA860;" points="336.245,393.932 335.996,394.306 335.996,406.598 256.002,353.273 176.008,406.598 
	176.008,394.306 175.76,393.932 256.002,340.437 "/>
<g>
	<path style="fill:#4D4D4D;" d="M268.475,199.563v26.114h-24.947v-26.114c0-6.571,5.325-11.896,11.896-11.896h1.156
		C263.15,187.667,268.475,192.992,268.475,199.563z"/>
	<circle style="fill:#4D4D4D;" cx="256.006" cy="122.335" r="14.252"/>
	<rect x="227.504" y="402.667" style="fill:#4D4D4D;" width="28.504" height="54.639"/>
	<rect x="203.743" y="402.667" style="fill:#4D4D4D;" width="23.756" height="54.639"/>
</g>
<path style="fill:#D3CDC1;" d="M183.546,441.867v59.724c-5.985-1.754-11.88-3.731-17.676-5.918v-53.806L183.546,441.867
	L183.546,441.867z"/>
<path style="fill:#F0A037;" d="M175.763,393.935l-17.565,11.703v-21.684l17.554-11.703l0.122-0.078l-0.278-0.4V179.044h-6.196
	L31.766,236.636V379.6c7.239,13.113,15.6,25.515,24.938,37.085c0.933,1.155,1.876,2.309,2.831,3.442v-6.751
	c0-6.573,5.33-11.903,11.891-11.903h1.155c6.562,0,11.903,5.329,11.903,11.903v26.115H77.5c0.977,0.955,1.954,1.899,2.953,2.831
	c10.992,10.359,22.895,19.753,35.586,28.047h49.831v-28.502h10.137v-47.566L175.763,393.935z M138.001,439.491h-24.938v-26.115
	c0-6.573,5.33-11.903,11.891-11.903h1.155c6.562,0,11.891,5.329,11.891,11.903V439.491z M138.001,367.032h-24.938v-26.115
	c0-6.573,5.33-11.903,11.891-11.903h1.155c6.562,0,11.891,5.329,11.891,11.903V367.032z M138.001,294.561h-24.938v-26.104
	c0-6.573,5.33-11.903,11.891-11.903h1.155c6.562,0,11.891,5.33,11.891,11.903V294.561z M84.484,367.032H59.535v-26.115
	c0-6.573,5.33-11.903,11.891-11.903h1.155c6.562,0,11.903,5.329,11.903,11.903C84.484,340.917,84.484,367.032,84.484,367.032z
	 M84.484,294.561H59.535v-26.104c0-6.573,5.33-11.903,11.891-11.903h1.155c6.562,0,11.903,5.33,11.903,11.903
	C84.484,268.458,84.484,294.561,84.484,294.561z"/>
<polygon style="fill:#E09132;" points="175.601,179.045 183.71,190.78 31.768,248.73 31.768,236.642 169.404,179.045 
	191.05,175.873 "/>
<polygon style="fill:#EB305B;" points="169.415,179.045 169.415,184.144 31.768,236.642 14.152,243.36 14.152,224.305 
	169.404,165.1 169.404,179.045 "/>
<path style="fill:#FCBA6B;" d="M165.87,470.369v25.304c-17.621-6.629-34.309-15.145-49.831-25.304H165.87z"/>
<g>
	<path style="fill:#4D4D4D;" d="M138,413.373v26.114h-24.935v-26.114c0-6.571,5.325-11.896,11.896-11.896h1.145
		C132.675,401.478,138,406.802,138,413.373z"/>
	<path style="fill:#4D4D4D;" d="M138,340.914v26.114h-24.935v-26.114c0-6.571,5.325-11.896,11.896-11.896h1.145
		C132.675,329.018,138,334.343,138,340.914z"/>
</g>
<polygon style="fill:#D3CDC1;" points="204.025,154.348 204.025,179.045 197.828,179.045 197.828,179.034 175.601,179.034 
	175.601,179.045 169.415,179.045 169.415,165.1 169.404,165.1 169.404,154.348 "/>
<polygon style="fill:#E9E4D8;" points="197.828,356.967 198.089,357.363 175.873,372.17 175.601,371.773 175.601,179.045 
	197.828,179.045 "/>
<g>
	<polygon style="fill:#D3CDC1;" points="182.659,379.794 182.741,379.794 175.688,372.17 175.601,371.773 175.601,179.045 
		182.659,179.045 	"/>
	<polygon style="fill:#D3CDC1;" points="320.962,379.794 321.046,379.794 313.991,372.17 313.904,371.773 313.904,179.045 
		320.962,179.045 	"/>
</g>
<g>
	<path style="fill:#4D4D4D;" d="M138,268.453v26.113h-24.935v-26.114c0-6.571,5.325-11.896,11.896-11.896h1.145
		C132.675,256.558,138,261.882,138,268.453z"/>
	<path style="fill:#4D4D4D;" d="M84.484,413.376v26.115H77.5c-0.966-0.933-1.932-1.876-2.876-2.842
		c-4.241-4.253-8.327-8.649-12.258-13.191c-0.955-1.099-1.899-2.21-2.831-3.331v-6.751c0-6.573,5.33-11.903,11.891-11.903h1.155
		C79.143,401.474,84.484,406.803,84.484,413.376z"/>
	<path style="fill:#4D4D4D;" d="M84.483,340.914v26.114H59.536v-26.114c0-6.571,5.325-11.896,11.895-11.896h1.156
		C79.147,329.018,84.483,334.343,84.483,340.914z"/>
	<path style="fill:#4D4D4D;" d="M84.483,268.453v26.113H59.536v-26.114c0-6.571,5.325-11.896,11.895-11.896h1.156
		C79.147,256.558,84.483,261.882,84.483,268.453z"/>
</g>
<g>
	<path style="fill:#CE8228;" d="M256.583,184.84h-1.155c-8.128,0-14.734,6.606-14.734,14.723v28.946h30.611v-28.946
		C271.306,191.446,264.699,184.84,256.583,184.84z M265.643,222.846h-19.286v-23.283c0-4.996,4.075-9.06,9.071-9.06h1.155
		c4.996,0,9.06,4.064,9.06,9.06V222.846z"/>
	<path style="fill:#CE8228;" d="M256.583,249.094h-1.155c-8.128,0-14.734,6.606-14.734,14.723v28.946h30.611v-28.946
		C271.306,255.7,264.699,249.094,256.583,249.094z M265.643,287.1h-19.286v-23.283c0-4.996,4.075-9.06,9.071-9.06h1.155
		c4.996,0,9.06,4.064,9.06,9.06V287.1z"/>
	<path style="fill:#CE8228;" d="M72.581,253.724h-1.155c-8.116,0-14.723,6.606-14.723,14.734v28.946h30.611v-28.946
		C87.315,260.33,80.709,253.724,72.581,253.724z M81.653,291.73H62.366v-23.272c0-4.996,4.064-9.071,9.06-9.071h1.155
		c5.008,0,9.071,4.075,9.071,9.071V291.73z"/>
	<path style="fill:#CE8228;" d="M126.11,253.724h-1.144c-8.128,0-14.734,6.606-14.734,14.734v28.946h30.6v-28.946
		C140.832,260.33,134.226,253.724,126.11,253.724z M135.17,291.73h-19.275v-23.272c0-4.996,4.064-9.071,9.071-9.071h1.144
		c4.996,0,9.06,4.075,9.06,9.071C135.17,268.458,135.17,291.73,135.17,291.73z"/>
	<path style="fill:#CE8228;" d="M72.581,326.183h-1.155c-8.116,0-14.723,6.606-14.723,14.734v28.946h30.611v-28.946
		C87.315,332.789,80.709,326.183,72.581,326.183z M81.653,364.189H62.366v-23.272c0-4.996,4.064-9.071,9.06-9.071h1.155
		c5.008,0,9.071,4.075,9.071,9.071V364.189z"/>
	<path style="fill:#CE8228;" d="M126.11,326.183h-1.144c-8.128,0-14.734,6.606-14.734,14.734v28.946h30.6v-28.946
		C140.832,332.789,134.226,326.183,126.11,326.183z M135.17,364.189h-19.275v-23.272c0-4.996,4.064-9.071,9.071-9.071h1.144
		c4.996,0,9.06,4.075,9.06,9.071C135.17,340.917,135.17,364.189,135.17,364.189z"/>
	<path style="fill:#CE8228;" d="M72.581,398.642h-1.155c-8.116,0-14.723,6.606-14.723,14.734v3.309
		c0.933,1.155,1.876,2.309,2.831,3.442c0.933,1.121,1.876,2.232,2.831,3.331v-10.082c0-4.996,4.064-9.071,9.06-9.071h1.155
		c5.008,0,9.071,4.075,9.071,9.071v23.272h-7.028c0.944,0.966,1.91,1.91,2.876,2.842c0.977,0.955,1.954,1.899,2.953,2.831h6.862
		v-28.946C87.315,405.249,80.709,398.642,72.581,398.642z"/>
	<path style="fill:#CE8228;" d="M126.11,398.642h-1.144c-8.128,0-14.734,6.606-14.734,14.734v28.946h30.6v-28.946
		C140.832,405.249,134.226,398.642,126.11,398.642z M135.17,436.648h-19.275v-23.272c0-4.996,4.064-9.071,9.071-9.071h1.144
		c4.996,0,9.06,4.075,9.06,9.071C135.17,413.376,135.17,436.648,135.17,436.648z"/>
	<polygon style="fill:#CE8228;" points="201.476,400.401 201.476,457.306 206.008,457.306 206.008,404.932 225.233,404.932 
		225.233,457.306 229.764,457.306 229.764,404.932 253.736,404.932 253.736,457.306 258.268,457.306 258.268,404.932 
		282.24,404.932 282.24,457.306 286.771,457.306 286.771,404.932 305.996,404.932 305.996,457.306 310.528,457.306 310.528,400.401 
			"/>
	<path style="fill:#CE8228;" d="M440.573,253.724h-1.155c-8.116,0-14.734,6.606-14.734,14.734v28.946h30.611v-28.946
		C455.296,260.33,448.69,253.724,440.573,253.724z M449.634,291.73h-19.275v-23.272c0-4.996,4.064-9.071,9.06-9.071h1.155
		c4.996,0,9.06,4.075,9.06,9.071L449.634,291.73L449.634,291.73z"/>
	<path style="fill:#CE8228;" d="M387.045,253.724h-1.155c-8.128,0-14.734,6.606-14.734,14.734v28.946h30.611v-28.946
		C401.768,260.33,395.161,253.724,387.045,253.724z M396.105,291.73H376.83v-23.272c0-4.996,4.064-9.071,9.06-9.071h1.155
		c4.996,0,9.06,4.075,9.06,9.071L396.105,291.73L396.105,291.73z"/>
	<path style="fill:#CE8228;" d="M440.573,326.183h-1.155c-8.116,0-14.734,6.606-14.734,14.734v28.946h30.611v-28.946
		C455.296,332.789,448.69,326.183,440.573,326.183z M449.634,364.189h-19.275v-23.272c0-4.996,4.064-9.071,9.06-9.071h1.155
		c4.996,0,9.06,4.075,9.06,9.071L449.634,364.189L449.634,364.189z"/>
	<path style="fill:#CE8228;" d="M387.045,326.183h-1.155c-8.128,0-14.734,6.606-14.734,14.734v28.946h30.611v-28.946
		C401.768,332.789,395.161,326.183,387.045,326.183z M396.105,364.189H376.83v-23.272c0-4.996,4.064-9.071,9.06-9.071h1.155
		c4.996,0,9.06,4.075,9.06,9.071L396.105,364.189L396.105,364.189z"/>
	<path style="fill:#CE8228;" d="M440.573,398.642h-1.155c-8.116,0-14.734,6.606-14.734,14.734v28.946h6.862
		c0.999-0.933,1.976-1.876,2.953-2.831c0.966-0.933,1.932-1.876,2.876-2.842h-7.017v-23.272c0-4.996,4.064-9.071,9.06-9.071h1.155
		c4.996,0,9.06,4.075,9.06,9.071v10.082c0.955-1.099,1.899-2.21,2.831-3.331c0.955-1.133,1.899-2.287,2.831-3.442v-3.309
		C455.296,405.249,448.69,398.642,440.573,398.642z"/>
	<path style="fill:#CE8228;" d="M387.045,398.642h-1.155c-8.128,0-14.734,6.606-14.734,14.734v28.946h30.611v-28.946
		C401.768,405.249,395.161,398.642,387.045,398.642z M396.105,436.648H376.83v-23.272c0-4.996,4.064-9.071,9.06-9.071h1.155
		c4.996,0,9.06,4.075,9.06,9.071L396.105,436.648L396.105,436.648z"/>
</g>
<path style="fill:#DD2A59;" d="M256.006,105.252c-9.427,0-17.088,7.661-17.088,17.077c0,4.674,1.888,8.916,4.93,12.003
	c3.109,3.142,7.406,5.085,12.158,5.085c4.741,0,9.049-1.943,12.147-5.085c3.053-3.087,4.93-7.328,4.93-12.003
	C273.082,112.914,265.421,105.252,256.006,105.252z M244.58,122.329c0-6.295,5.13-11.414,11.425-11.414
	c6.296,0,11.414,5.119,11.414,11.414c0,6.295-5.119,11.425-11.414,11.425C249.71,133.754,244.58,128.625,244.58,122.329z"/>
<polygon style="fill:#EB305B;" points="353.804,383.952 353.804,405.635 336.245,393.932 256.002,340.437 175.76,393.932 
	158.2,405.635 158.2,383.952 175.873,372.17 198.089,357.363 256.002,318.754 313.904,357.352 336.131,372.17 "/>
<path style="fill:#C6C1B6;" d="M169.401,154.351v8.305h34.62v-8.305H169.401z M307.979,154.351v8.305h34.62v-8.305H307.979z"/>
<g>
	<path style="fill:#FFFFFF;" d="M163.743,83.753c-2.869-7.244-13.086-12.602-25.253-12.602c-12.246,0-22.513,5.428-25.304,12.743
		c-1.095-0.093-2.218-0.144-3.364-0.144c-11.246,0-20.364,4.676-20.364,10.443h101.297
		C190.756,88.462,178.686,83.812,163.743,83.753z"/>
	<path style="fill:#FFFFFF;" d="M441.322,151.113c-2.869-7.244-13.086-12.602-25.253-12.602c-12.246,0-22.513,5.428-25.304,12.743
		c-1.095-0.093-2.218-0.144-3.364-0.144c-11.246,0-20.364,4.676-20.364,10.443h101.297
		C468.335,155.822,456.267,151.171,441.322,151.113z"/>
</g>
<g>
</g>
<g>
</g>
<g>
</g>
<g>
</g>
<g>
</g>
<g>
</g>
<g>
</g>
<g>
</g>
<g>
</g>
<g>
</g>
<g>
</g>
<g>
</g>
<g>
</g>
<g>
</g>
<g>
</g>
</svg>
