<svg xmlns="http://www.w3.org/2000/svg" xmlns:xlink="http://www.w3.org/1999/xlink" viewBox="0 0 576.41 404.35"><defs><style>.cls-1{isolation:isolate;}.cls-2{fill:#091e42;opacity:0.05;}.cls-3{fill:#a27f68;}.cls-13,.cls-4,.cls-5,.cls-51,.cls-6{opacity:0.6;}.cls-4{fill:url(#T300-T100);}.cls-5{fill:url(#T300-T100-2);}.cls-6{fill:url(#T200-T75);}.cls-7{opacity:0.8;fill:url(#T200-T75-2);}.cls-8{fill:#e5e8ec;}.cls-9{fill:url(#B300-B100);}.cls-10,.cls-12,.cls-18,.cls-21,.cls-40{fill:none;}.cls-10,.cls-11{opacity:0.3;}.cls-11{fill:#99c1ff;}.cls-13{fill:#9ce3ee;mix-blend-mode:soft-light;}.cls-14,.cls-36{fill:#243759;}.cls-14{mix-blend-mode:screen;}.cls-15{fill:#8993a4;}.cls-16{fill:#172b4d;}.cls-17{fill:#ff991f;}.cls-18,.cls-21,.cls-40{stroke-miterlimit:10;}.cls-18{stroke-width:2.7px;opacity:0.4;stroke:url(#linear-gradient);}.cls-18,.cls-31,.cls-32,.cls-33,.cls-34,.cls-35,.cls-38,.cls-39{mix-blend-mode:multiply;}.cls-19{fill:url(#linear-gradient-2);}.cls-20{fill:url(#linear-gradient-3);}.cls-21{stroke-width:7.2px;stroke:url(#linear-gradient-4);}.cls-22{fill:url(#linear-gradient-5);}.cls-23{fill:#5e6c84;}.cls-24{fill:#ffab00;}.cls-25{fill:#ffc400;}.cls-26{fill:#fff2bf;}.cls-27{fill:#344563;}.cls-28{fill:url(#linear-gradient-6);}.cls-29{fill:#6c798f;}.cls-30{opacity:0.1;}.cls-31{fill:url(#linear-gradient-7);}.cls-32{fill:url(#linear-gradient-8);}.cls-33{fill:url(#linear-gradient-9);}.cls-34{fill:url(#linear-gradient-10);}.cls-35{fill:url(#linear-gradient-11);}.cls-37{fill:url(#B400-B200);}.cls-38{fill:url(#linear-gradient-12);}.cls-39{fill:url(#linear-gradient-13);}.cls-40{stroke:#99c1ff;stroke-linecap:round;stroke-width:2.72px;}.cls-41{fill:#253858;}.cls-42{fill:#1db9d4;}.cls-43{fill:#6bd5e5;}.cls-44{fill:#3dc7dc;}.cls-45{fill:#efc7b0;}.cls-46{fill:#72594b;}.cls-47{fill:url(#linear-gradient-14);}.cls-48{fill:url(#linear-gradient-15);}.cls-49{fill:url(#linear-gradient-16);}.cls-50{fill:url(#Y300-Y100);}.cls-52{fill:url(#linear-gradient-17);}.cls-53{fill:#fff;}</style><linearGradient id="T300-T100" x1="16.01" y1="165.42" x2="203.87" y2="165.42" gradientUnits="userSpaceOnUse"><stop offset="0" stop-color="#1db9d4"/><stop offset="1" stop-color="#6bd5e5"/></linearGradient><linearGradient id="T300-T100-2" x1="254" y1="47.45" x2="373.52" y2="47.45" xlink:href="#T300-T100"/><linearGradient id="T200-T75" x1="56.49" y1="95.45" x2="203.87" y2="95.45" gradientUnits="userSpaceOnUse"><stop offset="0" stop-color="#3dc7dc"/><stop offset="1" stop-color="#9ce3ee"/></linearGradient><linearGradient id="T200-T75-2" x1="140.2" y1="140.36" x2="576.41" y2="140.36" xlink:href="#T200-T75"/><linearGradient id="B300-B100" x1="16.01" y1="287.46" x2="556.27" y2="287.46" gradientUnits="userSpaceOnUse"><stop offset="0" stop-color="#0065ff"/><stop offset="1" stop-color="#66a3ff"/></linearGradient><linearGradient id="linear-gradient" x1="333.51" y1="231.19" x2="530.15" y2="231.19" gradientUnits="userSpaceOnUse"><stop offset="0" stop-color="#6c798f"/><stop offset="0.91" stop-color="#6c798f" stop-opacity="0"/></linearGradient><linearGradient id="linear-gradient-2" x1="469.13" y1="244.3" x2="469.13" y2="58.69" gradientUnits="userSpaceOnUse"><stop offset="0" stop-color="#344563"/><stop offset="1" stop-color="#6c798f"/></linearGradient><linearGradient id="linear-gradient-3" x1="401.06" y1="241.04" x2="401.06" y2="58.22" xlink:href="#linear-gradient-2"/><linearGradient id="linear-gradient-4" x1="389.96" y1="77.55" x2="484.18" y2="77.55" gradientUnits="userSpaceOnUse"><stop offset="0" stop-color="#344563"/><stop offset="0.27" stop-color="#6c798f"/></linearGradient><linearGradient id="linear-gradient-5" x1="437.07" y1="51.13" x2="437.07" y2="16.95" gradientUnits="userSpaceOnUse"><stop offset="0" stop-color="#6c798f"/><stop offset="1" stop-color="#344563"/></linearGradient><linearGradient id="linear-gradient-6" x1="349.87" y1="180.5" x2="392.65" y2="180.5" gradientTransform="translate(-41.51 174.27) rotate(-25.06)" gradientUnits="userSpaceOnUse"><stop offset="0" stop-color="#6c798f"/><stop offset="1" stop-color="#a5adba"/></linearGradient><linearGradient id="linear-gradient-7" x1="221.86" y1="237.32" x2="494.79" y2="237.32" gradientUnits="userSpaceOnUse"><stop offset="0" stop-color="#091e42" stop-opacity="0.1"/><stop offset="0.07" stop-color="#091e42" stop-opacity="0.27"/><stop offset="0.25" stop-color="#091e42" stop-opacity="0.59"/><stop offset="0.44" stop-color="#091e42" stop-opacity="0.82"/><stop offset="0.66" stop-color="#091e42" stop-opacity="0.96"/><stop offset="1" stop-color="#091e42"/></linearGradient><linearGradient id="linear-gradient-8" x1="221.86" y1="234.31" x2="494.79" y2="234.31" xlink:href="#linear-gradient-7"/><linearGradient id="linear-gradient-9" x1="225.99" y1="238.83" x2="491.12" y2="238.83" xlink:href="#linear-gradient-7"/><linearGradient id="linear-gradient-10" x1="169.49" y1="235.8" x2="502.6" y2="235.8" xlink:href="#linear-gradient-7"/><linearGradient id="linear-gradient-11" x1="150.87" y1="203.92" x2="229.71" y2="203.92" gradientUnits="userSpaceOnUse"><stop offset="0" stop-color="#e5e8ec" stop-opacity="0.1"/><stop offset="0.09" stop-color="#e0e3e8" stop-opacity="0.31"/><stop offset="0.18" stop-color="#dbdfe5" stop-opacity="0.49"/><stop offset="0.28" stop-color="#d8dce2" stop-opacity="0.65"/><stop offset="0.39" stop-color="#d4d9df" stop-opacity="0.78"/><stop offset="0.51" stop-color="#d2d7dd" stop-opacity="0.88"/><stop offset="0.63" stop-color="#d0d5dc" stop-opacity="0.95"/><stop offset="0.78" stop-color="#cfd4db" stop-opacity="0.99"/><stop offset="1" stop-color="#cfd4db"/></linearGradient><linearGradient id="B400-B200" x1="213.03" y1="169.52" x2="242.15" y2="140.4" gradientUnits="userSpaceOnUse"><stop offset="0" stop-color="#0057d8"/><stop offset="1" stop-color="#3384ff"/></linearGradient><linearGradient id="linear-gradient-12" x1="124.74" y1="319.57" x2="194.41" y2="319.57" gradientTransform="translate(520.67 184.53) rotate(90)" xlink:href="#linear-gradient-11"/><linearGradient id="linear-gradient-13" x1="241.28" y1="191.73" x2="310.95" y2="191.73" gradientTransform="matrix(0, 0.65, -1, 0, 392.83, 35.13)" xlink:href="#linear-gradient-11"/><linearGradient id="linear-gradient-14" x1="423.74" y1="210.94" x2="448.26" y2="210.94" gradientUnits="userSpaceOnUse"><stop offset="0.11" stop-color="#ff8b00"/><stop offset="0.9" stop-color="#ffab00"/></linearGradient><linearGradient id="linear-gradient-15" x1="423.89" y1="236.82" x2="423.89" y2="191.75" gradientUnits="userSpaceOnUse"><stop offset="0" stop-color="#ffc400"/><stop offset="1" stop-color="#ff991f"/></linearGradient><linearGradient id="linear-gradient-16" x1="-146.97" y1="181.8" x2="-128.82" y2="181.8" gradientTransform="matrix(-1, 0, 0, 1, 288.85, 0)" gradientUnits="userSpaceOnUse"><stop offset="0" stop-color="#ffab00"/><stop offset="0.3" stop-color="#ffad02"/><stop offset="0.9" stop-color="#ffd740"/></linearGradient><linearGradient id="Y300-Y100" x1="-145.02" y1="167.47" x2="-103.53" y2="167.47" gradientTransform="matrix(-1, 0, 0, 1, 288.85, 0)" gradientUnits="userSpaceOnUse"><stop offset="0" stop-color="#ffab00"/><stop offset="1" stop-color="#ffd740"/></linearGradient><linearGradient id="linear-gradient-17" x1="226.22" y1="342.15" x2="221.09" y2="333.26" gradientTransform="matrix(1, 0, 0, -1, 0, 496.06)" gradientUnits="userSpaceOnUse"><stop offset="0" stop-color="#fff" stop-opacity="0.4"/><stop offset="0.92" stop-color="#fff"/></linearGradient></defs><title>Planning</title><g class="cls-1"><g id="Layer_2" data-name="Layer 2"><g id="Layer_1-2" data-name="Layer 1"><polygon class="cls-2" points="0.9 403.76 573.21 403.76 513.18 183.72 60.93 183.72 0.9 403.76"/><path class="cls-3" d="M213.64,142.94s1.32-2.46,2-2.73,1.2-.14,1.25-.44-1-.36-1.15-.53,0-.36-.28-.44a2.7,2.7,0,0,0-1.09-.15,6.75,6.75,0,0,0-2.45,1.38c-.41.53-1.32,1.57-1.33,2.27s2.47.79,2.47.79Z"/><path class="cls-4" d="M125.3,144.36a45.67,45.67,0,0,0-43.56,4.7A47.65,47.65,0,0,0,64.17,173.3a34.29,34.29,0,0,0-22.23-4.17C24.32,172.05,16.65,188.54,16,190H203.87c-13.19-.21-26.5-2.86-38.09-9.36-13.1-7.34-19.21-20.4-30.25-29.88A39.91,39.91,0,0,0,125.3,144.36Z"/><path class="cls-5" d="M323.53,34.05a29.06,29.06,0,0,0-27.71,3,30.32,30.32,0,0,0-11.18,15.42,21.82,21.82,0,0,0-14.14-2.65c-11.21,1.86-16.09,12.35-16.5,13.26H373.52c-8.39-.14-16.86-1.82-24.23-6-8.33-4.67-12.22-13-19.25-19A25.39,25.39,0,0,0,323.53,34.05Z"/><path class="cls-6" d="M142.23,80.52c-10.87-8.14-26.27-7.33-37.12-.94C94,86.12,90.16,97,89.14,100.35a14.87,14.87,0,0,0-9-.19c-5,1.65-6.39,5.72-11.66,10a33.28,33.28,0,0,1-12,6.12H203.87c-12.82-1.44-19.67-6.07-23.55-10-5.21-5.3-6.42-10.73-12.53-13.42-5.63-2.49-11.73-1-15.8.48A30.67,30.67,0,0,0,142.23,80.52Z"/><path class="cls-7" d="M358.73,95.81c-27.87,2.48-45.82,19.77-51.13,25.32A42,42,0,0,0,287.54,116c-24.35.35-38.67,24.72-56.29,40.31-15.65,13.85-42.46,28.33-91,28.49l436.21.38c-42.53.19-63.86-12.21-75.51-24.32-8.88-9.23-15.67-22-31.62-27.12-12.6-4.08-24.86-1.48-33.35,1.41C418,108.47,388.51,93.16,358.73,95.81Z"/><polygon class="cls-8" points="512.26 184.32 436.14 170.58 361.52 184.32 286.14 170.58 210.77 184.32 136.15 170.58 60.02 184.32 0 404.35 96.59 388.12 190.76 404.35 286.14 388.12 381.52 404.35 475.7 388.12 572.28 404.35 512.26 184.32"/><polygon id="_Path_" data-name="&lt;Path&gt;" class="cls-9" points="96.6 376.1 16.01 391.23 69.32 195.82 136.14 182.59 210.77 196.33 286.14 182.59 361.52 196.33 436.14 182.59 502.97 195.82 556.27 391.23 475.69 376.1 381.52 392.32 286.14 376.1 190.77 392.32 96.6 376.1"/><path class="cls-10" d="M280,356.79a1.23,1.23,0,0,0,1.12.17l2.58-.87a1.25,1.25,0,0,0,.83-1l1.29-10a1.25,1.25,0,0,0,0-.54l-.94-2.93a1.23,1.23,0,0,0-1.45-.83l-2.93.65a1.23,1.23,0,0,0-1,1.21v13.13A1.22,1.22,0,0,0,280,356.79Z"/><path class="cls-10" d="M282.66,332.06a1.24,1.24,0,0,0,1.5.2l.34-.19a1.24,1.24,0,0,0,.57-1.43l-.48-1.61a1.25,1.25,0,0,0-1.19-.89h-.18a1.25,1.25,0,0,0-1,1l-.28,1.38a1.24,1.24,0,0,0,.34,1.13Z"/><path class="cls-10" d="M208.67,218.56a2,2,0,0,0-.44,0h0l-3.53.8a2,2,0,0,0-1.41,1.2l-1,2.34a4.38,4.38,0,0,1-3.28,2.67l-1.36.25a2,2,0,0,0-1.56,2.52l.16.55a4.37,4.37,0,0,1-1.56,4.7l-3.17,2.43a2,2,0,0,0-.75,1.19l-.55,2.68a2,2,0,0,0,2.3,2.37l6.16-1.06.14,0,8.72-2.18a2,2,0,0,0,1.36-1.16l4.26-10.1a2,2,0,0,0,.15-.62l.45-5.8a2,2,0,0,0-1.6-2.12l-3.15-.63A2,2,0,0,0,208.67,218.56Z"/><path class="cls-10" d="M305.23,367.56l6.82,3.94a1.18,1.18,0,0,0,.33.13l6.75,1.61a1.24,1.24,0,0,0,1.44-.75l.13-.32a1.25,1.25,0,0,0-.17-1.21l-5.08-6.63a1.25,1.25,0,0,0-1-.49h-8.39a1.23,1.23,0,0,0-1.23,1.05l-.21,1.4A1.24,1.24,0,0,0,305.23,367.56Z"/><path class="cls-11" d="M267.16,318.82l-2.87,1H260.7a1.2,1.2,0,0,0,0,2.4h3.58a2.56,2.56,0,0,0,.81-.13l2.83-.95a1.2,1.2,0,0,0-.76-2.28Z"/><path class="cls-11" d="M277.72,315l-1.17.67-5.13,1.72a1.2,1.2,0,0,0,.76,2.28l5.13-1.72a2.46,2.46,0,0,0,.46-.21l1.14-.66a1.2,1.2,0,0,0-1.2-2.08Z"/><path class="cls-11" d="M289.44,317.22a1.2,1.2,0,0,0-.44-1.64l-4.88-2.81a2.58,2.58,0,0,0-2.47,0,1.18,1.18,0,0,0-.42,1.62,1.29,1.29,0,0,0,1.69.5l4.88,2.82a1.2,1.2,0,0,0,1.64-.44Z"/><path class="cls-11" d="M249.55,323.65a1.23,1.23,0,0,0,1.1-.69.14.14,0,0,1,.12-.08l5.56-.53a1.2,1.2,0,0,0,1.08-1.31A1.21,1.21,0,0,0,256.1,320l-5.56.53a2.56,2.56,0,0,0-2,1.42l0,0a1.18,1.18,0,0,0,.56,1.58A1.16,1.16,0,0,0,249.55,323.65Z"/><path class="cls-11" d="M228.64,346.49a1.2,1.2,0,0,0,1.07-.65l2-3.9a2.55,2.55,0,0,0,.28-1.16v-2a1.2,1.2,0,0,0-2.4,0l0,2-2,3.9a1.2,1.2,0,0,0,1.07,1.75Z"/><path class="cls-11" d="M248.11,325.44a1.2,1.2,0,0,0-1.6.55l-3.07,6.29a1.2,1.2,0,0,0,2.16,1.05l3.07-6.29A1.2,1.2,0,0,0,248.11,325.44Z"/><path class="cls-11" d="M227.13,348.23a1.2,1.2,0,0,0-1.61.52L222.33,355a1.2,1.2,0,0,0,2.13,1.09l3.19-6.23A1.2,1.2,0,0,0,227.13,348.23Z"/><path class="cls-11" d="M240.47,333.61l-6.79,1.7a1.2,1.2,0,1,0,.58,2.33l6.79-1.7a1.2,1.2,0,1,0-.58-2.33Z"/><path class="cls-11" d="M166.82,353.22l1.34.77a.14.14,0,0,1,.07.12V356a2.55,2.55,0,0,0,1.86,2.45l8.44,2.39,5.35,7.79a2.54,2.54,0,0,0,2.1,1.1h5a2.55,2.55,0,0,0,1.27-.34l3-1.7,22.54-1.23h0a2.55,2.55,0,0,0,2.12-1.38l2.55-5a1.2,1.2,0,1,0-2.13-1.09l-2.55,5a.15.15,0,0,1-.12.08h0l-22.54,1.23a2.56,2.56,0,0,0-1.13.34l-3,1.7h-5a.14.14,0,0,1-.12-.06l-5.35-7.79a2.55,2.55,0,0,0-1.41-1l-8.36-2.34a.14.14,0,0,1-.11-.14v-1.87a2.55,2.55,0,0,0-1.27-2.2l-1.34-.77a.14.14,0,0,1-.07-.12l0-5.57,10.21-17.68a2.55,2.55,0,0,0,.34-1.34l-.27-10.58a2.43,2.43,0,0,0-.05-.46l-.72-3.42a.14.14,0,0,1,.07-.15l7.22-4.17a.14.14,0,0,1,.13,0L195.72,312l.29.1,20.32,5.47a2.56,2.56,0,0,0,2.85-1.16l5.32-9a2.55,2.55,0,0,0,.36-1.3V289.54a2.53,2.53,0,0,0-.67-1.73L212.32,275a.14.14,0,0,1,0-.17l.86-1.49a.15.15,0,0,1,.17-.06l9.48,3.5a2.54,2.54,0,0,0,3.08-3.66l-1.42-2.46a.14.14,0,0,1,0-.14l1-1.66a.16.16,0,0,1,.2-.05l2.32,1.34a2.54,2.54,0,0,0,1.27.34h6.85a2.55,2.55,0,0,0,1.59-.56l7.69-6.13,11.31-3a2.55,2.55,0,0,0,1.9-2.46l0-3.78,5.31-9.2a.14.14,0,0,1,.09-.07l12.49-3.08a2.55,2.55,0,0,0,.66-.27l6.64-3.84a2.53,2.53,0,0,0,1.24-2.57l-1.22-8.24a.14.14,0,0,1,.24-.13l8.54,7.37a2.53,2.53,0,0,0,1.23.58l23.18,4a2.55,2.55,0,0,0,1.71-.3l13.42-7.75a2.53,2.53,0,0,0,1.25-1.84L335,217.84l10.46-16.68a.14.14,0,0,1,.1-.07l.24,0,9.54-5.85-3.54-.64-6.88,4.22a2.54,2.54,0,0,0-1.51,1.11L333,216.57a2.52,2.52,0,0,0-.36,1L331,228.93a.14.14,0,0,1-.07.1l-13.51,7.76-23.25-4-8.54-7.37a2.54,2.54,0,0,0-4.18,2.3l1.22,8.25a.14.14,0,0,1-.07.14l-6.68,3.85L263.4,243a2.56,2.56,0,0,0-1.59,1.2l-5.31,9.19a2.54,2.54,0,0,0-.34,1.27v3.71a.15.15,0,0,1-.11.14l-11.31,3a2.51,2.51,0,0,0-.95.47l-7.72,6.14-6.92,0-2.32-1.34a2.55,2.55,0,0,0-3.47.93l-1,1.65a2.55,2.55,0,0,0,0,2.54l1.42,2.46a.14.14,0,0,1-.17.21l-9.48-3.5a2.54,2.54,0,0,0-3.08,1.11l-.86,1.49a2.53,2.53,0,0,0,.33,3l11.86,12.83a.14.14,0,0,1,0,.1l0,16.72-5.32,9a.14.14,0,0,1-.16.06l-20.34-5.48-10.83-4.38a2.52,2.52,0,0,0-2.23.15l-7.22,4.17a2.53,2.53,0,0,0-1.22,2.73l.72,3.44.25,10.66-10.21,17.68a2.54,2.54,0,0,0-.34,1.27V351A2.55,2.55,0,0,0,166.82,353.22Z"/><path class="cls-11" d="M455.77,379.53l2.45-.42,2-16.17a2.5,2.5,0,0,0-.07-1l-3.78-13.79a2.54,2.54,0,0,0-3.46-1.66l-18.81,8.11a.14.14,0,0,1-.13,0l-3.77-2.18a2.54,2.54,0,0,0-1.27-.34h-7.49a2.55,2.55,0,0,0-2.54,2.54v3.76a.14.14,0,0,1-.11.14l-10.73,2.43a.13.13,0,0,1-.11,0L397.67,354l-5.83-10.17a.15.15,0,0,1,0-.11l2.26-7.89a.14.14,0,0,1,.09-.09l8.92-3.42a2.53,2.53,0,0,0,1.15-.89l5-7,9.67-5.52a2.69,2.69,0,0,0,.32-.21l11.6-9.16a.15.15,0,0,1,.1,0l16.15.62a2.23,2.23,0,0,0,.46,0L462.43,308a2.55,2.55,0,0,0,1.29-.58l7.74-6.62a2.56,2.56,0,0,0,.89-2.12l-1.2.08,1.2-.09-.54-7.33a2.54,2.54,0,0,0-1.88-2.27l-29-7.72a.15.15,0,0,1-.11-.13l-.22-3.59a.14.14,0,0,1,.07-.13l4.06-2.48a2.53,2.53,0,0,0,.88-3.44l-1.83-3.16a2.56,2.56,0,0,0-2.62-1.24l-11.72,1.95a2.54,2.54,0,0,0-1.27.6l-1.12,1a2.51,2.51,0,0,0-.66,2.9,2.58,2.58,0,0,0,2.62,1.56l5.32,3.07a.16.16,0,0,1,.05.2L433,280.88l-5.34,5.52-8.84,2.4a.14.14,0,0,1-.11,0l-4.33-2.5a.14.14,0,0,1-.07-.12v-6.44a2.55,2.55,0,0,0-.82-1.87l-2.37-2.19a2.53,2.53,0,0,0-1.72-.67h-3.57a2.54,2.54,0,0,0-2.26,1.38l-7.36,14.26a2.49,2.49,0,0,0-.27.92l-1.42,14.69a2.5,2.5,0,0,0,.1,1L400.13,325a.14.14,0,0,1-.05.16L389.3,332.8a.14.14,0,0,1-.16,0l-1.47-.85a2.48,2.48,0,0,0-.59-.25l-4.65-1.29a2.53,2.53,0,0,0-2.07.32l-5.59,3.62-4.38.91a2.55,2.55,0,0,0-1.69,1.22l-1.85,3.2a2.54,2.54,0,0,0-.34,1.27v4.58a2.56,2.56,0,0,0,.78,1.83l4,3.89.23.2,3.82,2.92.94,1.63-2.47-.73-2.34-1.35a2.55,2.55,0,0,0-2.54,0l-2.65,1.53a2.53,2.53,0,0,0-1.23,1.74l-.54,2.91a.13.13,0,0,1-.08.1.15.15,0,0,1-.13,0l-1.35-.8-1.05-1.83-1.34-2a2.56,2.56,0,0,0-.85-.79l-2.12-1.23L354,349.28l-1.16-2.42a2.56,2.56,0,0,0-2.29-1.45h-1.32a.14.14,0,0,1-.13-.08l-1.25-2.59-.26-5.35a2.56,2.56,0,0,0-.13-.7l-2.14-6.26a2.54,2.54,0,0,0-.93-1.25l-12.19-8.66a2.55,2.55,0,0,0-.62-.32L322.7,317l-12.08-9.36-1.36-4.08a2.54,2.54,0,0,0-3.68-1.4l-4.47,2.58a2.54,2.54,0,0,0-1.22,2.7l.5,2.52v1.46a2.51,2.51,0,0,0,.17.92l1.33,3.42a2.55,2.55,0,0,0,1.1,1.28l4.22,2.47,1.41,3.4a2.53,2.53,0,0,0,.94,1.15l4.87,3.23,4.4,2.55a2.55,2.55,0,0,0,1.94.25l.38-.1a.14.14,0,0,1,.11,0l1.66,1a.15.15,0,0,1,.07.13v1.63a2.54,2.54,0,0,0,.34,1.27l1.59,2.75a2.55,2.55,0,0,0,1.7,1.22l6.83,1.39,4.24,2.18,2.94,3.71s0,.11,0,.22a.16.16,0,0,1-.2.05l-4.63-2.67a2.56,2.56,0,0,0-1.27-.34h-2.77a2.53,2.53,0,0,0-2.54,2.47l-.13,4.2a2.53,2.53,0,0,0,.92,2l2,1.62a.14.14,0,0,1,.05.1.14.14,0,0,1,0,.11l-1.4,1.43a2.54,2.54,0,0,0-.5.74l-1.53,3.4-2.08,3.6v-1.94l1.76-3a2.52,2.52,0,0,0,.25-1.92l-1.34-5.06a2.53,2.53,0,0,0-.76-1.25l-5.62-5a2.55,2.55,0,0,0-.43-.31l-13.74-7.93-14-11.15a1.14,1.14,0,0,0-.09-.1l-1.21-4.18a1.2,1.2,0,0,0-2.3.67l1.21,4.18a2.53,2.53,0,0,0,.85,1.28h0l14,11.19a2.49,2.49,0,0,0,.31.21l13.74,7.94,5.67,5.1,1.34,5.06a.14.14,0,0,1,0,.11l-1.76,3a2.54,2.54,0,0,0-.34,1.27v5l2.48-.38a2.53,2.53,0,0,0,1.82-1.24l2.27-3.93.12-.23,1.55-3.43,1.4-1.43a2.54,2.54,0,0,0-.19-3.74l-2-1.62a.14.14,0,0,1-.05-.12l.13-4.2a.15.15,0,0,1,.14-.14l2.84,0,4.63,2.67a2.52,2.52,0,0,0,1.93.25,2.57,2.57,0,0,0,1.58-1.24,2.53,2.53,0,0,0-.21-2.85l-2.94-3.71a2.55,2.55,0,0,0-.84-.69l-4.19-2.14a2.6,2.6,0,0,0-.65-.22l-6.79-1.38a.15.15,0,0,1-.1-.07l-1.61-2.82v-1.63a2.55,2.55,0,0,0-1.27-2.2l-1.66-1a2.55,2.55,0,0,0-1.94-.25l-.38.1a.13.13,0,0,1-.11,0l-4.27-2.47-4.92-3.3-1.41-3.4a2.57,2.57,0,0,0-1.08-1.23l-4.22-2.47-1.33-3.47V310a2.53,2.53,0,0,0,0-.5l-.5-2.49a.14.14,0,0,1,.07-.15l4.47-2.58a.14.14,0,0,1,.21.08l1.36,4.08a2.54,2.54,0,0,0,.86,1.21l12,9.3a2.57,2.57,0,0,0,.7.38l8.83,3.16L343,331.21l2.14,6.3.26,5.35a2.56,2.56,0,0,0,.25,1l1.24,2.53a2.56,2.56,0,0,0,2.29,1.43h1.32a.15.15,0,0,1,.13.08l1.16,2.42a2.48,2.48,0,0,0,.38.58l3.64,4.19a2.56,2.56,0,0,0,.65.53l2.13,1.25,1.27,1.91,1.05,1.82a2.54,2.54,0,0,0,.93.93l1.3.75a2.54,2.54,0,0,0,3.77-1.74l.54-2.91a.14.14,0,0,1,.07-.1l2.65-1.53a.14.14,0,0,1,.14,0l2.34,1.35a2.57,2.57,0,0,0,.56.24l4.84,1.42.65-2a2.55,2.55,0,0,0-.22-2l-1-1.75a2.51,2.51,0,0,0-.67-.76l-3.8-2.88-4-3.89a.14.14,0,0,1,0-.1l0-4.65,1.85-3.21a.15.15,0,0,1,.09-.07l4.38-.91a2.55,2.55,0,0,0,.87-.36l5.54-3.6a.14.14,0,0,1,.12,0l4.68,1.31,1.47.85a2.55,2.55,0,0,0,2.75-.13l10.78-7.68a2.54,2.54,0,0,0,1-2.83l-5.53-17.77,1.44-14.74,7.36-14.26a.15.15,0,0,1,.13-.08h3.57a.15.15,0,0,1,.1,0l2.37,2.19a.15.15,0,0,1,0,.11v6.44a2.55,2.55,0,0,0,1.27,2.2l4.32,2.5a2.55,2.55,0,0,0,1.94.25l8.84-2.4a2.54,2.54,0,0,0,1.17-.69l5.28-5.48a2.55,2.55,0,0,0,.37-.49l1.41-2.45a2.54,2.54,0,0,0-.93-3.47l-5.32-3.07a2.55,2.55,0,0,0-1.47-.33h0a.13.13,0,0,1-.12-.09.12.12,0,0,1,0-.16l1.19-1,11.72-1.95a.14.14,0,0,1,.15.07l1.83,3.16a.14.14,0,0,1,0,.19l-4.06,2.48a2.54,2.54,0,0,0-1.21,2.33l.22,3.59a2.54,2.54,0,0,0,1.88,2.3l29,7.72a.14.14,0,0,1,.1.13l.54,7.33a.14.14,0,0,1-.05.12l-7.82,6.65-14.87,2.19-16.15-.62a2.53,2.53,0,0,0-1.67.54l-11.61,9.17-9.67,5.53a2.5,2.5,0,0,0-.8.72l-5.06,7-8.92,3.42a2.56,2.56,0,0,0-1.53,1.67l-2.26,7.89a2.57,2.57,0,0,0,.24,2l5.83,10.17a2.55,2.55,0,0,0,.79.85l10.23,6.87a2.55,2.55,0,0,0,2,.37l10.73-2.43a2.53,2.53,0,0,0,2-2.48v-3.76a.14.14,0,0,1,.14-.14l7.56,0,3.77,2.18a2.56,2.56,0,0,0,2.28.13l18.81-8.11a.13.13,0,0,1,.12,0,.14.14,0,0,1,.08.09l3.79,13.85-2.08,16.67C455.76,379.38,455.77,379.46,455.77,379.53Z"/><path class="cls-11" d="M289.56,371.87a9.72,9.72,0,0,0-7-2.54l-36.17,1.48a9.75,9.75,0,0,0-1.83.25l-17.36,4.06-20.59,4.1a7.4,7.4,0,0,1-6.52-1.88,9.79,9.79,0,0,0-7.5-2.65l-11.1.88a9.82,9.82,0,0,0-6,2.68l-10.17,9.7,2.94.51,8.88-8.47a7.41,7.41,0,0,1,4.52-2l11.1-.88a7.44,7.44,0,0,1,5.66,2,9.81,9.81,0,0,0,8.64,2.49l20.63-4.11,17.4-4.07a7.37,7.37,0,0,1,1.38-.19l36.17-1.48a7.41,7.41,0,0,1,5.28,1.92l3.74,3.4,4.39.75Z"/><path class="cls-11" d="M310.85,373.57a3.63,3.63,0,0,0,1,.39l6.75,1.61a3.63,3.63,0,0,0,.83.1,3.67,3.67,0,0,0,3.39-2.29l.13-.32a3.66,3.66,0,0,0-.49-3.56l-5.08-6.63a3.66,3.66,0,0,0-2.89-1.43h-8.39a3.62,3.62,0,0,0-3.6,3.09l-.21,1.4a3.62,3.62,0,0,0,1.78,3.7Zm-6.22-7.28.21-1.4a1.23,1.23,0,0,1,1.23-1.05h8.39a1.25,1.25,0,0,1,1,.49l5.08,6.63a1.25,1.25,0,0,1,.17,1.21l-.13.32a1.24,1.24,0,0,1-1.44.75l-6.75-1.61a1.18,1.18,0,0,1-.33-.13l-6.82-3.94A1.24,1.24,0,0,1,304.62,366.29Z"/><path class="cls-11" d="M278.55,358.74a3.6,3.6,0,0,0,2.11.69,3.66,3.66,0,0,0,1.18-.2l2.58-.87a3.66,3.66,0,0,0,2.44-3l1.29-10a3.66,3.66,0,0,0-.14-1.58l-.94-2.93a3.63,3.63,0,0,0-4.26-2.44l-2.93.65a3.62,3.62,0,0,0-2.85,3.55v13.13A3.65,3.65,0,0,0,278.55,358.74Zm.88-16.09a1.23,1.23,0,0,1,1-1.21l2.93-.65a1.23,1.23,0,0,1,1.45.83l.94,2.93a1.25,1.25,0,0,1,0,.54l-1.29,10a1.25,1.25,0,0,1-.83,1l-2.58.87a1.24,1.24,0,0,1-1.64-1.18Z"/><path class="cls-11" d="M281,333.75a3.64,3.64,0,0,0,4.39.58l.34-.19a3.63,3.63,0,0,0,1.67-4.19l-.48-1.6a3.64,3.64,0,0,0-7.06.3l-.28,1.38a3.63,3.63,0,0,0,1,3.3Zm.94-3.24.28-1.38a1.25,1.25,0,0,1,1-1h.18a1.25,1.25,0,0,1,1.19.89l.48,1.61a1.24,1.24,0,0,1-.57,1.43l-.34.19a1.24,1.24,0,0,1-1.5-.2l-.42-.42A1.24,1.24,0,0,1,281.9,330.51Z"/><path class="cls-11" d="M222.19,204.06a2,2,0,0,1,0,.78L220,214.76a4.42,4.42,0,0,0,.6,3.33l4.07,6.29a2,2,0,0,1,.32,1.09v6.11a2,2,0,0,1-.59,1.41L218,239.37a4.37,4.37,0,0,0-1.29,3.11v6.83a2,2,0,0,1-.58,1.42l-4.33,4.33a4.4,4.4,0,0,0,4.69,7.22l12-4.62a2,2,0,0,1,.72-.13h12.57a4.4,4.4,0,0,0,4.4-4.4v-4.26a2,2,0,0,1,.58-1.41l2-2a4.38,4.38,0,0,0,1.29-3.11v-1.12a4.4,4.4,0,0,0-4.4-4.4h-1.32a2,2,0,0,1-1.87-1.29l-6.23-16.31a4.5,4.5,0,0,0-.3-.63l-2.86-5a2,2,0,0,1,0-2l2.63-4.56a4.4,4.4,0,0,0-1.61-6l-.92-.53a2,2,0,0,1-1-1.93l.63-6.35-2.46.45-.57,5.66a4.4,4.4,0,0,0,2.18,4.25l.91.53a2,2,0,0,1,.73,2.73L231,210.49a4.41,4.41,0,0,0,0,4.4l2.86,5a2,2,0,0,1,.13.28l6.23,16.3a4.42,4.42,0,0,0,4.11,2.83h1.32a2,2,0,0,1,2,2v1.12a2,2,0,0,1-.58,1.41l-2,2a4.38,4.38,0,0,0-1.29,3.11v4.26a2,2,0,0,1-2,2H229.24a4.38,4.38,0,0,0-1.58.29l-12,4.62a2,2,0,0,1-2.13-3.28l4.34-4.33a4.38,4.38,0,0,0,1.29-3.11v-6.83a2,2,0,0,1,.59-1.41l6.39-6.39a4.37,4.37,0,0,0,1.29-3.11v-6.11a4.39,4.39,0,0,0-.71-2.39l-4.07-6.29a2,2,0,0,1-.27-1.52l2.18-9.92a4.37,4.37,0,0,0,0-1.72l-1.71-9.5-2.36.43Z"/><path class="cls-11" d="M207.71,216.27l-3.53.8a4.4,4.4,0,0,0-3.11,2.64l-1,2.34a2,2,0,0,1-1.49,1.21l-1.36.25a4.4,4.4,0,0,0-3.43,5.53l.16.55a2,2,0,0,1-.71,2.14l-3.17,2.43a4.41,4.41,0,0,0-1.64,2.61l-.55,2.68a4.4,4.4,0,0,0,5.06,5.21l6.15-1.06.33-.07,8.71-2.18a4.42,4.42,0,0,0,3-2.56l4.26-10.1a4.36,4.36,0,0,0,.33-1.37l.45-5.8a4.4,4.4,0,0,0-3.53-4.65l-3.15-.63A4.36,4.36,0,0,0,207.71,216.27Zm6.11,5.07-.45,5.8a2,2,0,0,1-.15.62L209,237.86a2,2,0,0,1-1.36,1.16l-8.72,2.18-.14,0-6.16,1.06a2,2,0,0,1-2.3-2.37l.55-2.68a2,2,0,0,1,.75-1.19l3.17-2.43a4.37,4.37,0,0,0,1.56-4.7l-.16-.55a2,2,0,0,1,1.56-2.52l1.36-.25a4.38,4.38,0,0,0,3.28-2.67l1-2.34a2,2,0,0,1,1.41-1.2l3.53-.8h0a2,2,0,0,1,.44,0,2,2,0,0,1,.39,0l3.15.63A2,2,0,0,1,213.82,221.34Z"/><path class="cls-11" d="M267.94,194.63a6.88,6.88,0,0,0,.91,3.12l1.22,2.11a6.87,6.87,0,0,0,5.93,3.42h5.18a6.88,6.88,0,0,0,5-2.15,4.45,4.45,0,0,1,7.4,1.48l2.75,7.27,3.39,10a6.83,6.83,0,0,0,9,4.17l4.61-1.82a6.82,6.82,0,0,0,4-4.36l2.55-8.3a6.81,6.81,0,0,0,.28-1.44l1.38-16.38.23-2.64-2.35-.43-1.66,19.25a4.43,4.43,0,0,1-.18.93l-2.55,8.3a4.43,4.43,0,0,1-2.62,2.83l-4.61,1.82a4.45,4.45,0,0,1-5.85-2.71l-3.4-10-2.76-7.31a6.85,6.85,0,0,0-11.39-2.27,4.47,4.47,0,0,1-3.24,1.4H276a4.46,4.46,0,0,1-3.85-2.23l-1.22-2.11a4.47,4.47,0,0,1-.59-2l-.4-9-2.38.43Z"/><path class="cls-12" d="M201.08,296.1h-.32a1.78,1.78,0,0,1-.33,0l-40.37-7.17-6.9,45.13,42.6,7.45,43.46-7.5,2.31-45-40.46,7.1Z"/><polygon class="cls-12" points="116.69 277.57 157.07 284.74 163.97 239.61 126.27 232.8 92.61 239.36 81.92 284.14 116.36 277.51 116.69 277.57"/><polygon class="cls-12" points="116.38 281.17 81 287.98 70.31 332.76 106.47 325.89 149.63 333.44 156.53 288.3 116.38 281.17"/><polygon class="cls-12" points="455.93 277.51 456.25 277.58 490.37 284.14 479.68 239.36 446.02 232.8 408.32 239.61 415.22 284.74 455.93 277.51"/><polygon class="cls-12" points="455.9 281.17 415.76 288.3 422.66 333.44 465.81 325.89 466.14 325.95 501.98 332.76 491.29 287.98 455.9 281.17"/><polygon class="cls-12" points="371.52 296.15 371.21 296.1 330.74 289 333.05 334 376.52 341.5 419.12 334.06 412.22 288.93 371.52 296.15"/><path class="cls-12" d="M285.93,277.57l.22,0h.31l40.47,7.1-2.31-45-38.46-6.87-38.46,6.87-2.31,45,40.46-7.1Z"/><path class="cls-12" d="M286.14,281.17l-41,7.19-2.31,45,42.87-7.4h0l.1,0h.08l.22,0,.22,0h.08l.1,0h0l42.87,7.4-2.31-45Z"/><path class="cls-12" d="M206.09,247.1l-.32,0h0a1.79,1.79,0,0,1-.33,0l-37.93-6.85-6.9,45.13,40.16,7.13,41-7.19,2.31-45Z"/><polygon class="cls-12" points="411.67 285.37 404.77 240.25 366.52 247.16 366.2 247.1 328.24 240.32 330.55 285.31 371.52 292.5 411.67 285.37"/><path class="cls-13" d="M517.73,383.25l-11-45.91,35.84,6.81a1.79,1.79,0,0,0,.81,0l-1-3.66-36.57-6.95-10.69-44.77,34.12,6.56a1.79,1.79,0,0,0,.81,0l-1-3.66-34.85-6.7-10.69-44.77L516,246.44a1.79,1.79,0,0,0,.82,0l-1-3.66-33.12-6.46L471.5,189.59l-3.7-.73a1.79,1.79,0,0,0,0,.77l11,45.9L446,229.13,407.77,236l-7.16-46.86v-.05l-3.53.65,7.17,46.9-37.71,6.81-38.46-6.87-2.41-46.84-3.58-.65a1.79,1.79,0,0,0,0,.41L324.42,236l-38-6.78h-.11l-.2,0-.21,0h-.11l-38,6.78,2.38-46.43a1.79,1.79,0,0,0,0-.41l-3.58.65-2.4,46.84-38.46,6.87-37.71-6.81,7.17-46.9-3.53-.65v.05L164.51,236l-38.27-6.91-32.72,6.38,11-45.9a1.79,1.79,0,0,0,0-.77l-3.7.73L89.64,236.28l-33.12,6.46-1,3.66a1.79,1.79,0,0,0,.82,0l32.39-6.32L78,284.89l-34.85,6.7-1,3.66a1.77,1.77,0,0,0,.81,0l34.12-6.56L66.43,333.5l-36.57,6.95-1,3.66a1.78,1.78,0,0,0,.81,0l35.84-6.81-11,45.91a1.79,1.79,0,0,0,0,.75l3.7-.69,11.15-46.7,37.11-7L149.08,337l-7.17,46.91,3.54.61v0l7.17-46.87,42.81,7.48h.09l.23,0h0a1.78,1.78,0,0,0,.33,0L239,337.68l-2.38,46.44a1.81,1.81,0,0,0,0,.39l3.59-.61,2.41-46.85,43.46-7.5,43.47,7.5L332,383.9l3.59.61a1.81,1.81,0,0,0,0-.39l-2.38-46.44,43,7.42.31.05,43.14-7.54,7.17,46.87v0l3.54-.61L423.2,337l42.58-7.44,37.11,7L514,383.3l3.7.69A1.79,1.79,0,0,0,517.73,383.25ZM446,232.8l33.66,6.57,10.69,44.78-34.12-6.56-.33-.06-40.71,7.23-6.9-45.14Zm-198.34,6.87,38.46-6.87,38.46,6.87,2.31,45-40.47-7.1h-.31l-.22,0h-.1l-40.46,7.1Zm-155.07-.3,33.67-6.57,37.7,6.81-6.9,45.14-40.38-7.17-.33-.06-34.44,6.63Zm57,94.07-43.15-7.54-36.16,6.87L81,288l35.39-6.81,40.14,7.13Zm89.61.56-43.46,7.5-42.6-7.45,6.9-45.13,40.37,7.17a1.78,1.78,0,0,0,.32,0h.32l40.46-7.1Zm2.5-48.68-41,7.19-40.16-7.13,6.9-45.13,37.93,6.85a1.79,1.79,0,0,0,.33,0h0l.32,0,38-6.78ZM286.55,326h0l-.1,0h-.08l-.22,0-.22,0h-.08l-.1,0h0l-42.87,7.4,2.31-45,41-7.19,41,7.19,2.31,45Zm41.69-85.65,38,6.78.32.06,38.25-6.91,6.9,45.13-40.16,7.13-41-7.19ZM376.52,341.5,333.05,334l-2.31-45,40.46,7.1.31.06,40.7-7.23,6.9,45.13ZM466.14,326l-.32-.06-43.15,7.54-6.9-45.14,40.14-7.13L491.29,288,502,332.76Z"/><polygon class="cls-14" points="190.76 404.35 96.59 388.12 136.15 170.58 210.77 184.32 190.76 404.35"/><polygon class="cls-14" points="381.52 404.35 286.14 388.12 286.14 170.58 361.52 184.32 381.52 404.35"/><rect class="cls-15" x="408.37" y="241.3" width="14.27" height="0.94" transform="translate(831 483.54) rotate(-180)"/><path id="_Path_2" data-name="&lt;Path&gt;" class="cls-16" d="M408.64,242.24h13.72v-8.72l-4.47.2c-.46,2.88-1.55,4-2.42,4.59-1.93,1.21-4.19.24-5.79,1.82A4,4,0,0,0,408.64,242.24Z"/><path class="cls-15" d="M408.91,241.3a4.83,4.83,0,0,0-.27.94h13.72v-.94Z"/><circle class="cls-15" cx="419.51" cy="238.11" r="1.03"/><path id="_Path_3" data-name="&lt;Path&gt;" class="cls-16" d="M436.32,239.11l13.14-3.95L447,226.8l-4.23,1.48c.39,2.89-.32,4.32-1,5.09-1.5,1.71-3.94,1.43-5,3.41A4,4,0,0,0,436.32,239.11Z"/><path class="cls-15" d="M449.46,235.16l-.27-.9-12.88,3.87a4.85,4.85,0,0,0,0,1Z"/><circle class="cls-15" cx="445.54" cy="232.02" r="1.03" transform="translate(-47.92 138.04) rotate(-16.73)"/><polygon class="cls-14" points="572.28 404.35 475.7 388.12 436.14 170.58 512.26 184.32 572.28 404.35"/><path class="cls-3" d="M403.76,159c-.48.46.64,2.72-2.11-.45a3.16,3.16,0,0,1-1.12-2c-.1-1.18,1-1.57.71-2.66-.13-.59-.5-.79-.45-1.44,0-.45.26-1,.49-1s.31.65.84,1.79a22.43,22.43,0,0,1,1.08,2c.14.39.19.64.49,1.49a4.6,4.6,0,0,1,.22.65C404,157.79,404.15,158.61,403.76,159Z"/><path class="cls-3" d="M402.74,154.87l-2.84-3.05a.48.48,0,0,0-.65.12c0,.25,0,.52-.09.61s-.24-.05-.38,0-.24.66-.23.83a2,2,0,0,0,.1.54l-.15.63a.68.68,0,0,0,.17.62l.07,1c-.14.32,1,1.2,1,1.24l1.65.76a.48.48,0,0,0,.82-.21l.63-2.66A.48.48,0,0,0,402.74,154.87Z"/><path class="cls-17" d="M431.34,172.41c-.05-.82-.77-1.78-4.88-3.71a50.22,50.22,0,0,0-8.41-3.07l-14.46-9.15-1.8,2.79a53.35,53.35,0,0,0,9.55,8.71,64.48,64.48,0,0,0,7.7,4.63c5,2.56,7.48,2.94,9,4.37a.94.94,0,0,0,.66.31C429.86,177.26,431.46,174.29,431.34,172.41Z"/><ellipse class="cls-18" cx="431.83" cy="231.19" rx="96.97" ry="35.56"/><path class="cls-19" d="M500.77,215.46h0a52.14,52.14,0,0,0,.39,21.57l1.41,6.12a.94.94,0,0,1-1.79.56l-65.11-163,9.48-21.3a1.2,1.2,0,0,1,2.21,0L498,186.24A52.14,52.14,0,0,1,500.77,215.46Z"/><path class="cls-20" d="M366.95,212.27h0a52.14,52.14,0,0,1-1.4,21.53l-1.69,6a.94.94,0,0,0,1.76.64L438.3,80.71,429.83,59a1.2,1.2,0,0,0-2.21-.06L371.09,183.21A52.14,52.14,0,0,0,366.95,212.27Z"/><circle class="cls-21" cx="437.07" cy="77.55" r="43.51"/><path class="cls-22" d="M433.1,17H441a0,0,0,0,1,0,0v30.7a3.48,3.48,0,0,1-3.48,3.48h-1a3.48,3.48,0,0,1-3.48-3.48V17A0,0,0,0,1,433.1,17Z"/><path class="cls-23" d="M431,0h12.1a2.27,2.27,0,0,1,2.27,2.27V17.48a4.61,4.61,0,0,1-4.61,4.61h-7.42a4.61,4.61,0,0,1-4.61-4.61V2.27A2.27,2.27,0,0,1,431,0Z"/><rect class="cls-17" x="358.86" y="154.34" width="5.41" height="65.03" transform="translate(609.94 509.29) rotate(-154.94)"/><rect class="cls-24" x="353.96" y="152.05" width="5.41" height="65.03" transform="translate(601.56 502.84) rotate(-154.94)"/><rect class="cls-25" x="349.06" y="149.76" width="5.41" height="65.03" transform="translate(593.19 496.39) rotate(-154.94)"/><polygon id="_Path_4" data-name="&lt;Path&gt;" class="cls-26" points="350.25 217.46 334.86 231.19 335.54 210.58 350.25 217.46"/><polygon class="cls-27" points="334.86 231.19 341.07 225.65 335.13 222.88 334.86 231.19"/><rect class="cls-28" x="351.55" y="172.16" width="39.42" height="16.69" transform="translate(111.42 -140.28) rotate(25.06)"/><circle class="cls-29" cx="349.39" cy="168.96" r="5.26"/><g class="cls-30"><path class="cls-31" d="M326.42,231.5q-20.6-3.14-40.27-6.65v10.79c17,3.41,31.09,5.93,41.24,7.65,0,0,7,1.2,40.09,6.49h0l-1.15-12.68Q346.75,234.6,326.42,231.5Z"/><path class="cls-32" d="M221.86,243.44c0,2.28,64.28-7.8,64.28-7.8V224.85S221.86,241.17,221.86,243.44Z"/><polygon class="cls-33" points="366.31 237.1 367.47 249.78 447.84 237.34 446.12 227.88 366.31 237.1"/><path class="cls-34" d="M502.6,243.44c0-1.9-56.48-15.56-56.48-15.56l2,9.47S502.6,245.3,502.6,243.44Z"/></g><path class="cls-35" d="M222.27,206.19,191.93,204c.63-8-6.88-14.9-17.51-15.66-11.23-.81-21.68,5.51-23.33,14.11s6.11,16.23,17.34,17c10.63.76,20.54-4.86,23-12.75l30.34,2.18c1,.07,8-.81,8-.81S223.25,206.26,222.27,206.19Z"/><path class="cls-36" d="M229.39,169.11h-3.61v37.07a12.23,12.23,0,0,0,.31,1.76,17.82,17.82,0,0,0,3-.14,11.14,11.14,0,0,0,.28-1.62Z"/><path class="cls-36" d="M211.93,143.62a1.73,1.73,0,0,0,.11-1.83,1.59,1.59,0,0,0-.79-.65l-10.53,4.29a59.62,59.62,0,0,1-8.11,1.15c-1.79.12-3.23.14-3.75,1.06-.66,1.17.6,3,1,3.63a24.79,24.79,0,0,0,10.61-1.19q4-2.15,8.19-4.55Q210.33,144.58,211.93,143.62Z"/><circle id="_Ellipse_" data-name="&lt;Ellipse&gt;" class="cls-37" cx="227.59" cy="154.96" r="20.59"/><ellipse class="cls-38" cx="201.11" cy="344.1" rx="5.1" ry="34.84" transform="translate(-156.58 519.91) rotate(-85.87)"/><ellipse class="cls-39" cx="201.11" cy="215.93" rx="5.1" ry="22.81" transform="matrix(0.07, -1, 1, 0.07, -28.74, 400.96)"/><line class="cls-40" x1="271.63" y1="298.81" x2="275.29" y2="314.34"/><circle class="cls-41" cx="234.27" cy="285.08" r="5.23"/><path class="cls-42" d="M223.21,315.4a39.87,39.87,0,0,0,2,17.59l2.57-.24c0-.88,0-2.25.14-3.94.24-3.25.66-4.51.77-7a26.8,26.8,0,0,0-.3-5.32q1.08-2.18,2.14-4.46c2.14-4.62,4-9.12,5.56-13.46a.84.84,0,0,0-.51-1.08l-5.08-1.8Z"/><path class="cls-42" d="M199.35,342.78,219,346.51a6.26,6.26,0,0,0,4.69-1.76,6.35,6.35,0,0,0,1.5-3.53,12.25,12.25,0,0,0-.41-4.95c-.07-.27-.13-.49-.17-.63-1.87-6.35-2.83-8.62-3.77-12-1.5-5.4-.78-5.12-1.86-7.93a23.44,23.44,0,0,0-8-10.22,22,22,0,0,0-2.54,3.65,15.13,15.13,0,0,0-1.87,4.68,13.57,13.57,0,0,0,.1,5,35.33,35.33,0,0,0,3.7,10.44,51,51,0,0,0,4.38,7c-2.45-.83-5-1.64-7.78-2.39q-3.13-.86-6.07-1.52Z"/><path class="cls-43" d="M210.93,305.52a17.84,17.84,0,0,0-2.57,3.64c-1.13,2.12-2.54,4.78-1.87,8a7.41,7.41,0,0,0,3.34,5.29,23.81,23.81,0,0,0,2.49,1.28,24.66,24.66,0,0,0,3.88,1.22c4.39,1,11.06.48,11.49.44-1.45,1.12-3,2.4-4.52,3.85a64.25,64.25,0,0,0-5.34,5.63l8.6,5.93c2.2-2.1,4.49-4.47,6.81-7.12a111.38,111.38,0,0,0,7-8.91,5.44,5.44,0,0,0,.14-3.29,5.94,5.94,0,0,0-3.65-3.72l-9.65-3.13L220,312.36c-1.68-1.06-3.47-2.3-5.31-3.73C213.3,307.58,212.06,306.54,210.93,305.52Z"/><path class="cls-44" d="M232.85,308.77l-12.65,3.76a46.71,46.71,0,0,1-9.31-7,90.3,90.3,0,0,1,10-8.82c1.73-1.31,2.8-2,4.93-3.32a28.12,28.12,0,0,1,5.81-2.84l1.47-.36h0l2.88,6.69a3.54,3.54,0,0,1,.25,1.9l-1,7.28a3.25,3.25,0,0,1-2.34,2.73Z"/><path class="cls-45" d="M235.21,298.07a3.84,3.84,0,0,0,.29-1.84,8.16,8.16,0,0,1,2.25-3.1,7.81,7.81,0,0,1,1.2-.83l-2.43-3.62-3.44,1.49.56,1.91a20.16,20.16,0,0,1,.64,3.78,3.93,3.93,0,0,0,.14.73A4,4,0,0,0,235.21,298.07Z"/><path class="cls-41" d="M234.47,346.52a4.77,4.77,0,0,0-2.44-2.2c-1.73-.75-2.75,0-4.89-.94-.6-.26-2-.88-2-1.86a1.66,1.66,0,0,1,.65-1.2l-4.19-2.9a10,10,0,0,0-1.94,3.87,18.85,18.85,0,0,0-.65,5.22Z"/><path class="cls-41" d="M200.44,335.06a9.29,9.29,0,0,0-5.5-.72l.06,10.12a1.89,1.89,0,0,0,.44,1.47,1.84,1.84,0,0,0,1.1.58h4.68a3.48,3.48,0,0,0-.56-.92c-1-1.13-2.11-1-2.53-1.92a2.08,2.08,0,0,1-.07-1.25,2.75,2.75,0,0,1,.6-1.16,4,4,0,0,1,1-.94Z"/><path class="cls-45" d="M236.52,288.9l2.93,4.36a2.77,2.77,0,0,0,1.73,1.17h0a2.77,2.77,0,0,0,1.82-.24l2.34-1.18.39.68a.36.36,0,0,0,.65,0l.75-1.88.77-.84a10.23,10.23,0,0,0,2.17-3.72h0a6.56,6.56,0,0,0-.63-5.45h0a6.56,6.56,0,0,0-5.06-3.12l-.41,0a3.47,3.47,0,0,0-1.36.16h0a6.56,6.56,0,0,0-4.46,5.34l-.2,1.46Z"/><path class="cls-44" d="M233.08,290.17q2.09,3.24,4.31,6.53,3.65,5.42,7.29,10.46a47.29,47.29,0,0,1,5.43-.28c4.37,0,6.33.71,10.68.75a44,44,0,0,0,5.26-.27l-.29,2.93a65.36,65.36,0,0,1-24.35,1.46A27.14,27.14,0,0,1,231.15,302c-1.4-2.36-2.84-4.88-2-7.62A7.7,7.7,0,0,1,233.08,290.17Z"/><path class="cls-45" d="M265.8,309.84a4.45,4.45,0,0,0,3.65.86,4.9,4.9,0,0,0,2-1.47,10.74,10.74,0,0,0,1.84-2.51l3.37.78a.65.65,0,0,0,.69-.26.63.63,0,0,0-.28-.94L273.94,305a1.06,1.06,0,0,0-.75,0l-3.05,1-4.32,1.55Z"/><path class="cls-45" d="M275.73,306.84l1.58.76a.68.68,0,0,1,.36.79h0a.68.68,0,0,1-.8.5l-4.12-.82-2.44,1.18.37-1.94,2.54-1.12Z"/><path class="cls-45" d="M277.26,310.07a.65.65,0,0,1-.8.35l-2.4-1.12-3.62-.2.32-1.28,3.74.06,2.49,1.36A.65.65,0,0,1,277.26,310.07Z"/><path class="cls-45" d="M275.15,311.48a.48.48,0,0,1-.65,0l-1.72-1.37-2-.52.38-1,2.62.64,1.38,1.58A.48.48,0,0,1,275.15,311.48Z"/><path class="cls-41" d="M238.69,280.4c-.93,1.45-.46,2.63-1.56,5.9a22,22,0,0,1-1.05,2.57,10.08,10.08,0,0,0,3.37-1.16,6.46,6.46,0,0,0,1.74-1.24c1.11-1.17,1.23-2.39,2.1-2.5a.79.79,0,0,1,.64.16c.56.57-.93,2-.46,3.13s2.52,1.14,3.59,1.17c1.24,0,2.47.08,3.25-.75a3.6,3.6,0,0,0,.59-3c-.38-2.87-2.94-6.87-6.92-6.92A6.35,6.35,0,0,0,238.69,280.4Z"/><path class="cls-46" d="M424,161l2.71-2.09a5.53,5.53,0,0,1,3.09-3.2,4.78,4.78,0,0,1,3-.17c2.19.64,3.56,3.06,3.67,5.21.19,3.77-3.56,5.94-4,6.2a6.9,6.9,0,0,1-5.53.75,6.52,6.52,0,0,1-3.23-2.45L425,162Z"/><path class="cls-16" d="M432,162.16c-.72-.27-.65-1.53-1-3-.65-2.74-2.05-3.41-1.66-4.09.6-1,4.66-.86,6.78,1.63a6.3,6.3,0,0,1,.95,6.19,6.84,6.84,0,0,1-2.61,3.15,7.11,7.11,0,0,1-2,.91,3.44,3.44,0,0,1,.22-1.83c.46-1.06,1.37-1.48,1.27-2.3a.89.89,0,0,0-.26-.56C433.27,161.83,432.59,162.38,432,162.16Z"/><path class="cls-3" d="M393.18,161.15c.66.17,1.39-.79,1.67-1.46a3,3,0,0,0,0-2.34c-.44-1-1.09-.86-2-2s-.92-2.15-1.24-2.14-.48.76-.47,1.43c0,1.26.78,1.49,1,2.83.17,1.08-.26,1.32.08,2.38C392.38,160.18,392.64,161,393.18,161.15Z"/><path class="cls-3" d="M394.26,156.92s-3.88-1.41-4.42-2.35-.46-1.72-.91-1.73-.3,1.61-.53,1.79-.54,0-.58.5a4,4,0,0,0,0,1.63,10,10,0,0,0,2.54,3.3c.86.49,2.57,1.6,3.61,1.46s.63-3.78.63-3.78Z"/><path class="cls-47" d="M423.74,196.26A60.59,60.59,0,0,0,431,215c4.62,6.47,7.18,9.77,11.79,16.23,3.25-.23,3.89-1.43,5.48-2.42-2-3.82-2.8-5.2-5.27-9.31-1.83-3-3.67-5.91-5.5-8.61L434.17,201a18.9,18.9,0,0,0-.5-7.27,18.48,18.48,0,0,0-1.11-3Z"/><path class="cls-48" d="M418.49,191.75l-3.68,18.72a10.21,10.21,0,0,0-.2,1.94c0,2.81.06,5.75.22,8.81a153.17,153.17,0,0,0,1.64,15.6l5.85-.16a124.7,124.7,0,0,0,.57-16.9c-.1-2.91-.3-5.69-.57-8.33a119.56,119.56,0,0,0,7.48-12c1.24-2.27,2.35-4.49,3.35-6.64Z"/><path class="cls-49" d="M423.7,169.08a83.13,83.13,0,0,0-5,16.55c-.44,2.3-.77,4.51-1,6.61a16,16,0,0,0,15.49.58l-.09-3.9a21.13,21.13,0,0,1,.78-6.46c.94-3.27,2.12-4.23,2-6.82,0-.57-.19-3.18-2.07-4.61a5.39,5.39,0,0,0-2.57-.93C429.34,169.76,426.82,169.38,423.7,169.08Z"/><rect class="cls-46" x="426.05" y="166.11" width="6.18" height="5.83" transform="translate(16.09 -36.21) rotate(4.92)"/><g id="_Group_" data-name="&lt;Group&gt;"><path class="cls-50" d="M433.67,172c-.73-2-3.42-2.81-9.25-3.62a116.85,116.85,0,0,0-14.41-1.1l-14.94-9.1-2.68,3.21,14.41,11.86c5.63,1.36,10.4,2.17,13.91,2.68,8.72,1.27,11.45.88,12.58-.76A3.6,3.6,0,0,0,433.67,172Z"/></g><path class="cls-3" d="M225.44,138s2.6-1,2.95-1.67.28-1.17.58-1.19.23,1.08.39,1.2.36,0,.4.33a2.7,2.7,0,0,1,0,1.1,6.75,6.75,0,0,1-1.66,2.27c-.57.35-1.71,1.13-2.41,1.05s-.49-2.55-.49-2.55Z"/><path class="cls-46" d="M198,143.84c.14.5-.35.86-.38,2a4.41,4.41,0,0,0,.38,1.87c-3,1.16-5.58,1.26-6.24.22a3.82,3.82,0,0,1-.22-2,4.36,4.36,0,0,1,.48-2.35C193.26,141.85,197.64,142.5,198,143.84Z"/><path class="cls-27" d="M189.16,164.38a8.42,8.42,0,0,1,.47-1,9.57,9.57,0,0,1,.74-1.17c.26.05.67.13,1.19.18s.81.06,1,.07c1.08.07,3.16.15,8.94.19a10.78,10.78,0,0,1,1,1.18,10.56,10.56,0,0,1,1.78,4.32c2.27,12.42,2.38,17.12,2.38,17.12q.08,2.75.15,5.5.17,6.57.29,13.08a1.58,1.58,0,0,1-.42.7,2.62,2.62,0,0,1-2.21.32,5.44,5.44,0,0,1-1.87-.64,23,23,0,0,1-2.1-5.15,21.16,21.16,0,0,1-.75-5.36,20.9,20.9,0,0,1,.59-5.12,44.19,44.19,0,0,0-5.86-11.87q-.5,7.06-.82,14.46-.29,6.76-.41,13.25l-3.84,1.53a40.16,40.16,0,0,1-1.4-13.32,39.16,39.16,0,0,1,.47-4q-.16-2.55-.44-5.27-.23-2.19-.52-4.26s-.61-7.12.54-11.34C188.25,166.79,188.9,165.08,189.16,164.38Z"/><path class="cls-16" d="M190.44,202.43a18.87,18.87,0,0,1-2.25-.12c.22,1.8.48,3.24.67,4.23a34.94,34.94,0,0,1,.68,5.76c0,.62.06,1.13.08,1.47l2.21,0,.46-.73.58.87q1.65,0,3.4,0t3.39-.13l.16-.92-3.08-.84a8.74,8.74,0,0,1-1.61-1.73,10.92,10.92,0,0,1-1.71-4.84,15,15,0,0,1-.19-3.2A18.88,18.88,0,0,1,190.44,202.43Z"/><path class="cls-29" d="M187.86,150.22a2.87,2.87,0,0,1,1.59-3.33l.84-.36c2.72-1.08,6-1.81,16.64-.79l6.53.63c2.34-1.38,4.79-2.94,7.3-4.71q2.15-1.52,4.07-3l1.79,2.34a47.88,47.88,0,0,1-12.16,9.87c-1.69.44-3.49.85-5.4,1.21-2.09.4-4.09.71-6,.95a4.26,4.26,0,0,1,.46,2,4.89,4.89,0,0,1-.91,2.53c-.63,1.05-1,2.91.11,6.42a26.32,26.32,0,0,1-7.18.5,42.65,42.65,0,0,1-6.55-1.07,29.74,29.74,0,0,0,.22-4.27,31.65,31.65,0,0,0-.59-5.27C188.46,152.8,188.21,151.58,187.86,150.22Z"/><path class="cls-46" d="M197,135a12.81,12.81,0,0,1,2.1,3.29c.05.15.07.22.37.39s.72.23.64.46-.53.53-.58.72L200,143l-1.27.5-4.29,1.67c.05-.17,1.62-4.45,1.61-4.69s-.06-.76.22-.89.74-2.63.87-3a1.26,1.26,0,0,0,0-.89C197.07,135.28,197,135,197,135Z"/><path class="cls-36" d="M189.86,143.11a4.3,4.3,0,0,0,3.17,1.56c1.76-.06,3.43-1.52,3.49-2.8a9.19,9.19,0,0,1-.14-2c.07-.48.24-1.17.51-1.19s.46.68.64.64.17-.8.17-1.24c0-1.93.41-2,.24-2.8a3.88,3.88,0,0,0-2.11-2.34,5.05,5.05,0,0,0-4.36.32,6.6,6.6,0,0,0-3.12,6.8A5.77,5.77,0,0,0,189.86,143.11Z"/><path class="cls-36" d="M186,138.8A3.23,3.23,0,0,0,188.4,140a2.75,2.75,0,0,0,2.62-2.1,6.9,6.9,0,0,1-.1-1.48c0-.36.18-.88.38-.9s.35.51.48.48.13-.6.13-.93c0-1.45.3-1.53.18-2.1a2.91,2.91,0,0,0-1.59-1.76,3.8,3.8,0,0,0-3.28.24,5,5,0,0,0-2.35,5.11A4.34,4.34,0,0,0,186,138.8Z"/><path class="cls-16" d="M204.7,204a18.87,18.87,0,0,1-2.25-.12c.22,1.8.48,3.24.67,4.23a34.94,34.94,0,0,1,.68,5.76c0,.62.06,1.13.08,1.47l2.21,0,.46-.73.58.87q1.65,0,3.4,0t3.39-.13l.16-.92-3.08-.84a8.74,8.74,0,0,1-1.61-1.73,10.92,10.92,0,0,1-1.71-4.84,15,15,0,0,1-.19-3.2A18.88,18.88,0,0,1,204.7,204Z"/><g id="Layer_2-2" data-name="Layer 2" class="cls-51"><g id="Blue"><path class="cls-52" d="M223.55,152.41a.56.56,0,0,0-1,.11l-4.86,9.72a.58.58,0,0,0,.52.84H225a.56.56,0,0,0,.52-.33C227,159.74,226.12,155.15,223.55,152.41Z"/><path class="cls-53" d="M227.12,143.57a12.82,12.82,0,0,0-.75,12.66l3.26,6.53a.58.58,0,0,0,.52.33h6.77a.58.58,0,0,0,.52-.84l-9.33-18.68A.55.55,0,0,0,227.12,143.57Z"/></g></g></g></g></g></svg>